<svg width="33" height="10" viewBox="0 0 33 10" fill="none" xmlns="http://www.w3.org/2000/svg">
<path d="M0.94 9L4.72 0.599999H6.256L10.048 9H8.416L5.164 1.428H5.788L2.548 9H0.94ZM2.68 7.056L3.1 5.832H7.636L8.056 7.056H2.68ZM12.1963 7.572L12.2323 5.688L15.5803 2.592H17.3803L14.5363 5.448L13.7443 6.108L12.1963 7.572ZM10.9723 9V0.0959995H12.4723V9H10.9723ZM15.8083 9L13.4683 6.108L14.4163 4.908L17.6323 9H15.8083ZM21.196 9.084C20.652 9.084 20.172 8.984 19.756 8.784C19.34 8.576 19.016 8.264 18.784 7.848C18.552 7.424 18.436 6.892 18.436 6.252V2.592H19.936V6.048C19.936 6.624 20.064 7.056 20.32 7.344C20.584 7.624 20.956 7.764 21.436 7.764C21.788 7.764 22.092 7.692 22.348 7.548C22.612 7.404 22.816 7.188 22.96 6.9C23.112 6.612 23.188 6.256 23.188 5.832V2.592H24.688V9H23.26V7.272L23.512 7.8C23.296 8.216 22.98 8.536 22.564 8.76C22.148 8.976 21.692 9.084 21.196 9.084ZM30.288 2.52C30.8 2.52 31.256 2.62 31.656 2.82C32.064 3.02 32.384 3.328 32.616 3.744C32.848 4.152 32.964 4.68 32.964 5.328V9H31.464V5.52C31.464 4.952 31.328 4.528 31.056 4.248C30.792 3.968 30.42 3.828 29.94 3.828C29.588 3.828 29.276 3.9 29.004 4.044C28.732 4.188 28.52 4.404 28.368 4.692C28.224 4.972 28.152 5.328 28.152 5.76V9H26.652V2.592H28.08V4.32L27.828 3.792C28.052 3.384 28.376 3.072 28.8 2.856C29.232 2.632 29.728 2.52 30.288 2.52Z" fill="#AAA4C2"/>
</svg>
