<svg width="40" height="40" viewBox="0 0 40 40" fill="none" xmlns="http://www.w3.org/2000/svg">
<rect x="0.5" y="0.5" width="39" height="39" rx="19.5" fill="#CCD1FF" stroke="#285496"/>
<path d="M14.695 25.18C13.855 25.18 13.05 25.07 12.28 24.85C11.51 24.62 10.89 24.325 10.42 23.965L11.245 22.135C11.695 22.455 12.225 22.72 12.835 22.93C13.455 23.13 14.08 23.23 14.71 23.23C15.19 23.23 15.575 23.185 15.865 23.095C16.165 22.995 16.385 22.86 16.525 22.69C16.665 22.52 16.735 22.325 16.735 22.105C16.735 21.825 16.625 21.605 16.405 21.445C16.185 21.275 15.895 21.14 15.535 21.04C15.175 20.93 14.775 20.83 14.335 20.74C13.905 20.64 13.47 20.52 13.03 20.38C12.6 20.24 12.205 20.06 11.845 19.84C11.485 19.62 11.19 19.33 10.96 18.97C10.74 18.61 10.63 18.15 10.63 17.59C10.63 16.99 10.79 16.445 11.11 15.955C11.44 15.455 11.93 15.06 12.58 14.77C13.24 14.47 14.065 14.32 15.055 14.32C15.715 14.32 16.365 14.4 17.005 14.56C17.645 14.71 18.21 14.94 18.7 15.25L17.95 17.095C17.46 16.815 16.97 16.61 16.48 16.48C15.99 16.34 15.51 16.27 15.04 16.27C14.57 16.27 14.185 16.325 13.885 16.435C13.585 16.545 13.37 16.69 13.24 16.87C13.11 17.04 13.045 17.24 13.045 17.47C13.045 17.74 13.155 17.96 13.375 18.13C13.595 18.29 13.885 18.42 14.245 18.52C14.605 18.62 15 18.72 15.43 18.82C15.87 18.92 16.305 19.035 16.735 19.165C17.175 19.295 17.575 19.47 17.935 19.69C18.295 19.91 18.585 20.2 18.805 20.56C19.035 20.92 19.15 21.375 19.15 21.925C19.15 22.515 18.985 23.055 18.655 23.545C18.325 24.035 17.83 24.43 17.17 24.73C16.52 25.03 15.695 25.18 14.695 25.18ZM20.8104 25V14.5H25.3554C26.2954 14.5 27.1054 14.655 27.7854 14.965C28.4654 15.265 28.9904 15.7 29.3604 16.27C29.7304 16.84 29.9154 17.52 29.9154 18.31C29.9154 19.09 29.7304 19.765 29.3604 20.335C28.9904 20.905 28.4654 21.345 27.7854 21.655C27.1054 21.955 26.2954 22.105 25.3554 22.105H22.1604L23.2404 21.01V25H20.8104ZM23.2404 21.28L22.1604 20.125H25.2204C25.9704 20.125 26.5304 19.965 26.9004 19.645C27.2704 19.325 27.4554 18.88 27.4554 18.31C27.4554 17.73 27.2704 17.28 26.9004 16.96C26.5304 16.64 25.9704 16.48 25.2204 16.48H22.1604L23.2404 15.325V21.28Z" fill="#0E1764"/>
</svg>
