<svg width="422" height="744" viewBox="0 0 422 744" fill="none" xmlns="http://www.w3.org/2000/svg">
<g filter="url(#filter0_d_261_7093)">
<g clip-path="url(#clip0_261_7093)">
<rect x="4" width="414" height="736" fill="#0E1764"/>
<g filter="url(#filter1_f_261_7093)">
<rect x="27" y="660" width="367" height="50" rx="13" fill="white"/>
<path d="M174.029 688.284H176.941V690H171.806V680.874H174.029V688.284ZM183.682 688.388H180.276L179.73 690H177.403L180.705 680.874H183.279L186.581 690H184.228L183.682 688.388ZM183.11 686.672L181.979 683.331L180.861 686.672H183.11ZM195.75 690H193.527L189.809 684.371V690H187.586V680.874H189.809L193.527 686.529V680.874H195.75V690ZM203.082 680.874V687.088C203.082 688.05 202.809 688.791 202.263 689.311C201.725 689.831 200.997 690.091 200.079 690.091C199.117 690.091 198.345 689.818 197.765 689.272C197.184 688.726 196.894 687.95 196.894 686.945H199.104C199.104 687.326 199.182 687.617 199.338 687.816C199.494 688.007 199.719 688.102 200.014 688.102C200.282 688.102 200.49 688.015 200.638 687.842C200.785 687.669 200.859 687.417 200.859 687.088V680.874H203.082ZM207.061 680.874V686.334C207.061 686.88 207.196 687.3 207.464 687.595C207.733 687.89 208.127 688.037 208.647 688.037C209.167 688.037 209.566 687.89 209.843 687.595C210.121 687.3 210.259 686.88 210.259 686.334V680.874H212.482V686.321C212.482 687.136 212.309 687.825 211.962 688.388C211.616 688.951 211.148 689.376 210.558 689.662C209.978 689.948 209.328 690.091 208.608 690.091C207.889 690.091 207.243 689.952 206.671 689.675C206.108 689.389 205.662 688.964 205.332 688.401C205.003 687.829 204.838 687.136 204.838 686.321V680.874H207.061ZM220.608 680.874V682.655H218.19V690H215.967V682.655H213.549V680.874H220.608ZM227.015 690L223.947 685.97V690H221.724V680.874H223.947V684.878L226.989 680.874H229.602L226.066 685.346L229.732 690H227.015ZM236.469 688.388H233.063L232.517 690H230.19L233.492 680.874H236.066L239.368 690H237.015L236.469 688.388ZM235.897 686.672L234.766 683.331L233.648 686.672H235.897ZM248.537 690H246.314L242.596 684.371V690H240.373V680.874H242.596L246.314 686.529V680.874H248.537V690Z" fill="#254F8E"/>
</g>
<g filter="url(#filter2_f_261_7093)">
<g filter="url(#filter3_d_261_7093)">
<rect x="27" y="124" width="367" height="384" rx="15" fill="white"/>
</g>
<path d="M49.079 158V148.9H50.821L56.19 155.452H55.345V148.9H57.425V158H55.696L50.314 151.448H51.159V158H49.079ZM62.763 158.104C62.0177 158.104 61.3547 157.948 60.774 157.636C60.202 157.324 59.747 156.899 59.409 156.362C59.0797 155.816 58.915 155.196 58.915 154.503C58.915 153.801 59.0797 153.181 59.409 152.644C59.747 152.098 60.202 151.673 60.774 151.37C61.3547 151.058 62.0177 150.902 62.763 150.902C63.4997 150.902 64.1584 151.058 64.739 151.37C65.3197 151.673 65.7747 152.094 66.104 152.631C66.4334 153.168 66.598 153.792 66.598 154.503C66.598 155.196 66.4334 155.816 66.104 156.362C65.7747 156.899 65.3197 157.324 64.739 157.636C64.1584 157.948 63.4997 158.104 62.763 158.104ZM62.763 156.44C63.101 156.44 63.4044 156.362 63.673 156.206C63.9417 156.05 64.154 155.829 64.31 155.543C64.466 155.248 64.544 154.902 64.544 154.503C64.544 154.096 64.466 153.749 64.31 153.463C64.154 153.177 63.9417 152.956 63.673 152.8C63.4044 152.644 63.101 152.566 62.763 152.566C62.425 152.566 62.1217 152.644 61.853 152.8C61.5844 152.956 61.3677 153.177 61.203 153.463C61.047 153.749 60.969 154.096 60.969 154.503C60.969 154.902 61.047 155.248 61.203 155.543C61.3677 155.829 61.5844 156.05 61.853 156.206C62.1217 156.362 62.425 156.44 62.763 156.44ZM76.9106 150.902C77.4652 150.902 77.9549 151.015 78.3796 151.24C78.8129 151.457 79.1509 151.795 79.3936 152.254C79.6449 152.705 79.7706 153.285 79.7706 153.996V158H77.7426V154.308C77.7426 153.745 77.6256 153.329 77.3916 153.06C77.1576 152.791 76.8282 152.657 76.4036 152.657C76.1089 152.657 75.8446 152.726 75.6106 152.865C75.3766 152.995 75.1946 153.194 75.0646 153.463C74.9346 153.732 74.8696 154.074 74.8696 154.49V158H72.8416V154.308C72.8416 153.745 72.7246 153.329 72.4906 153.06C72.2652 152.791 71.9402 152.657 71.5156 152.657C71.2209 152.657 70.9566 152.726 70.7226 152.865C70.4886 152.995 70.3066 153.194 70.1766 153.463C70.0466 153.732 69.9816 154.074 69.9816 154.49V158H67.9536V151.006H69.8906V152.917L69.5266 152.358C69.7692 151.881 70.1116 151.522 70.5536 151.279C71.0042 151.028 71.5156 150.902 72.0876 150.902C72.7289 150.902 73.2879 151.067 73.7646 151.396C74.2499 151.717 74.5706 152.211 74.7266 152.878L74.0116 152.683C74.2456 152.137 74.6182 151.704 75.1296 151.383C75.6496 151.062 76.2432 150.902 76.9106 150.902ZM84.9671 158.104C84.2218 158.104 83.5588 157.948 82.9781 157.636C82.4061 157.324 81.9511 156.899 81.6131 156.362C81.2838 155.816 81.1191 155.196 81.1191 154.503C81.1191 153.801 81.2838 153.181 81.6131 152.644C81.9511 152.098 82.4061 151.673 82.9781 151.37C83.5588 151.058 84.2218 150.902 84.9671 150.902C85.7038 150.902 86.3625 151.058 86.9431 151.37C87.5238 151.673 87.9788 152.094 88.3081 152.631C88.6375 153.168 88.8021 153.792 88.8021 154.503C88.8021 155.196 88.6375 155.816 88.3081 156.362C87.9788 156.899 87.5238 157.324 86.9431 157.636C86.3625 157.948 85.7038 158.104 84.9671 158.104ZM84.9671 156.44C85.3051 156.44 85.6085 156.362 85.8771 156.206C86.1458 156.05 86.3581 155.829 86.5141 155.543C86.6701 155.248 86.7481 154.902 86.7481 154.503C86.7481 154.096 86.6701 153.749 86.5141 153.463C86.3581 153.177 86.1458 152.956 85.8771 152.8C85.6085 152.644 85.3051 152.566 84.9671 152.566C84.6291 152.566 84.3258 152.644 84.0571 152.8C83.7885 152.956 83.5718 153.177 83.4071 153.463C83.2511 153.749 83.1731 154.096 83.1731 154.503C83.1731 154.902 83.2511 155.248 83.4071 155.543C83.5718 155.829 83.7885 156.05 84.0571 156.206C84.3258 156.362 84.6291 156.44 84.9671 156.44ZM90.1577 158V151.006H92.0947V152.982L91.8217 152.41C92.0297 151.916 92.3633 151.543 92.8227 151.292C93.282 151.032 93.841 150.902 94.4997 150.902V152.774C94.413 152.765 94.335 152.761 94.2657 152.761C94.1963 152.752 94.1227 152.748 94.0447 152.748C93.49 152.748 93.0393 152.908 92.6927 153.229C92.3547 153.541 92.1857 154.031 92.1857 154.698V158H90.1577ZM101.466 158V150.616H98.554V148.9H106.484V150.616H103.572V158H101.466ZM110.273 158.104C109.692 158.104 109.172 157.991 108.713 157.766C108.262 157.541 107.911 157.198 107.66 156.739C107.408 156.271 107.283 155.677 107.283 154.958V151.006H109.311V154.659C109.311 155.24 109.432 155.669 109.675 155.946C109.926 156.215 110.277 156.349 110.728 156.349C111.04 156.349 111.317 156.284 111.56 156.154C111.802 156.015 111.993 155.807 112.132 155.53C112.27 155.244 112.34 154.889 112.34 154.464V151.006H114.368V158H112.444V156.076L112.795 156.635C112.561 157.12 112.214 157.489 111.755 157.74C111.304 157.983 110.81 158.104 110.273 158.104ZM115.727 160.626C115.415 160.626 115.116 160.591 114.83 160.522C114.544 160.461 114.301 160.366 114.102 160.236L114.648 158.767C114.882 158.932 115.168 159.014 115.506 159.014C115.757 159.014 115.956 158.927 116.104 158.754C116.26 158.589 116.338 158.338 116.338 158V151.006H118.366V157.987C118.366 158.793 118.136 159.434 117.677 159.911C117.217 160.388 116.567 160.626 115.727 160.626ZM117.352 150.031C116.979 150.031 116.676 149.923 116.442 149.706C116.208 149.489 116.091 149.221 116.091 148.9C116.091 148.579 116.208 148.311 116.442 148.094C116.676 147.877 116.979 147.769 117.352 147.769C117.724 147.769 118.028 147.873 118.262 148.081C118.496 148.28 118.613 148.54 118.613 148.861C118.613 149.199 118.496 149.481 118.262 149.706C118.036 149.923 117.733 150.031 117.352 150.031ZM123.184 158.104C122.603 158.104 122.083 157.991 121.624 157.766C121.173 157.541 120.822 157.198 120.571 156.739C120.32 156.271 120.194 155.677 120.194 154.958V151.006H122.222V154.659C122.222 155.24 122.343 155.669 122.586 155.946C122.837 156.215 123.188 156.349 123.639 156.349C123.951 156.349 124.228 156.284 124.471 156.154C124.714 156.015 124.904 155.807 125.043 155.53C125.182 155.244 125.251 154.889 125.251 154.464V151.006H127.279V158H125.355V156.076L125.706 156.635C125.472 157.12 125.125 157.489 124.666 157.74C124.215 157.983 123.721 158.104 123.184 158.104ZM133.448 158V156.635L133.318 156.336V153.892C133.318 153.459 133.183 153.121 132.915 152.878C132.655 152.635 132.252 152.514 131.706 152.514C131.333 152.514 130.965 152.575 130.601 152.696C130.245 152.809 129.942 152.965 129.691 153.164L128.963 151.747C129.344 151.478 129.803 151.27 130.341 151.123C130.878 150.976 131.424 150.902 131.979 150.902C133.045 150.902 133.872 151.153 134.462 151.656C135.051 152.159 135.346 152.943 135.346 154.009V158H133.448ZM131.316 158.104C130.77 158.104 130.302 158.013 129.912 157.831C129.522 157.64 129.223 157.385 129.015 157.064C128.807 156.743 128.703 156.384 128.703 155.985C128.703 155.569 128.802 155.205 129.002 154.893C129.21 154.581 129.535 154.338 129.977 154.165C130.419 153.983 130.995 153.892 131.706 153.892H133.565V155.075H131.927C131.45 155.075 131.121 155.153 130.939 155.309C130.765 155.465 130.679 155.66 130.679 155.894C130.679 156.154 130.778 156.362 130.978 156.518C131.186 156.665 131.467 156.739 131.823 156.739C132.161 156.739 132.464 156.661 132.733 156.505C133.001 156.34 133.196 156.102 133.318 155.79L133.63 156.726C133.482 157.177 133.214 157.519 132.824 157.753C132.434 157.987 131.931 158.104 131.316 158.104ZM141.432 150.902C141.987 150.902 142.481 151.015 142.914 151.24C143.356 151.457 143.703 151.795 143.954 152.254C144.205 152.705 144.331 153.285 144.331 153.996V158H142.303V154.308C142.303 153.745 142.177 153.329 141.926 153.06C141.683 152.791 141.337 152.657 140.886 152.657C140.565 152.657 140.275 152.726 140.015 152.865C139.764 152.995 139.564 153.199 139.417 153.476C139.278 153.753 139.209 154.109 139.209 154.542V158H137.181V151.006H139.118V152.943L138.754 152.358C139.005 151.89 139.365 151.53 139.833 151.279C140.301 151.028 140.834 150.902 141.432 150.902Z" fill="#285496"/>
<path d="M102.769 180.086H107.306V181.516H102.769V180.086ZM102.912 185H101.222V175.9H107.865V177.317H102.912V185ZM107.819 185L111.914 175.9H113.578L117.686 185H115.918L112.395 176.797H113.071L109.561 185H107.819ZM109.704 182.894L110.159 181.568H115.073L115.528 182.894H109.704ZM118.843 185V175.9H122.587C123.393 175.9 124.082 176.03 124.654 176.29C125.235 176.55 125.681 176.923 125.993 177.408C126.305 177.893 126.461 178.47 126.461 179.137C126.461 179.804 126.305 180.381 125.993 180.866C125.681 181.343 125.235 181.711 124.654 181.971C124.082 182.222 123.393 182.348 122.587 182.348H119.779L120.533 181.581V185H118.843ZM124.797 185L122.496 181.698H124.303L126.617 185H124.797ZM120.533 181.763L119.779 180.957H122.509C123.254 180.957 123.813 180.797 124.186 180.476C124.567 180.155 124.758 179.709 124.758 179.137C124.758 178.556 124.567 178.11 124.186 177.798C123.813 177.486 123.254 177.33 122.509 177.33H119.779L120.533 176.498V181.763ZM128.352 185V175.9H130.042V185H128.352ZM131.814 185V183.869L137.69 176.693L137.885 177.33H131.905V175.9H139.406V177.031L133.53 184.207L133.322 183.57H139.575V185H131.814ZM144.716 185V175.9H148.46C149.266 175.9 149.955 176.03 150.527 176.29C151.108 176.55 151.554 176.923 151.866 177.408C152.178 177.893 152.334 178.47 152.334 179.137C152.334 179.804 152.178 180.381 151.866 180.866C151.554 181.343 151.108 181.711 150.527 181.971C149.955 182.222 149.266 182.348 148.46 182.348H145.652L146.406 181.581V185H144.716ZM150.67 185L148.369 181.698H150.176L152.49 185H150.67ZM146.406 181.763L145.652 180.957H148.382C149.127 180.957 149.686 180.797 150.059 180.476C150.44 180.155 150.631 179.709 150.631 179.137C150.631 178.556 150.44 178.11 150.059 177.798C149.686 177.486 149.127 177.33 148.382 177.33H145.652L146.406 176.498V181.763ZM152.938 185L157.033 175.9H158.697L162.805 185H161.037L157.514 176.797H158.19L154.68 185H152.938ZM154.823 182.894L155.278 181.568H160.192L160.647 182.894H154.823ZM170.358 175.9H172.048V185H170.358V175.9ZM165.652 185H163.962V175.9H165.652V185ZM170.488 181.1H165.509V179.657H170.488V181.1ZM174.487 185V175.9H175.878L179.856 182.543H179.128L183.041 175.9H184.432L184.445 185H182.846L182.833 178.409H183.171L179.843 183.96H179.089L175.709 178.409H176.099V185H174.487ZM185.616 185L189.711 175.9H191.375L195.483 185H193.715L190.192 176.797H190.868L187.358 185H185.616ZM187.501 182.894L187.956 181.568H192.87L193.325 182.894H187.501ZM196.64 185V175.9H198.031L203.738 182.907H203.049V175.9H204.726V185H203.335L197.628 177.993H198.317V185H196.64ZM210.757 185V175.9H212.148L216.126 182.543H215.398L219.311 175.9H220.702L220.715 185H219.116L219.103 178.409H219.441L216.113 183.96H215.359L211.979 178.409H212.369V185H210.757ZM221.886 185L225.981 175.9H227.645L231.753 185H229.985L226.462 176.797H227.138L223.628 185H221.886ZM223.771 182.894L224.226 181.568H229.14L229.595 182.894H223.771ZM236.633 185.13C235.385 185.13 234.406 184.779 233.695 184.077C232.993 183.375 232.642 182.361 232.642 181.035V175.9H234.332V180.97C234.332 181.906 234.531 182.586 234.93 183.011C235.337 183.436 235.909 183.648 236.646 183.648C237.383 183.648 237.95 183.436 238.349 183.011C238.748 182.586 238.947 181.906 238.947 180.97V175.9H240.611V181.035C240.611 182.361 240.256 183.375 239.545 184.077C238.843 184.779 237.872 185.13 236.633 185.13ZM242.978 185V175.9H244.668V183.57H249.426V185H242.978ZM249.486 185L253.581 175.9H255.245L259.353 185H257.585L254.062 176.797H254.738L251.228 185H249.486ZM251.371 182.894L251.826 181.568H256.74L257.195 182.894H251.371ZM260.51 185V175.9H261.901L267.608 182.907H266.919V175.9H268.596V185H267.205L261.498 177.993H262.187V185H260.51ZM269.747 185L273.843 175.9H275.507L279.615 185H277.847L274.324 176.797H275L271.49 185H269.747ZM271.633 182.894L272.088 181.568H277.002L277.456 182.894H271.633Z" fill="black"/>
<path d="M101.26 203V194.6H105.028C105.996 194.6 106.74 194.796 107.26 195.188C107.78 195.572 108.04 196.1 108.04 196.772C108.04 197.228 107.936 197.612 107.728 197.924C107.528 198.236 107.256 198.476 106.912 198.644C106.568 198.812 106.196 198.896 105.796 198.896L106.012 198.536C106.492 198.536 106.916 198.62 107.284 198.788C107.652 198.956 107.944 199.204 108.16 199.532C108.376 199.852 108.484 200.252 108.484 200.732C108.484 201.452 108.212 202.012 107.668 202.412C107.132 202.804 106.332 203 105.268 203H101.26ZM102.46 202.028H105.22C105.884 202.028 106.392 201.916 106.744 201.692C107.096 201.468 107.272 201.116 107.272 200.636C107.272 200.148 107.096 199.792 106.744 199.568C106.392 199.344 105.884 199.232 105.22 199.232H102.352V198.26H104.92C105.528 198.26 106 198.148 106.336 197.924C106.672 197.7 106.84 197.364 106.84 196.916C106.84 196.468 106.672 196.132 106.336 195.908C106 195.684 105.528 195.572 104.92 195.572H102.46V202.028ZM109.07 203L112.874 194.6H114.062L117.878 203H116.618L113.222 195.272H113.702L110.306 203H109.07ZM110.69 200.9L111.014 199.94H115.742L116.09 200.9H110.69ZM119.131 203V194.6H120.115L125.671 201.5H125.155V194.6H126.355V203H125.371L119.815 196.1H120.331V203H119.131ZM129.925 200.972L129.865 199.508L134.629 194.6H135.997L132.313 198.488L131.641 199.232L129.925 200.972ZM128.869 203V194.6H130.069V203H128.869ZM134.821 203L131.377 198.992L132.181 198.104L136.225 203H134.821ZM140.717 203V194.6H144.485C145.453 194.6 146.197 194.796 146.717 195.188C147.237 195.572 147.497 196.1 147.497 196.772C147.497 197.228 147.393 197.612 147.185 197.924C146.985 198.236 146.713 198.476 146.369 198.644C146.025 198.812 145.653 198.896 145.253 198.896L145.469 198.536C145.949 198.536 146.373 198.62 146.741 198.788C147.109 198.956 147.401 199.204 147.617 199.532C147.833 199.852 147.941 200.252 147.941 200.732C147.941 201.452 147.669 202.012 147.125 202.412C146.589 202.804 145.789 203 144.725 203H140.717ZM141.917 202.028H144.677C145.341 202.028 145.849 201.916 146.201 201.692C146.553 201.468 146.729 201.116 146.729 200.636C146.729 200.148 146.553 199.792 146.201 199.568C145.849 199.344 145.341 199.232 144.677 199.232H141.809V198.26H144.377C144.985 198.26 145.457 198.148 145.793 197.924C146.129 197.7 146.297 197.364 146.297 196.916C146.297 196.468 146.129 196.132 145.793 195.908C145.457 195.684 144.985 195.572 144.377 195.572H141.917V202.028ZM153.555 203.096C152.915 203.096 152.323 202.992 151.779 202.784C151.243 202.568 150.775 202.268 150.375 201.884C149.983 201.492 149.675 201.036 149.451 200.516C149.227 199.996 149.115 199.424 149.115 198.8C149.115 198.176 149.227 197.604 149.451 197.084C149.675 196.564 149.987 196.112 150.387 195.728C150.787 195.336 151.255 195.036 151.791 194.828C152.335 194.612 152.927 194.504 153.567 194.504C154.215 194.504 154.811 194.616 155.355 194.84C155.907 195.056 156.375 195.38 156.759 195.812L155.979 196.568C155.659 196.232 155.299 195.984 154.899 195.824C154.499 195.656 154.071 195.572 153.615 195.572C153.143 195.572 152.703 195.652 152.295 195.812C151.895 195.972 151.547 196.196 151.251 196.484C150.955 196.772 150.723 197.116 150.555 197.516C150.395 197.908 150.315 198.336 150.315 198.8C150.315 199.264 150.395 199.696 150.555 200.096C150.723 200.488 150.955 200.828 151.251 201.116C151.547 201.404 151.895 201.628 152.295 201.788C152.703 201.948 153.143 202.028 153.615 202.028C154.071 202.028 154.499 201.948 154.899 201.788C155.299 201.62 155.659 201.364 155.979 201.02L156.759 201.776C156.375 202.208 155.907 202.536 155.355 202.76C154.811 202.984 154.211 203.096 153.555 203.096ZM157 203L160.804 194.6H161.992L165.808 203H164.548L161.152 195.272H161.632L158.236 203H157ZM158.62 200.9L158.944 199.94H163.672L164.02 200.9H158.62ZM169.707 200.204V199.208H172.935V200.204H169.707ZM180.128 203.096C179.536 203.096 178.96 203.004 178.4 202.82C177.848 202.636 177.396 202.388 177.044 202.076L177.596 201.128C177.876 201.392 178.24 201.608 178.688 201.776C179.136 201.944 179.612 202.028 180.116 202.028C180.756 202.028 181.248 201.892 181.592 201.62C181.936 201.348 182.108 200.984 182.108 200.528C182.108 200.216 182.032 199.944 181.88 199.712C181.728 199.48 181.464 199.304 181.088 199.184C180.72 199.056 180.212 198.992 179.564 198.992H177.656L178.1 194.6H182.84V195.644H178.544L179.168 195.056L178.82 198.524L178.196 197.948H179.816C180.656 197.948 181.332 198.056 181.844 198.272C182.356 198.488 182.728 198.788 182.96 199.172C183.192 199.548 183.308 199.984 183.308 200.48C183.308 200.96 183.192 201.4 182.96 201.8C182.728 202.192 182.376 202.508 181.904 202.748C181.44 202.98 180.848 203.096 180.128 203.096ZM186.96 203.096C186.368 203.096 185.792 203.004 185.232 202.82C184.68 202.636 184.228 202.388 183.876 202.076L184.428 201.128C184.708 201.392 185.072 201.608 185.52 201.776C185.968 201.944 186.444 202.028 186.948 202.028C187.588 202.028 188.08 201.892 188.424 201.62C188.768 201.348 188.94 200.984 188.94 200.528C188.94 200.216 188.864 199.944 188.712 199.712C188.56 199.48 188.296 199.304 187.92 199.184C187.552 199.056 187.044 198.992 186.396 198.992H184.488L184.932 194.6H189.672V195.644H185.376L186 195.056L185.652 198.524L185.028 197.948H186.648C187.488 197.948 188.164 198.056 188.676 198.272C189.188 198.488 189.56 198.788 189.792 199.172C190.024 199.548 190.14 199.984 190.14 200.48C190.14 200.96 190.024 201.4 189.792 201.8C189.56 202.192 189.208 202.508 188.736 202.748C188.272 202.98 187.68 203.096 186.96 203.096ZM194.571 203.096C193.915 203.096 193.327 202.928 192.807 202.592C192.295 202.256 191.887 201.768 191.583 201.128C191.287 200.488 191.139 199.712 191.139 198.8C191.139 197.888 191.287 197.112 191.583 196.472C191.887 195.832 192.295 195.344 192.807 195.008C193.327 194.672 193.915 194.504 194.571 194.504C195.219 194.504 195.803 194.672 196.323 195.008C196.843 195.344 197.251 195.832 197.547 196.472C197.843 197.112 197.991 197.888 197.991 198.8C197.991 199.712 197.843 200.488 197.547 201.128C197.251 201.768 196.843 202.256 196.323 202.592C195.803 202.928 195.219 203.096 194.571 203.096ZM194.571 202.028C195.011 202.028 195.395 201.908 195.723 201.668C196.059 201.428 196.319 201.068 196.503 200.588C196.695 200.108 196.791 199.512 196.791 198.8C196.791 198.088 196.695 197.492 196.503 197.012C196.319 196.532 196.059 196.172 195.723 195.932C195.395 195.692 195.011 195.572 194.571 195.572C194.131 195.572 193.743 195.692 193.407 195.932C193.071 196.172 192.807 196.532 192.615 197.012C192.431 197.492 192.339 198.088 192.339 198.8C192.339 199.512 192.431 200.108 192.615 200.588C192.807 201.068 193.071 201.428 193.407 201.668C193.743 201.908 194.131 202.028 194.571 202.028ZM199.022 200.936V200.096L203.318 194.6H204.614L200.354 200.096L199.742 199.904H206.45V200.936H199.022ZM203.69 203V200.936L203.726 199.904V198.08H204.854V203H203.69ZM209.597 203.096C209.005 203.096 208.429 203.004 207.869 202.82C207.317 202.636 206.865 202.388 206.513 202.076L207.065 201.128C207.345 201.392 207.709 201.608 208.157 201.776C208.605 201.944 209.085 202.028 209.597 202.028C210.221 202.028 210.705 201.896 211.049 201.632C211.401 201.36 211.577 200.996 211.577 200.54C211.577 200.1 211.409 199.748 211.073 199.484C210.745 199.212 210.221 199.076 209.501 199.076H208.829V198.236L211.325 195.164L211.493 195.644H206.897V194.6H212.441V195.416L209.957 198.476L209.333 198.104H209.729C210.745 198.104 211.505 198.332 212.009 198.788C212.521 199.244 212.777 199.824 212.777 200.528C212.777 201 212.661 201.432 212.429 201.824C212.197 202.216 211.845 202.528 211.373 202.76C210.909 202.984 210.317 203.096 209.597 203.096ZM215.208 203L218.772 195.104L219.084 195.644H214.092L214.692 195.056V197.144H213.54V194.6H219.876V195.416L216.48 203H215.208ZM223.993 203.096C223.313 203.096 222.725 202.996 222.229 202.796C221.733 202.596 221.349 202.312 221.077 201.944C220.805 201.568 220.669 201.128 220.669 200.624C220.669 200.128 220.797 199.708 221.053 199.364C221.317 199.012 221.697 198.748 222.193 198.572C222.689 198.388 223.289 198.296 223.993 198.296C224.697 198.296 225.297 198.388 225.793 198.572C226.297 198.748 226.681 199.012 226.945 199.364C227.209 199.716 227.341 200.136 227.341 200.624C227.341 201.128 227.205 201.568 226.933 201.944C226.661 202.312 226.273 202.596 225.769 202.796C225.265 202.996 224.673 203.096 223.993 203.096ZM223.993 202.124C224.665 202.124 225.189 201.988 225.565 201.716C225.949 201.436 226.141 201.06 226.141 200.588C226.141 200.124 225.949 199.76 225.565 199.496C225.189 199.224 224.665 199.088 223.993 199.088C223.329 199.088 222.809 199.224 222.433 199.496C222.057 199.76 221.869 200.124 221.869 200.588C221.869 201.06 222.057 201.436 222.433 201.716C222.809 201.988 223.329 202.124 223.993 202.124ZM223.993 198.944C223.353 198.944 222.809 198.86 222.361 198.692C221.913 198.516 221.569 198.268 221.329 197.948C221.089 197.62 220.969 197.232 220.969 196.784C220.969 196.312 221.093 195.908 221.341 195.572C221.597 195.228 221.953 194.964 222.409 194.78C222.865 194.596 223.393 194.504 223.993 194.504C224.601 194.504 225.133 194.596 225.589 194.78C226.045 194.964 226.401 195.228 226.657 195.572C226.913 195.908 227.041 196.312 227.041 196.784C227.041 197.232 226.921 197.62 226.681 197.948C226.441 198.268 226.093 198.516 225.637 198.692C225.181 198.86 224.633 198.944 223.993 198.944ZM223.993 198.176C224.577 198.176 225.033 198.056 225.361 197.816C225.697 197.576 225.865 197.248 225.865 196.832C225.865 196.408 225.693 196.076 225.349 195.836C225.005 195.596 224.553 195.476 223.993 195.476C223.433 195.476 222.985 195.596 222.649 195.836C222.321 196.076 222.157 196.408 222.157 196.832C222.157 197.248 222.317 197.576 222.637 197.816C222.965 198.056 223.417 198.176 223.993 198.176ZM228.319 200.936V200.096L232.615 194.6H233.911L229.651 200.096L229.039 199.904H235.747V200.936H228.319ZM232.987 203V200.936L233.023 199.904V198.08H234.151V203H232.987ZM237.356 203L240.92 195.104L241.232 195.644H236.24L236.84 195.056V197.144H235.688V194.6H242.024V195.416L238.628 203H237.356ZM245.55 203.096C244.958 203.096 244.382 203.004 243.822 202.82C243.27 202.636 242.818 202.388 242.466 202.076L243.018 201.128C243.298 201.392 243.662 201.608 244.11 201.776C244.558 201.944 245.038 202.028 245.55 202.028C246.174 202.028 246.658 201.896 247.002 201.632C247.354 201.36 247.53 200.996 247.53 200.54C247.53 200.1 247.362 199.748 247.026 199.484C246.698 199.212 246.174 199.076 245.454 199.076H244.782V198.236L247.278 195.164L247.446 195.644H242.85V194.6H248.394V195.416L245.91 198.476L245.286 198.104H245.682C246.698 198.104 247.458 198.332 247.962 198.788C248.474 199.244 248.73 199.824 248.73 200.528C248.73 201 248.614 201.432 248.382 201.824C248.15 202.216 247.798 202.528 247.326 202.76C246.862 202.984 246.27 203.096 245.55 203.096Z" fill="black"/>
<rect x="48.5" y="170.5" width="39" height="39" rx="19.5" fill="#CCD1FF" stroke="#285496"/>
<path d="M59.495 190.225H64.535V192.175H59.495V190.225ZM59.675 196H57.245V185.5H65.18V187.45H59.675V196ZM66.8251 196V185.5H68.8351L73.3051 192.91H72.2401L76.6351 185.5H78.6301L78.6601 196H76.3801L76.3651 188.995H76.7851L73.2751 194.89H72.1801L68.5951 188.995H69.1051V196H66.8251Z" fill="#0E1764"/>
<line x1="27" y1="229.5" x2="394" y2="229.5" stroke="#8E8D8D"/>
<rect x="48" y="270" width="324" height="67" rx="10" fill="#E4EDFF"/>
<path d="M49.079 257V247.9H50.821L56.19 254.452H55.345V247.9H57.425V257H55.696L50.314 250.448H51.159V257H49.079ZM62.763 257.104C62.0177 257.104 61.3547 256.948 60.774 256.636C60.202 256.324 59.747 255.899 59.409 255.362C59.0797 254.816 58.915 254.196 58.915 253.503C58.915 252.801 59.0797 252.181 59.409 251.644C59.747 251.098 60.202 250.673 60.774 250.37C61.3547 250.058 62.0177 249.902 62.763 249.902C63.4997 249.902 64.1584 250.058 64.739 250.37C65.3197 250.673 65.7747 251.094 66.104 251.631C66.4334 252.168 66.598 252.792 66.598 253.503C66.598 254.196 66.4334 254.816 66.104 255.362C65.7747 255.899 65.3197 256.324 64.739 256.636C64.1584 256.948 63.4997 257.104 62.763 257.104ZM62.763 255.44C63.101 255.44 63.4044 255.362 63.673 255.206C63.9417 255.05 64.154 254.829 64.31 254.543C64.466 254.248 64.544 253.902 64.544 253.503C64.544 253.096 64.466 252.749 64.31 252.463C64.154 252.177 63.9417 251.956 63.673 251.8C63.4044 251.644 63.101 251.566 62.763 251.566C62.425 251.566 62.1217 251.644 61.853 251.8C61.5844 251.956 61.3677 252.177 61.203 252.463C61.047 252.749 60.969 253.096 60.969 253.503C60.969 253.902 61.047 254.248 61.203 254.543C61.3677 254.829 61.5844 255.05 61.853 255.206C62.1217 255.362 62.425 255.44 62.763 255.44ZM76.9106 249.902C77.4652 249.902 77.9549 250.015 78.3796 250.24C78.8129 250.457 79.1509 250.795 79.3936 251.254C79.6449 251.705 79.7706 252.285 79.7706 252.996V257H77.7426V253.308C77.7426 252.745 77.6256 252.329 77.3916 252.06C77.1576 251.791 76.8282 251.657 76.4036 251.657C76.1089 251.657 75.8446 251.726 75.6106 251.865C75.3766 251.995 75.1946 252.194 75.0646 252.463C74.9346 252.732 74.8696 253.074 74.8696 253.49V257H72.8416V253.308C72.8416 252.745 72.7246 252.329 72.4906 252.06C72.2652 251.791 71.9402 251.657 71.5156 251.657C71.2209 251.657 70.9566 251.726 70.7226 251.865C70.4886 251.995 70.3066 252.194 70.1766 252.463C70.0466 252.732 69.9816 253.074 69.9816 253.49V257H67.9536V250.006H69.8906V251.917L69.5266 251.358C69.7692 250.881 70.1116 250.522 70.5536 250.279C71.0042 250.028 71.5156 249.902 72.0876 249.902C72.7289 249.902 73.2879 250.067 73.7646 250.396C74.2499 250.717 74.5706 251.211 74.7266 251.878L74.0116 251.683C74.2456 251.137 74.6182 250.704 75.1296 250.383C75.6496 250.062 76.2432 249.902 76.9106 249.902ZM81.5883 257V250.006H83.6163V257H81.5883ZM82.6023 249.031C82.2297 249.031 81.9263 248.923 81.6923 248.706C81.4583 248.489 81.3413 248.221 81.3413 247.9C81.3413 247.579 81.4583 247.311 81.6923 247.094C81.9263 246.877 82.2297 246.769 82.6023 246.769C82.975 246.769 83.2783 246.873 83.5123 247.081C83.7463 247.28 83.8633 247.54 83.8633 247.861C83.8633 248.199 83.7463 248.481 83.5123 248.706C83.287 248.923 82.9837 249.031 82.6023 249.031ZM89.7495 249.902C90.3042 249.902 90.7982 250.015 91.2315 250.24C91.6735 250.457 92.0202 250.795 92.2715 251.254C92.5228 251.705 92.6485 252.285 92.6485 252.996V257H90.6205V253.308C90.6205 252.745 90.4948 252.329 90.2435 252.06C90.0008 251.791 89.6542 251.657 89.2035 251.657C88.8828 251.657 88.5925 251.726 88.3325 251.865C88.0812 251.995 87.8818 252.199 87.7345 252.476C87.5958 252.753 87.5265 253.109 87.5265 253.542V257H85.4985V250.006H87.4355V251.943L87.0715 251.358C87.3228 250.89 87.6825 250.53 88.1505 250.279C88.6185 250.028 89.1515 249.902 89.7495 249.902ZM98.7768 257V255.635L98.6468 255.336V252.892C98.6468 252.459 98.5124 252.121 98.2438 251.878C97.9838 251.635 97.5808 251.514 97.0348 251.514C96.6621 251.514 96.2938 251.575 95.9298 251.696C95.5744 251.809 95.2711 251.965 95.0198 252.164L94.2918 250.747C94.6731 250.478 95.1324 250.27 95.6698 250.123C96.2071 249.976 96.7531 249.902 97.3078 249.902C98.3738 249.902 99.2014 250.153 99.7908 250.656C100.38 251.159 100.675 251.943 100.675 253.009V257H98.7768ZM96.6448 257.104C96.0988 257.104 95.6308 257.013 95.2408 256.831C94.8508 256.64 94.5518 256.385 94.3438 256.064C94.1358 255.743 94.0318 255.384 94.0318 254.985C94.0318 254.569 94.1314 254.205 94.3308 253.893C94.5388 253.581 94.8638 253.338 95.3058 253.165C95.7478 252.983 96.3241 252.892 97.0348 252.892H98.8938V254.075H97.2558C96.7791 254.075 96.4498 254.153 96.2678 254.309C96.0944 254.465 96.0078 254.66 96.0078 254.894C96.0078 255.154 96.1074 255.362 96.3068 255.518C96.5148 255.665 96.7964 255.739 97.1518 255.739C97.4898 255.739 97.7931 255.661 98.0618 255.505C98.3304 255.34 98.5254 255.102 98.6468 254.79L98.9588 255.726C98.8114 256.177 98.5428 256.519 98.1528 256.753C97.7628 256.987 97.2601 257.104 96.6448 257.104ZM102.51 257V247.354H104.538V257H102.51ZM112.13 257V249.616H109.218V247.9H117.148V249.616H114.236V257H112.13ZM117.986 257V250.006H119.923V251.982L119.65 251.41C119.858 250.916 120.191 250.543 120.651 250.292C121.11 250.032 121.669 249.902 122.328 249.902V251.774C122.241 251.765 122.163 251.761 122.094 251.761C122.024 251.752 121.951 251.748 121.873 251.748C121.318 251.748 120.867 251.908 120.521 252.229C120.183 252.541 120.014 253.031 120.014 253.698V257H117.986ZM127.367 257V255.635L127.237 255.336V252.892C127.237 252.459 127.102 252.121 126.834 251.878C126.574 251.635 126.171 251.514 125.625 251.514C125.252 251.514 124.884 251.575 124.52 251.696C124.164 251.809 123.861 251.965 123.61 252.164L122.882 250.747C123.263 250.478 123.722 250.27 124.26 250.123C124.797 249.976 125.343 249.902 125.898 249.902C126.964 249.902 127.791 250.153 128.381 250.656C128.97 251.159 129.265 251.943 129.265 253.009V257H127.367ZM125.235 257.104C124.689 257.104 124.221 257.013 123.831 256.831C123.441 256.64 123.142 256.385 122.934 256.064C122.726 255.743 122.622 255.384 122.622 254.985C122.622 254.569 122.721 254.205 122.921 253.893C123.129 253.581 123.454 253.338 123.896 253.165C124.338 252.983 124.914 252.892 125.625 252.892H127.484V254.075H125.846C125.369 254.075 125.04 254.153 124.858 254.309C124.684 254.465 124.598 254.66 124.598 254.894C124.598 255.154 124.697 255.362 124.897 255.518C125.105 255.665 125.386 255.739 125.742 255.739C126.08 255.739 126.383 255.661 126.652 255.505C126.92 255.34 127.115 255.102 127.237 254.79L127.549 255.726C127.401 256.177 127.133 256.519 126.743 256.753C126.353 256.987 125.85 257.104 125.235 257.104ZM135.351 249.902C135.906 249.902 136.4 250.015 136.833 250.24C137.275 250.457 137.622 250.795 137.873 251.254C138.124 251.705 138.25 252.285 138.25 252.996V257H136.222V253.308C136.222 252.745 136.096 252.329 135.845 252.06C135.602 251.791 135.256 251.657 134.805 251.657C134.484 251.657 134.194 251.726 133.934 251.865C133.683 251.995 133.483 252.199 133.336 252.476C133.197 252.753 133.128 253.109 133.128 253.542V257H131.1V250.006H133.037V251.943L132.673 251.358C132.924 250.89 133.284 250.53 133.752 250.279C134.22 250.028 134.753 249.902 135.351 249.902ZM142.441 257.104C141.843 257.104 141.267 257.035 140.712 256.896C140.166 256.749 139.733 256.567 139.412 256.35L140.088 254.894C140.409 255.093 140.786 255.258 141.219 255.388C141.661 255.509 142.095 255.57 142.519 255.57C142.987 255.57 143.317 255.514 143.507 255.401C143.707 255.288 143.806 255.132 143.806 254.933C143.806 254.768 143.728 254.647 143.572 254.569C143.425 254.482 143.226 254.417 142.974 254.374C142.723 254.331 142.446 254.287 142.142 254.244C141.848 254.201 141.549 254.144 141.245 254.075C140.942 253.997 140.665 253.884 140.413 253.737C140.162 253.59 139.958 253.39 139.802 253.139C139.655 252.888 139.581 252.563 139.581 252.164C139.581 251.722 139.707 251.332 139.958 250.994C140.218 250.656 140.591 250.392 141.076 250.201C141.562 250.002 142.142 249.902 142.818 249.902C143.295 249.902 143.78 249.954 144.274 250.058C144.768 250.162 145.18 250.314 145.509 250.513L144.833 251.956C144.495 251.757 144.153 251.622 143.806 251.553C143.468 251.475 143.139 251.436 142.818 251.436C142.368 251.436 142.038 251.497 141.83 251.618C141.622 251.739 141.518 251.895 141.518 252.086C141.518 252.259 141.592 252.389 141.739 252.476C141.895 252.563 142.099 252.632 142.35 252.684C142.602 252.736 142.875 252.784 143.169 252.827C143.473 252.862 143.776 252.918 144.079 252.996C144.383 253.074 144.656 253.187 144.898 253.334C145.15 253.473 145.353 253.668 145.509 253.919C145.665 254.162 145.743 254.482 145.743 254.881C145.743 255.314 145.613 255.7 145.353 256.038C145.093 256.367 144.716 256.627 144.222 256.818C143.737 257.009 143.143 257.104 142.441 257.104ZM147.242 257V249.85C147.242 249.061 147.476 248.433 147.944 247.965C148.412 247.488 149.079 247.25 149.946 247.25C150.24 247.25 150.522 247.28 150.791 247.341C151.068 247.402 151.302 247.497 151.493 247.627L150.96 249.096C150.847 249.018 150.721 248.957 150.583 248.914C150.444 248.871 150.297 248.849 150.141 248.849C149.846 248.849 149.616 248.936 149.452 249.109C149.296 249.274 149.218 249.525 149.218 249.863V250.513L149.27 251.384V257H147.242ZM146.163 251.722V250.162H151.012V251.722H146.163ZM155.404 257.104C154.607 257.104 153.905 256.948 153.298 256.636C152.7 256.324 152.236 255.899 151.907 255.362C151.578 254.816 151.413 254.196 151.413 253.503C151.413 252.801 151.573 252.181 151.894 251.644C152.223 251.098 152.67 250.673 153.233 250.37C153.796 250.058 154.433 249.902 155.144 249.902C155.829 249.902 156.444 250.049 156.99 250.344C157.545 250.63 157.982 251.046 158.303 251.592C158.624 252.129 158.784 252.775 158.784 253.529C158.784 253.607 158.78 253.698 158.771 253.802C158.762 253.897 158.754 253.988 158.745 254.075H153.064V252.892H157.679L156.899 253.243C156.899 252.879 156.825 252.563 156.678 252.294C156.531 252.025 156.327 251.817 156.067 251.67C155.807 251.514 155.504 251.436 155.157 251.436C154.81 251.436 154.503 251.514 154.234 251.67C153.974 251.817 153.77 252.03 153.623 252.307C153.476 252.576 153.402 252.896 153.402 253.269V253.581C153.402 253.962 153.484 254.3 153.649 254.595C153.822 254.881 154.061 255.102 154.364 255.258C154.676 255.405 155.04 255.479 155.456 255.479C155.829 255.479 156.154 255.423 156.431 255.31C156.717 255.197 156.977 255.028 157.211 254.803L158.29 255.973C157.969 256.337 157.566 256.619 157.081 256.818C156.596 257.009 156.037 257.104 155.404 257.104ZM160.134 257V250.006H162.071V251.982L161.798 251.41C162.006 250.916 162.34 250.543 162.799 250.292C163.259 250.032 163.818 249.902 164.476 249.902V251.774C164.39 251.765 164.312 251.761 164.242 251.761C164.173 251.752 164.099 251.748 164.021 251.748C163.467 251.748 163.016 251.908 162.669 252.229C162.331 252.541 162.162 253.031 162.162 253.698V257H160.134Z" fill="#285496"/>
<path d="M119.504 304V292.8H124.112C125.104 292.8 125.952 292.96 126.656 293.28C127.371 293.6 127.92 294.059 128.304 294.656C128.688 295.253 128.88 295.963 128.88 296.784C128.88 297.605 128.688 298.315 128.304 298.912C127.92 299.499 127.371 299.952 126.656 300.272C125.952 300.581 125.104 300.736 124.112 300.736H120.656L121.584 299.792V304H119.504ZM126.832 304L124 299.936H126.224L129.072 304H126.832ZM121.584 300.016L120.656 299.024H124.016C124.933 299.024 125.621 298.827 126.08 298.432C126.549 298.037 126.784 297.488 126.784 296.784C126.784 296.069 126.549 295.52 126.08 295.136C125.621 294.752 124.933 294.56 124.016 294.56H120.656L121.584 293.536V300.016ZM135.751 304.112C135.058 304.112 134.423 303.952 133.847 303.632C133.282 303.312 132.828 302.832 132.487 302.192C132.156 301.541 131.991 300.72 131.991 299.728C131.991 298.725 132.151 297.904 132.471 297.264C132.802 296.624 133.25 296.149 133.815 295.84C134.38 295.52 135.026 295.36 135.751 295.36C136.594 295.36 137.335 295.541 137.975 295.904C138.626 296.267 139.138 296.773 139.511 297.424C139.895 298.075 140.087 298.843 140.087 299.728C140.087 300.613 139.895 301.387 139.511 302.048C139.138 302.699 138.626 303.205 137.975 303.568C137.335 303.931 136.594 304.112 135.751 304.112ZM131.015 307.104V295.456H132.919V297.472L132.855 299.744L133.015 302.016V307.104H131.015ZM135.527 302.4C136.007 302.4 136.434 302.293 136.807 302.08C137.191 301.867 137.495 301.557 137.719 301.152C137.943 300.747 138.055 300.272 138.055 299.728C138.055 299.173 137.943 298.699 137.719 298.304C137.495 297.899 137.191 297.589 136.807 297.376C136.434 297.163 136.007 297.056 135.527 297.056C135.047 297.056 134.615 297.163 134.231 297.376C133.847 297.589 133.543 297.899 133.319 298.304C133.095 298.699 132.983 299.173 132.983 299.728C132.983 300.272 133.095 300.747 133.319 301.152C133.543 301.557 133.847 301.867 134.231 302.08C134.615 302.293 135.047 302.4 135.527 302.4ZM142.483 304.112C142.121 304.112 141.811 303.989 141.555 303.744C141.299 303.488 141.171 303.168 141.171 302.784C141.171 302.379 141.299 302.059 141.555 301.824C141.811 301.579 142.121 301.456 142.483 301.456C142.846 301.456 143.155 301.579 143.411 301.824C143.667 302.059 143.795 302.379 143.795 302.784C143.795 303.168 143.667 303.488 143.411 303.744C143.155 303.989 142.846 304.112 142.483 304.112ZM158.683 304V288.4L160.051 289.816H155.131V287.2H161.803V304H158.683ZM167.008 304.168C166.464 304.168 166 303.984 165.616 303.616C165.232 303.232 165.04 302.752 165.04 302.176C165.04 301.568 165.232 301.088 165.616 300.736C166 300.368 166.464 300.184 167.008 300.184C167.552 300.184 168.016 300.368 168.4 300.736C168.784 301.088 168.976 301.568 168.976 302.176C168.976 302.752 168.784 303.232 168.4 303.616C168.016 303.984 167.552 304.168 167.008 304.168ZM177.722 304.24C176.394 304.24 175.194 303.904 174.122 303.232C173.066 302.56 172.234 301.584 171.626 300.304C171.018 299.008 170.714 297.44 170.714 295.6C170.714 293.76 171.018 292.2 171.626 290.92C172.234 289.624 173.066 288.64 174.122 287.968C175.194 287.296 176.394 286.96 177.722 286.96C179.066 286.96 180.266 287.296 181.322 287.968C182.378 288.64 183.21 289.624 183.818 290.92C184.442 292.2 184.754 293.76 184.754 295.6C184.754 297.44 184.442 299.008 183.818 300.304C183.21 301.584 182.378 302.56 181.322 303.232C180.266 303.904 179.066 304.24 177.722 304.24ZM177.722 301.528C178.506 301.528 179.186 301.32 179.762 300.904C180.338 300.472 180.786 299.816 181.106 298.936C181.442 298.056 181.61 296.944 181.61 295.6C181.61 294.24 181.442 293.128 181.106 292.264C180.786 291.384 180.338 290.736 179.762 290.32C179.186 289.888 178.506 289.672 177.722 289.672C176.97 289.672 176.298 289.888 175.706 290.32C175.13 290.736 174.674 291.384 174.338 292.264C174.018 293.128 173.858 294.24 173.858 295.6C173.858 296.944 174.018 298.056 174.338 298.936C174.674 299.816 175.13 300.472 175.706 300.904C176.298 301.32 176.97 301.528 177.722 301.528ZM193.871 304.24C192.543 304.24 191.343 303.904 190.271 303.232C189.215 302.56 188.383 301.584 187.775 300.304C187.167 299.008 186.863 297.44 186.863 295.6C186.863 293.76 187.167 292.2 187.775 290.92C188.383 289.624 189.215 288.64 190.271 287.968C191.343 287.296 192.543 286.96 193.871 286.96C195.215 286.96 196.415 287.296 197.471 287.968C198.527 288.64 199.359 289.624 199.967 290.92C200.591 292.2 200.903 293.76 200.903 295.6C200.903 297.44 200.591 299.008 199.967 300.304C199.359 301.584 198.527 302.56 197.471 303.232C196.415 303.904 195.215 304.24 193.871 304.24ZM193.871 301.528C194.655 301.528 195.335 301.32 195.911 300.904C196.487 300.472 196.935 299.816 197.255 298.936C197.591 298.056 197.759 296.944 197.759 295.6C197.759 294.24 197.591 293.128 197.255 292.264C196.935 291.384 196.487 290.736 195.911 290.32C195.335 289.888 194.655 289.672 193.871 289.672C193.119 289.672 192.447 289.888 191.855 290.32C191.279 290.736 190.823 291.384 190.487 292.264C190.167 293.128 190.007 294.24 190.007 295.6C190.007 296.944 190.167 298.056 190.487 298.936C190.823 299.816 191.279 300.472 191.855 300.904C192.447 301.32 193.119 301.528 193.871 301.528ZM210.019 304.24C208.691 304.24 207.491 303.904 206.419 303.232C205.363 302.56 204.531 301.584 203.923 300.304C203.315 299.008 203.011 297.44 203.011 295.6C203.011 293.76 203.315 292.2 203.923 290.92C204.531 289.624 205.363 288.64 206.419 287.968C207.491 287.296 208.691 286.96 210.019 286.96C211.363 286.96 212.563 287.296 213.619 287.968C214.675 288.64 215.507 289.624 216.115 290.92C216.739 292.2 217.051 293.76 217.051 295.6C217.051 297.44 216.739 299.008 216.115 300.304C215.507 301.584 214.675 302.56 213.619 303.232C212.563 303.904 211.363 304.24 210.019 304.24ZM210.019 301.528C210.803 301.528 211.483 301.32 212.059 300.904C212.635 300.472 213.083 299.816 213.403 298.936C213.739 298.056 213.907 296.944 213.907 295.6C213.907 294.24 213.739 293.128 213.403 292.264C213.083 291.384 212.635 290.736 212.059 290.32C211.483 289.888 210.803 289.672 210.019 289.672C209.267 289.672 208.595 289.888 208.003 290.32C207.427 290.736 206.971 291.384 206.635 292.264C206.315 293.128 206.155 294.24 206.155 295.6C206.155 296.944 206.315 298.056 206.635 298.936C206.971 299.816 207.427 300.472 208.003 300.904C208.595 301.32 209.267 301.528 210.019 301.528ZM220.75 304.168C220.206 304.168 219.742 303.984 219.358 303.616C218.974 303.232 218.782 302.752 218.782 302.176C218.782 301.568 218.974 301.088 219.358 300.736C219.742 300.368 220.206 300.184 220.75 300.184C221.294 300.184 221.758 300.368 222.142 300.736C222.526 301.088 222.718 301.568 222.718 302.176C222.718 302.752 222.526 303.232 222.142 303.616C221.758 303.984 221.294 304.168 220.75 304.168ZM231.464 304.24C230.136 304.24 228.936 303.904 227.864 303.232C226.808 302.56 225.976 301.584 225.368 300.304C224.76 299.008 224.456 297.44 224.456 295.6C224.456 293.76 224.76 292.2 225.368 290.92C225.976 289.624 226.808 288.64 227.864 287.968C228.936 287.296 230.136 286.96 231.464 286.96C232.808 286.96 234.008 287.296 235.064 287.968C236.12 288.64 236.952 289.624 237.56 290.92C238.184 292.2 238.496 293.76 238.496 295.6C238.496 297.44 238.184 299.008 237.56 300.304C236.952 301.584 236.12 302.56 235.064 303.232C234.008 303.904 232.808 304.24 231.464 304.24ZM231.464 301.528C232.248 301.528 232.928 301.32 233.504 300.904C234.08 300.472 234.528 299.816 234.848 298.936C235.184 298.056 235.352 296.944 235.352 295.6C235.352 294.24 235.184 293.128 234.848 292.264C234.528 291.384 234.08 290.736 233.504 290.32C232.928 289.888 232.248 289.672 231.464 289.672C230.712 289.672 230.04 289.888 229.448 290.32C228.872 290.736 228.416 291.384 228.08 292.264C227.76 293.128 227.6 294.24 227.6 295.6C227.6 296.944 227.76 298.056 228.08 298.936C228.416 299.816 228.872 300.472 229.448 300.904C230.04 301.32 230.712 301.528 231.464 301.528ZM247.613 304.24C246.285 304.24 245.085 303.904 244.013 303.232C242.957 302.56 242.125 301.584 241.517 300.304C240.909 299.008 240.605 297.44 240.605 295.6C240.605 293.76 240.909 292.2 241.517 290.92C242.125 289.624 242.957 288.64 244.013 287.968C245.085 287.296 246.285 286.96 247.613 286.96C248.957 286.96 250.157 287.296 251.213 287.968C252.269 288.64 253.101 289.624 253.709 290.92C254.333 292.2 254.645 293.76 254.645 295.6C254.645 297.44 254.333 299.008 253.709 300.304C253.101 301.584 252.269 302.56 251.213 303.232C250.157 303.904 248.957 304.24 247.613 304.24ZM247.613 301.528C248.397 301.528 249.077 301.32 249.653 300.904C250.229 300.472 250.677 299.816 250.997 298.936C251.333 298.056 251.501 296.944 251.501 295.6C251.501 294.24 251.333 293.128 250.997 292.264C250.677 291.384 250.229 290.736 249.653 290.32C249.077 289.888 248.397 289.672 247.613 289.672C246.861 289.672 246.189 289.888 245.597 290.32C245.021 290.736 244.565 291.384 244.229 292.264C243.909 293.128 243.749 294.24 243.749 295.6C243.749 296.944 243.909 298.056 244.229 298.936C244.565 299.816 245.021 300.472 245.597 300.904C246.189 301.32 246.861 301.528 247.613 301.528ZM263.761 304.24C262.433 304.24 261.233 303.904 260.161 303.232C259.105 302.56 258.273 301.584 257.665 300.304C257.057 299.008 256.753 297.44 256.753 295.6C256.753 293.76 257.057 292.2 257.665 290.92C258.273 289.624 259.105 288.64 260.161 287.968C261.233 287.296 262.433 286.96 263.761 286.96C265.105 286.96 266.305 287.296 267.361 287.968C268.417 288.64 269.249 289.624 269.857 290.92C270.481 292.2 270.793 293.76 270.793 295.6C270.793 297.44 270.481 299.008 269.857 300.304C269.249 301.584 268.417 302.56 267.361 303.232C266.305 303.904 265.105 304.24 263.761 304.24ZM263.761 301.528C264.545 301.528 265.225 301.32 265.801 300.904C266.377 300.472 266.825 299.816 267.145 298.936C267.481 298.056 267.649 296.944 267.649 295.6C267.649 294.24 267.481 293.128 267.145 292.264C266.825 291.384 266.377 290.736 265.801 290.32C265.225 289.888 264.545 289.672 263.761 289.672C263.009 289.672 262.337 289.888 261.745 290.32C261.169 290.736 260.713 291.384 260.377 292.264C260.057 293.128 259.897 294.24 259.897 295.6C259.897 296.944 260.057 298.056 260.377 298.936C260.713 299.816 261.169 300.472 261.745 300.904C262.337 301.32 263.009 301.528 263.761 301.528Z" fill="#1D469D"/>
<path d="M119.14 324V317H119.75L122.95 322.46H122.63L125.8 317H126.41V324H125.7V318.11H125.87L122.95 323.11H122.6L119.66 318.11H119.85V324H119.14ZM128.541 324V318.75H129.251V324H128.541ZM128.901 317.59C128.754 317.59 128.631 317.54 128.531 317.44C128.431 317.34 128.381 317.22 128.381 317.08C128.381 316.94 128.431 316.823 128.531 316.73C128.631 316.63 128.754 316.58 128.901 316.58C129.047 316.58 129.171 316.627 129.271 316.72C129.371 316.813 129.421 316.93 129.421 317.07C129.421 317.217 129.371 317.34 129.271 317.44C129.177 317.54 129.054 317.59 128.901 317.59ZM133.906 318.7C134.333 318.7 134.706 318.783 135.026 318.95C135.353 319.11 135.606 319.357 135.786 319.69C135.973 320.023 136.066 320.443 136.066 320.95V324H135.356V321.02C135.356 320.467 135.216 320.05 134.936 319.77C134.663 319.483 134.276 319.34 133.776 319.34C133.403 319.34 133.076 319.417 132.796 319.57C132.523 319.717 132.31 319.933 132.156 320.22C132.01 320.5 131.936 320.84 131.936 321.24V324H131.226V318.75H131.906V320.19L131.796 319.92C131.963 319.54 132.23 319.243 132.596 319.03C132.963 318.81 133.4 318.7 133.906 318.7ZM137.984 324V318.75H138.694V324H137.984ZM138.344 317.59C138.197 317.59 138.074 317.54 137.974 317.44C137.874 317.34 137.824 317.22 137.824 317.08C137.824 316.94 137.874 316.823 137.974 316.73C138.074 316.63 138.197 316.58 138.344 316.58C138.491 316.58 138.614 316.627 138.714 316.72C138.814 316.813 138.864 316.93 138.864 317.07C138.864 317.217 138.814 317.34 138.714 317.44C138.621 317.54 138.497 317.59 138.344 317.59ZM147.23 318.7C147.656 318.7 148.026 318.783 148.34 318.95C148.66 319.11 148.906 319.357 149.08 319.69C149.26 320.023 149.35 320.443 149.35 320.95V324H148.64V321.02C148.64 320.467 148.506 320.05 148.24 319.77C147.98 319.483 147.61 319.34 147.13 319.34C146.77 319.34 146.456 319.417 146.19 319.57C145.93 319.717 145.726 319.933 145.58 320.22C145.44 320.5 145.37 320.84 145.37 321.24V324H144.66V321.02C144.66 320.467 144.526 320.05 144.26 319.77C143.993 319.483 143.62 319.34 143.14 319.34C142.786 319.34 142.476 319.417 142.21 319.57C141.943 319.717 141.736 319.933 141.59 320.22C141.45 320.5 141.38 320.84 141.38 321.24V324H140.67V318.75H141.35V320.17L141.24 319.92C141.4 319.54 141.656 319.243 142.01 319.03C142.37 318.81 142.793 318.7 143.28 318.7C143.793 318.7 144.23 318.83 144.59 319.09C144.95 319.343 145.183 319.727 145.29 320.24L145.01 320.13C145.163 319.703 145.433 319.36 145.82 319.1C146.213 318.833 146.683 318.7 147.23 318.7ZM154.565 324V322.84L154.535 322.65V320.71C154.535 320.263 154.408 319.92 154.155 319.68C153.908 319.44 153.538 319.32 153.045 319.32C152.705 319.32 152.382 319.377 152.075 319.49C151.768 319.603 151.508 319.753 151.295 319.94L150.975 319.41C151.242 319.183 151.562 319.01 151.935 318.89C152.308 318.763 152.702 318.7 153.115 318.7C153.795 318.7 154.318 318.87 154.685 319.21C155.058 319.543 155.245 320.053 155.245 320.74V324H154.565ZM152.755 324.05C152.362 324.05 152.018 323.987 151.725 323.86C151.438 323.727 151.218 323.547 151.065 323.32C150.912 323.087 150.835 322.82 150.835 322.52C150.835 322.247 150.898 322 151.025 321.78C151.158 321.553 151.372 321.373 151.665 321.24C151.965 321.1 152.365 321.03 152.865 321.03H154.675V321.56H152.885C152.378 321.56 152.025 321.65 151.825 321.83C151.632 322.01 151.535 322.233 151.535 322.5C151.535 322.8 151.652 323.04 151.885 323.22C152.118 323.4 152.445 323.49 152.865 323.49C153.265 323.49 153.608 323.4 153.895 323.22C154.188 323.033 154.402 322.767 154.535 322.42L154.695 322.91C154.562 323.257 154.328 323.533 153.995 323.74C153.668 323.947 153.255 324.05 152.755 324.05ZM157.174 324V316.58H157.884V324H157.174ZM163.986 324V317.64H161.526V317H167.186V317.64H164.726V324H163.986ZM168.082 324V318.75H168.762V320.18L168.692 319.93C168.838 319.53 169.085 319.227 169.432 319.02C169.778 318.807 170.208 318.7 170.722 318.7V319.39C170.695 319.39 170.668 319.39 170.642 319.39C170.615 319.383 170.588 319.38 170.562 319.38C170.008 319.38 169.575 319.55 169.262 319.89C168.948 320.223 168.792 320.7 168.792 321.32V324H168.082ZM174.917 324V322.84L174.887 322.65V320.71C174.887 320.263 174.76 319.92 174.507 319.68C174.26 319.44 173.89 319.32 173.397 319.32C173.057 319.32 172.733 319.377 172.427 319.49C172.12 319.603 171.86 319.753 171.647 319.94L171.327 319.41C171.593 319.183 171.913 319.01 172.287 318.89C172.66 318.763 173.053 318.7 173.467 318.7C174.147 318.7 174.67 318.87 175.037 319.21C175.41 319.543 175.597 320.053 175.597 320.74V324H174.917ZM173.107 324.05C172.713 324.05 172.37 323.987 172.077 323.86C171.79 323.727 171.57 323.547 171.417 323.32C171.263 323.087 171.187 322.82 171.187 322.52C171.187 322.247 171.25 322 171.377 321.78C171.51 321.553 171.723 321.373 172.017 321.24C172.317 321.1 172.717 321.03 173.217 321.03H175.027V321.56H173.237C172.73 321.56 172.377 321.65 172.177 321.83C171.983 322.01 171.887 322.233 171.887 322.5C171.887 322.8 172.003 323.04 172.237 323.22C172.47 323.4 172.797 323.49 173.217 323.49C173.617 323.49 173.96 323.4 174.247 323.22C174.54 323.033 174.753 322.767 174.887 322.42L175.047 322.91C174.913 323.257 174.68 323.533 174.347 323.74C174.02 323.947 173.607 324.05 173.107 324.05ZM180.205 318.7C180.632 318.7 181.005 318.783 181.325 318.95C181.652 319.11 181.905 319.357 182.085 319.69C182.272 320.023 182.365 320.443 182.365 320.95V324H181.655V321.02C181.655 320.467 181.515 320.05 181.235 319.77C180.962 319.483 180.575 319.34 180.075 319.34C179.702 319.34 179.375 319.417 179.095 319.57C178.822 319.717 178.608 319.933 178.455 320.22C178.308 320.5 178.235 320.84 178.235 321.24V324H177.525V318.75H178.205V320.19L178.095 319.92C178.262 319.54 178.528 319.243 178.895 319.03C179.262 318.81 179.698 318.7 180.205 318.7ZM185.693 324.05C185.26 324.05 184.85 323.99 184.463 323.87C184.076 323.743 183.773 323.587 183.553 323.4L183.873 322.84C184.086 323 184.36 323.14 184.693 323.26C185.026 323.373 185.376 323.43 185.743 323.43C186.243 323.43 186.603 323.353 186.823 323.2C187.043 323.04 187.153 322.83 187.153 322.57C187.153 322.377 187.09 322.227 186.963 322.12C186.843 322.007 186.683 321.923 186.483 321.87C186.283 321.81 186.06 321.76 185.813 321.72C185.566 321.68 185.32 321.633 185.073 321.58C184.833 321.527 184.613 321.45 184.413 321.35C184.213 321.243 184.05 321.1 183.923 320.92C183.803 320.74 183.743 320.5 183.743 320.2C183.743 319.913 183.823 319.657 183.983 319.43C184.143 319.203 184.376 319.027 184.683 318.9C184.996 318.767 185.376 318.7 185.823 318.7C186.163 318.7 186.503 318.747 186.843 318.84C187.183 318.927 187.463 319.043 187.683 319.19L187.373 319.76C187.14 319.6 186.89 319.487 186.623 319.42C186.356 319.347 186.09 319.31 185.823 319.31C185.35 319.31 185 319.393 184.773 319.56C184.553 319.72 184.443 319.927 184.443 320.18C184.443 320.38 184.503 320.537 184.623 320.65C184.75 320.763 184.913 320.853 185.113 320.92C185.32 320.98 185.543 321.03 185.783 321.07C186.03 321.11 186.273 321.16 186.513 321.22C186.76 321.273 186.983 321.35 187.183 321.45C187.39 321.543 187.553 321.68 187.673 321.86C187.8 322.033 187.863 322.263 187.863 322.55C187.863 322.857 187.776 323.123 187.603 323.35C187.436 323.57 187.19 323.743 186.863 323.87C186.543 323.99 186.153 324.05 185.693 324.05ZM189.286 324V318.09C189.286 317.623 189.422 317.247 189.696 316.96C189.969 316.673 190.362 316.53 190.876 316.53C191.076 316.53 191.269 316.557 191.456 316.61C191.642 316.663 191.799 316.747 191.926 316.86L191.686 317.39C191.586 317.303 191.469 317.24 191.336 317.2C191.202 317.153 191.059 317.13 190.906 317.13C190.606 317.13 190.376 317.213 190.216 317.38C190.056 317.547 189.976 317.793 189.976 318.12V318.92L189.996 319.25V324H189.286ZM188.346 319.34V318.75H191.596V319.34H188.346ZM194.697 324.05C194.15 324.05 193.67 323.937 193.257 323.71C192.843 323.477 192.52 323.16 192.287 322.76C192.053 322.353 191.937 321.89 191.937 321.37C191.937 320.85 192.047 320.39 192.267 319.99C192.493 319.59 192.8 319.277 193.187 319.05C193.58 318.817 194.02 318.7 194.507 318.7C195 318.7 195.437 318.813 195.817 319.04C196.203 319.26 196.507 319.573 196.727 319.98C196.947 320.38 197.057 320.843 197.057 321.37C197.057 321.403 197.053 321.44 197.047 321.48C197.047 321.513 197.047 321.55 197.047 321.59H192.477V321.06H196.667L196.387 321.27C196.387 320.89 196.303 320.553 196.137 320.26C195.977 319.96 195.757 319.727 195.477 319.56C195.197 319.393 194.873 319.31 194.507 319.31C194.147 319.31 193.823 319.393 193.537 319.56C193.25 319.727 193.027 319.96 192.867 320.26C192.707 320.56 192.627 320.903 192.627 321.29V321.4C192.627 321.8 192.713 322.153 192.887 322.46C193.067 322.76 193.313 322.997 193.627 323.17C193.947 323.337 194.31 323.42 194.717 323.42C195.037 323.42 195.333 323.363 195.607 323.25C195.887 323.137 196.127 322.963 196.327 322.73L196.727 323.19C196.493 323.47 196.2 323.683 195.847 323.83C195.5 323.977 195.117 324.05 194.697 324.05ZM198.502 324V318.75H199.182V320.18L199.112 319.93C199.258 319.53 199.505 319.227 199.852 319.02C200.198 318.807 200.628 318.7 201.142 318.7V319.39C201.115 319.39 201.088 319.39 201.062 319.39C201.035 319.383 201.008 319.38 200.982 319.38C200.428 319.38 199.995 319.55 199.682 319.89C199.368 320.223 199.212 320.7 199.212 321.32V324H198.502ZM205.283 324V317H207.903C208.496 317 209.006 317.097 209.433 317.29C209.859 317.477 210.186 317.75 210.413 318.11C210.646 318.463 210.763 318.893 210.763 319.4C210.763 319.893 210.646 320.32 210.413 320.68C210.186 321.033 209.859 321.307 209.433 321.5C209.006 321.687 208.496 321.78 207.903 321.78H205.693L206.023 321.44V324H205.283ZM210.063 324L208.263 321.46H209.063L210.873 324H210.063ZM206.023 321.5L205.693 321.15H207.883C208.583 321.15 209.113 320.997 209.473 320.69C209.839 320.383 210.023 319.953 210.023 319.4C210.023 318.84 209.839 318.407 209.473 318.1C209.113 317.793 208.583 317.64 207.883 317.64H205.693L206.023 317.29V321.5ZM215.069 324.05C214.616 324.05 214.206 323.947 213.839 323.74C213.472 323.527 213.179 323.223 212.959 322.83C212.746 322.43 212.639 321.943 212.639 321.37C212.639 320.797 212.746 320.313 212.959 319.92C213.172 319.52 213.462 319.217 213.829 319.01C214.196 318.803 214.609 318.7 215.069 318.7C215.569 318.7 216.016 318.813 216.409 319.04C216.809 319.26 217.122 319.573 217.349 319.98C217.576 320.38 217.689 320.843 217.689 321.37C217.689 321.903 217.576 322.37 217.349 322.77C217.122 323.17 216.809 323.483 216.409 323.71C216.016 323.937 215.569 324.05 215.069 324.05ZM212.359 325.94V318.75H213.039V320.33L212.969 321.38L213.069 322.44V325.94H212.359ZM215.019 323.42C215.392 323.42 215.726 323.337 216.019 323.17C216.312 322.997 216.546 322.757 216.719 322.45C216.892 322.137 216.979 321.777 216.979 321.37C216.979 320.963 216.892 320.607 216.719 320.3C216.546 319.993 216.312 319.753 216.019 319.58C215.726 319.407 215.392 319.32 215.019 319.32C214.646 319.32 214.309 319.407 214.009 319.58C213.716 319.753 213.482 319.993 213.309 320.3C213.142 320.607 213.059 320.963 213.059 321.37C213.059 321.777 213.142 322.137 213.309 322.45C213.482 322.757 213.716 322.997 214.009 323.17C214.309 323.337 214.646 323.42 215.019 323.42ZM219.06 324.05C218.913 324.05 218.787 323.997 218.68 323.89C218.58 323.783 218.53 323.653 218.53 323.5C218.53 323.34 218.58 323.21 218.68 323.11C218.787 323.01 218.913 322.96 219.06 322.96C219.207 322.96 219.33 323.01 219.43 323.11C219.537 323.21 219.59 323.34 219.59 323.5C219.59 323.653 219.537 323.783 219.43 323.89C219.33 323.997 219.207 324.05 219.06 324.05ZM221.742 324V317.3L222.062 317.64H220.092V317H222.462V324H221.742Z" fill="#1D469D"/>
<path fill-rule="evenodd" clip-rule="evenodd" d="M65.9608 293.836C65.375 294.422 65.375 295.364 65.375 297.25V309.75C65.375 311.636 65.375 312.578 65.9608 313.164C66.5466 313.75 67.4894 313.75 69.375 313.75H93.625C95.5106 313.75 96.4534 313.75 97.0392 313.164C97.625 312.578 97.625 311.636 97.625 309.75V297.25C97.625 295.364 97.625 294.422 97.0392 293.836C96.4534 293.25 95.5106 293.25 93.625 293.25H69.375C67.4894 293.25 66.5466 293.25 65.9608 293.836ZM81.5 308.625C84.4685 308.625 86.875 306.33 86.875 303.5C86.875 300.67 84.4685 298.375 81.5 298.375C78.5315 298.375 76.125 300.67 76.125 303.5C76.125 306.33 78.5315 308.625 81.5 308.625Z" fill="#7E869E" fill-opacity="0.25"/>
<rect x="65.375" y="293.25" width="32.25" height="20.5" rx="2" stroke="#0E1764" stroke-width="1.2"/>
<path d="M70.75 298.375H74.3333" stroke="#0E1764" stroke-width="1.2" stroke-linecap="round"/>
<path d="M88.6667 308.625H92.25" stroke="#0E1764" stroke-width="1.2" stroke-linecap="round"/>
<path d="M86.275 303.5C86.275 305.972 84.1644 308.025 81.5 308.025C78.8356 308.025 76.725 305.972 76.725 303.5C76.725 301.028 78.8356 298.975 81.5 298.975C84.1644 298.975 86.275 301.028 86.275 303.5Z" stroke="#0E1764" stroke-width="1.2"/>
<rect x="48.5" y="380.5" width="323" height="85" rx="9.5" fill="white" stroke="#8E8D8D"/>
<path d="M53.434 364.156C52.732 364.156 52.0777 364.043 51.471 363.818C50.873 363.584 50.353 363.255 49.911 362.83C49.469 362.405 49.1223 361.907 48.871 361.335C48.6283 360.763 48.507 360.135 48.507 359.45C48.507 358.765 48.6283 358.137 48.871 357.565C49.1223 356.993 49.469 356.495 49.911 356.07C50.3617 355.645 50.886 355.32 51.484 355.095C52.082 354.861 52.7363 354.744 53.447 354.744C54.2357 354.744 54.9463 354.883 55.579 355.16C56.2203 355.429 56.7577 355.827 57.191 356.356L55.839 357.604C55.527 357.249 55.1803 356.984 54.799 356.811C54.4177 356.629 54.0017 356.538 53.551 356.538C53.1263 356.538 52.7363 356.607 52.381 356.746C52.0257 356.885 51.718 357.084 51.458 357.344C51.198 357.604 50.9943 357.912 50.847 358.267C50.7083 358.622 50.639 359.017 50.639 359.45C50.639 359.883 50.7083 360.278 50.847 360.633C50.9943 360.988 51.198 361.296 51.458 361.556C51.718 361.816 52.0257 362.015 52.381 362.154C52.7363 362.293 53.1263 362.362 53.551 362.362C54.0017 362.362 54.4177 362.275 54.799 362.102C55.1803 361.92 55.527 361.647 55.839 361.283L57.191 362.531C56.7577 363.06 56.2203 363.463 55.579 363.74C54.9463 364.017 54.2313 364.156 53.434 364.156ZM62.7221 364V362.635L62.5921 362.336V359.892C62.5921 359.459 62.4578 359.121 62.1891 358.878C61.9291 358.635 61.5261 358.514 60.9801 358.514C60.6074 358.514 60.2391 358.575 59.8751 358.696C59.5198 358.809 59.2164 358.965 58.9651 359.164L58.2371 357.747C58.6184 357.478 59.0778 357.27 59.6151 357.123C60.1524 356.976 60.6984 356.902 61.2531 356.902C62.3191 356.902 63.1468 357.153 63.7361 357.656C64.3254 358.159 64.6201 358.943 64.6201 360.009V364H62.7221ZM60.5901 364.104C60.0441 364.104 59.5761 364.013 59.1861 363.831C58.7961 363.64 58.4971 363.385 58.2891 363.064C58.0811 362.743 57.9771 362.384 57.9771 361.985C57.9771 361.569 58.0768 361.205 58.2761 360.893C58.4841 360.581 58.8091 360.338 59.2511 360.165C59.6931 359.983 60.2694 359.892 60.9801 359.892H62.8391V361.075H61.2011C60.7244 361.075 60.3951 361.153 60.2131 361.309C60.0398 361.465 59.9531 361.66 59.9531 361.894C59.9531 362.154 60.0528 362.362 60.2521 362.518C60.4601 362.665 60.7418 362.739 61.0971 362.739C61.4351 362.739 61.7384 362.661 62.0071 362.505C62.2758 362.34 62.4708 362.102 62.5921 361.79L62.9041 362.726C62.7568 363.177 62.4881 363.519 62.0981 363.753C61.7081 363.987 61.2054 364.104 60.5901 364.104ZM69.3155 364.104C68.4922 364.104 67.8509 363.896 67.3915 363.48C66.9322 363.055 66.7025 362.427 66.7025 361.595V355.459H68.7305V361.569C68.7305 361.864 68.8085 362.093 68.9645 362.258C69.1205 362.414 69.3329 362.492 69.6015 362.492C69.9222 362.492 70.1952 362.405 70.4205 362.232L70.9665 363.662C70.7585 363.809 70.5072 363.922 70.2125 364C69.9265 364.069 69.6275 364.104 69.3155 364.104ZM65.6235 358.722V357.162H70.4725V358.722H65.6235ZM76.3949 364V362.635L76.2649 362.336V359.892C76.2649 359.459 76.1306 359.121 75.8619 358.878C75.6019 358.635 75.1989 358.514 74.6529 358.514C74.2803 358.514 73.9119 358.575 73.5479 358.696C73.1926 358.809 72.8893 358.965 72.6379 359.164L71.9099 357.747C72.2913 357.478 72.7506 357.27 73.2879 357.123C73.8253 356.976 74.3713 356.902 74.9259 356.902C75.9919 356.902 76.8196 357.153 77.4089 357.656C77.9983 358.159 78.2929 358.943 78.2929 360.009V364H76.3949ZM74.2629 364.104C73.7169 364.104 73.2489 364.013 72.8589 363.831C72.4689 363.64 72.1699 363.385 71.9619 363.064C71.7539 362.743 71.6499 362.384 71.6499 361.985C71.6499 361.569 71.7496 361.205 71.9489 360.893C72.1569 360.581 72.4819 360.338 72.9239 360.165C73.3659 359.983 73.9423 359.892 74.6529 359.892H76.5119V361.075H74.8739C74.3973 361.075 74.0679 361.153 73.8859 361.309C73.7126 361.465 73.6259 361.66 73.6259 361.894C73.6259 362.154 73.7256 362.362 73.9249 362.518C74.1329 362.665 74.4146 362.739 74.7699 362.739C75.1079 362.739 75.4113 362.661 75.6799 362.505C75.9486 362.34 76.1436 362.102 76.2649 361.79L76.5769 362.726C76.4296 363.177 76.1609 363.519 75.7709 363.753C75.3809 363.987 74.8783 364.104 74.2629 364.104ZM82.9884 364.104C82.165 364.104 81.5237 363.896 81.0644 363.48C80.605 363.055 80.3754 362.427 80.3754 361.595V355.459H82.4034V361.569C82.4034 361.864 82.4814 362.093 82.6374 362.258C82.7934 362.414 83.0057 362.492 83.2744 362.492C83.595 362.492 83.868 362.405 84.0934 362.232L84.6394 363.662C84.4314 363.809 84.18 363.922 83.8854 364C83.5994 364.069 83.3004 364.104 82.9884 364.104ZM79.2964 358.722V357.162H84.1454V358.722H79.2964ZM90.0678 364V362.635L89.9378 362.336V359.892C89.9378 359.459 89.8035 359.121 89.5348 358.878C89.2748 358.635 88.8718 358.514 88.3258 358.514C87.9531 358.514 87.5848 358.575 87.2208 358.696C86.8655 358.809 86.5621 358.965 86.3108 359.164L85.5828 357.747C85.9641 357.478 86.4235 357.27 86.9608 357.123C87.4981 356.976 88.0441 356.902 88.5988 356.902C89.6648 356.902 90.4925 357.153 91.0818 357.656C91.6711 358.159 91.9658 358.943 91.9658 360.009V364H90.0678ZM87.9358 364.104C87.3898 364.104 86.9218 364.013 86.5318 363.831C86.1418 363.64 85.8428 363.385 85.6348 363.064C85.4268 362.743 85.3228 362.384 85.3228 361.985C85.3228 361.569 85.4225 361.205 85.6218 360.893C85.8298 360.581 86.1548 360.338 86.5968 360.165C87.0388 359.983 87.6151 359.892 88.3258 359.892H90.1848V361.075H88.5468C88.0701 361.075 87.7408 361.153 87.5588 361.309C87.3855 361.465 87.2988 361.66 87.2988 361.894C87.2988 362.154 87.3985 362.362 87.5978 362.518C87.8058 362.665 88.0875 362.739 88.4428 362.739C88.7808 362.739 89.0841 362.661 89.3528 362.505C89.6215 362.34 89.8165 362.102 89.9378 361.79L90.2498 362.726C90.1025 363.177 89.8338 363.519 89.4438 363.753C89.0538 363.987 88.5511 364.104 87.9358 364.104ZM98.0522 356.902C98.6069 356.902 99.1009 357.015 99.5342 357.24C99.9762 357.457 100.323 357.795 100.574 358.254C100.826 358.705 100.951 359.285 100.951 359.996V364H98.9232V360.308C98.9232 359.745 98.7976 359.329 98.5462 359.06C98.3036 358.791 97.9569 358.657 97.5062 358.657C97.1856 358.657 96.8952 358.726 96.6352 358.865C96.3839 358.995 96.1846 359.199 96.0372 359.476C95.8986 359.753 95.8292 360.109 95.8292 360.542V364H93.8012V357.006H95.7382V358.943L95.3742 358.358C95.6256 357.89 95.9852 357.53 96.4532 357.279C96.9212 357.028 97.4542 356.902 98.0522 356.902Z" fill="#285496"/>
<path d="M62.254 401V393.3H65.576C66.434 393.3 67.0977 393.472 67.567 393.817C68.0437 394.162 68.282 394.649 68.282 395.28C68.282 395.698 68.183 396.05 67.985 396.336C67.7943 396.622 67.5303 396.838 67.193 396.985C66.863 397.132 66.5 397.205 66.104 397.205L66.291 396.941C66.7823 396.941 67.204 397.018 67.556 397.172C67.9153 397.319 68.194 397.542 68.392 397.843C68.59 398.136 68.689 398.503 68.689 398.943C68.689 399.596 68.447 400.102 67.963 400.461C67.4863 400.82 66.764 401 65.796 401H62.254ZM63.068 400.329H65.785C66.4597 400.329 66.9767 400.215 67.336 399.988C67.6953 399.753 67.875 399.383 67.875 398.877C67.875 398.378 67.6953 398.015 67.336 397.788C66.9767 397.553 66.4597 397.436 65.785 397.436H62.98V396.765H65.521C66.137 396.765 66.6137 396.648 66.951 396.413C67.2957 396.178 67.468 395.83 67.468 395.368C67.468 394.899 67.2957 394.55 66.951 394.323C66.6137 394.088 66.137 393.971 65.521 393.971H63.068V400.329ZM74.001 401V399.724L73.968 399.515V397.381C73.968 396.89 73.8286 396.512 73.55 396.248C73.2786 395.984 72.8716 395.852 72.329 395.852C71.955 395.852 71.5993 395.914 71.262 396.039C70.9246 396.164 70.6386 396.329 70.404 396.534L70.052 395.951C70.3453 395.702 70.6973 395.511 71.108 395.379C71.5186 395.24 71.9513 395.17 72.406 395.17C73.154 395.17 73.7296 395.357 74.133 395.731C74.5436 396.098 74.749 396.659 74.749 397.414V401H74.001ZM72.01 401.055C71.5773 401.055 71.1996 400.985 70.877 400.846C70.5616 400.699 70.3196 400.501 70.151 400.252C69.9823 399.995 69.898 399.702 69.898 399.372C69.898 399.071 69.9676 398.8 70.107 398.558C70.2536 398.309 70.4883 398.111 70.811 397.964C71.141 397.81 71.581 397.733 72.131 397.733H74.122V398.316H72.153C71.5956 398.316 71.207 398.415 70.987 398.613C70.7743 398.811 70.668 399.057 70.668 399.35C70.668 399.68 70.7963 399.944 71.053 400.142C71.3096 400.34 71.669 400.439 72.131 400.439C72.571 400.439 72.9486 400.34 73.264 400.142C73.5866 399.937 73.8213 399.643 73.968 399.262L74.144 399.801C73.9973 400.182 73.7406 400.487 73.374 400.714C73.0146 400.941 72.56 401.055 72.01 401.055ZM76.8068 403.189C76.5355 403.189 76.2752 403.145 76.0258 403.057C75.7838 402.969 75.5748 402.837 75.3988 402.661L75.7618 402.078C75.9085 402.217 76.0662 402.324 76.2348 402.397C76.4108 402.478 76.6052 402.518 76.8178 402.518C77.0745 402.518 77.2945 402.445 77.4778 402.298C77.6685 402.159 77.8482 401.909 78.0168 401.55L78.3908 400.703L78.4788 400.582L80.8548 395.225H81.6248L78.7318 401.693C78.5705 402.067 78.3908 402.364 78.1928 402.584C78.0022 402.804 77.7932 402.958 77.5658 403.046C77.3385 403.141 77.0855 403.189 76.8068 403.189ZM78.3468 401.165L75.6848 395.225H76.4988L78.8528 400.527L78.3468 401.165ZM86.1719 401V399.724L86.1389 399.515V397.381C86.1389 396.89 85.9995 396.512 85.7209 396.248C85.4495 395.984 85.0425 395.852 84.4999 395.852C84.1259 395.852 83.7702 395.914 83.4329 396.039C83.0955 396.164 82.8095 396.329 82.5749 396.534L82.2229 395.951C82.5162 395.702 82.8682 395.511 83.2789 395.379C83.6895 395.24 84.1222 395.17 84.5769 395.17C85.3249 395.17 85.9005 395.357 86.3039 395.731C86.7145 396.098 86.9199 396.659 86.9199 397.414V401H86.1719ZM84.1809 401.055C83.7482 401.055 83.3705 400.985 83.0479 400.846C82.7325 400.699 82.4905 400.501 82.3219 400.252C82.1532 399.995 82.0689 399.702 82.0689 399.372C82.0689 399.071 82.1385 398.8 82.2779 398.558C82.4245 398.309 82.6592 398.111 82.9819 397.964C83.3119 397.81 83.7519 397.733 84.3019 397.733H86.2929V398.316H84.3239C83.7665 398.316 83.3779 398.415 83.1579 398.613C82.9452 398.811 82.8389 399.057 82.8389 399.35C82.8389 399.68 82.9672 399.944 83.2239 400.142C83.4805 400.34 83.8399 400.439 84.3019 400.439C84.7419 400.439 85.1195 400.34 85.4349 400.142C85.7575 399.937 85.9922 399.643 86.1389 399.262L86.3149 399.801C86.1682 400.182 85.9115 400.487 85.5449 400.714C85.1855 400.941 84.7309 401.055 84.1809 401.055ZM89.0411 401V395.225H89.7891V396.798L89.7121 396.523C89.8735 396.083 90.1448 395.749 90.5261 395.522C90.9075 395.287 91.3805 395.17 91.9451 395.17V395.929C91.9158 395.929 91.8865 395.929 91.8571 395.929C91.8278 395.922 91.7985 395.918 91.7691 395.918C91.1605 395.918 90.6838 396.105 90.3391 396.479C89.9945 396.846 89.8221 397.37 89.8221 398.052V401H89.0411ZM98.7221 401.055C98.2308 401.055 97.8018 400.963 97.4351 400.78C97.0684 400.597 96.7824 400.322 96.5771 399.955C96.3791 399.588 96.2801 399.13 96.2801 398.58V395.225H97.0611V398.492C97.0611 399.108 97.2114 399.574 97.5121 399.889C97.8201 400.197 98.2491 400.351 98.7991 400.351C99.2024 400.351 99.5508 400.27 99.8441 400.109C100.145 399.94 100.372 399.698 100.526 399.383C100.687 399.068 100.768 398.69 100.768 398.25V395.225H101.549V401H100.801V399.416L100.922 399.702C100.739 400.127 100.453 400.461 100.064 400.703C99.6828 400.938 99.2354 401.055 98.7221 401.055ZM107.345 401V399.724L107.312 399.515V397.381C107.312 396.89 107.172 396.512 106.894 396.248C106.622 395.984 106.215 395.852 105.673 395.852C105.299 395.852 104.943 395.914 104.606 396.039C104.268 396.164 103.982 396.329 103.748 396.534L103.396 395.951C103.689 395.702 104.041 395.511 104.452 395.379C104.862 395.24 105.295 395.17 105.75 395.17C106.498 395.17 107.073 395.357 107.477 395.731C107.887 396.098 108.093 396.659 108.093 397.414V401H107.345ZM105.354 401.055C104.921 401.055 104.543 400.985 104.221 400.846C103.905 400.699 103.663 400.501 103.495 400.252C103.326 399.995 103.242 399.702 103.242 399.372C103.242 399.071 103.311 398.8 103.451 398.558C103.597 398.309 103.832 398.111 104.155 397.964C104.485 397.81 104.925 397.733 105.475 397.733H107.466V398.316H105.497C104.939 398.316 104.551 398.415 104.331 398.613C104.118 398.811 104.012 399.057 104.012 399.35C104.012 399.68 104.14 399.944 104.397 400.142C104.653 400.34 105.013 400.439 105.475 400.439C105.915 400.439 106.292 400.34 106.608 400.142C106.93 399.937 107.165 399.643 107.312 399.262L107.488 399.801C107.341 400.182 107.084 400.487 106.718 400.714C106.358 400.941 105.904 401.055 105.354 401.055ZM113.162 395.17C113.631 395.17 114.042 395.262 114.394 395.445C114.753 395.621 115.032 395.892 115.23 396.259C115.435 396.626 115.538 397.088 115.538 397.645V401H114.757V397.722C114.757 397.113 114.603 396.655 114.295 396.347C113.994 396.032 113.569 395.874 113.019 395.874C112.608 395.874 112.249 395.958 111.941 396.127C111.64 396.288 111.406 396.527 111.237 396.842C111.076 397.15 110.995 397.524 110.995 397.964V401H110.214V395.225H110.962V396.809L110.841 396.512C111.024 396.094 111.318 395.768 111.721 395.533C112.124 395.291 112.605 395.17 113.162 395.17ZM120.112 403.189C119.584 403.189 119.078 403.112 118.594 402.958C118.11 402.804 117.717 402.584 117.417 402.298L117.813 401.704C118.084 401.946 118.418 402.137 118.814 402.276C119.217 402.423 119.642 402.496 120.09 402.496C120.823 402.496 121.362 402.324 121.707 401.979C122.051 401.642 122.224 401.114 122.224 400.395V398.954L122.334 397.964L122.257 396.974V395.225H123.005V400.296C123.005 401.293 122.759 402.023 122.268 402.485C121.784 402.954 121.065 403.189 120.112 403.189ZM119.969 400.78C119.419 400.78 118.924 400.663 118.484 400.428C118.044 400.186 117.695 399.852 117.439 399.427C117.189 399.002 117.065 398.514 117.065 397.964C117.065 397.414 117.189 396.93 117.439 396.512C117.695 396.087 118.044 395.757 118.484 395.522C118.924 395.287 119.419 395.17 119.969 395.17C120.482 395.17 120.944 395.276 121.355 395.489C121.765 395.702 122.092 396.017 122.334 396.435C122.576 396.853 122.697 397.363 122.697 397.964C122.697 398.565 122.576 399.075 122.334 399.493C122.092 399.911 121.765 400.23 121.355 400.45C120.944 400.67 120.482 400.78 119.969 400.78ZM120.046 400.087C120.471 400.087 120.849 399.999 121.179 399.823C121.509 399.64 121.769 399.39 121.96 399.075C122.15 398.752 122.246 398.382 122.246 397.964C122.246 397.546 122.15 397.179 121.96 396.864C121.769 396.549 121.509 396.303 121.179 396.127C120.849 395.944 120.471 395.852 120.046 395.852C119.628 395.852 119.25 395.944 118.913 396.127C118.583 396.303 118.322 396.549 118.132 396.864C117.948 397.179 117.857 397.546 117.857 397.964C117.857 398.382 117.948 398.752 118.132 399.075C118.322 399.39 118.583 399.64 118.913 399.823C119.25 399.999 119.628 400.087 120.046 400.087ZM128.673 399.504L128.695 398.503L132.292 395.225H133.249L130.708 397.656L130.268 398.03L128.673 399.504ZM128.057 401V392.838H128.838V401H128.057ZM132.534 401L130.125 397.997L130.631 397.392L133.491 401H132.534ZM138.175 401V399.724L138.142 399.515V397.381C138.142 396.89 138.002 396.512 137.724 396.248C137.452 395.984 137.045 395.852 136.503 395.852C136.129 395.852 135.773 395.914 135.436 396.039C135.098 396.164 134.812 396.329 134.578 396.534L134.226 395.951C134.519 395.702 134.871 395.511 135.282 395.379C135.692 395.24 136.125 395.17 136.58 395.17C137.328 395.17 137.903 395.357 138.307 395.731C138.717 396.098 138.923 396.659 138.923 397.414V401H138.175ZM136.184 401.055C135.751 401.055 135.373 400.985 135.051 400.846C134.735 400.699 134.493 400.501 134.325 400.252C134.156 399.995 134.072 399.702 134.072 399.372C134.072 399.071 134.141 398.8 134.281 398.558C134.427 398.309 134.662 398.111 134.985 397.964C135.315 397.81 135.755 397.733 136.305 397.733H138.296V398.316H136.327C135.769 398.316 135.381 398.415 135.161 398.613C134.948 398.811 134.842 399.057 134.842 399.35C134.842 399.68 134.97 399.944 135.227 400.142C135.483 400.34 135.843 400.439 136.305 400.439C136.745 400.439 137.122 400.34 137.438 400.142C137.76 399.937 137.995 399.643 138.142 399.262L138.318 399.801C138.171 400.182 137.914 400.487 137.548 400.714C137.188 400.941 136.734 401.055 136.184 401.055ZM142.595 401.055C142.118 401.055 141.667 400.989 141.242 400.857C140.817 400.718 140.483 400.545 140.241 400.34L140.593 399.724C140.828 399.9 141.128 400.054 141.495 400.186C141.862 400.311 142.247 400.373 142.65 400.373C143.2 400.373 143.596 400.289 143.838 400.12C144.08 399.944 144.201 399.713 144.201 399.427C144.201 399.214 144.131 399.049 143.992 398.932C143.86 398.807 143.684 398.716 143.464 398.657C143.244 398.591 142.998 398.536 142.727 398.492C142.456 398.448 142.184 398.397 141.913 398.338C141.649 398.279 141.407 398.195 141.187 398.085C140.967 397.968 140.787 397.81 140.648 397.612C140.516 397.414 140.45 397.15 140.45 396.82C140.45 396.505 140.538 396.222 140.714 395.973C140.89 395.724 141.147 395.529 141.484 395.39C141.829 395.243 142.247 395.17 142.738 395.17C143.112 395.17 143.486 395.221 143.86 395.324C144.234 395.419 144.542 395.548 144.784 395.709L144.443 396.336C144.186 396.16 143.911 396.035 143.618 395.962C143.325 395.881 143.031 395.841 142.738 395.841C142.217 395.841 141.832 395.933 141.583 396.116C141.341 396.292 141.22 396.519 141.22 396.798C141.22 397.018 141.286 397.19 141.418 397.315C141.557 397.44 141.737 397.539 141.957 397.612C142.184 397.678 142.43 397.733 142.694 397.777C142.965 397.821 143.233 397.876 143.497 397.942C143.768 398.001 144.014 398.085 144.234 398.195C144.461 398.298 144.641 398.448 144.773 398.646C144.912 398.837 144.982 399.09 144.982 399.405C144.982 399.742 144.887 400.036 144.696 400.285C144.513 400.527 144.241 400.718 143.882 400.857C143.53 400.989 143.101 401.055 142.595 401.055Z" fill="black"/>
</g>
<g filter="url(#filter4_f_261_7093)">
<rect x="5" y="30" width="414" height="67" fill="white"/>
<path d="M37.2133 55.613C37.7036 55.1635 37.7071 54.4314 37.2212 53.9778C36.7352 53.5243 35.9438 53.521 35.4534 53.9705L32.4622 56.7128C31.3356 57.7456 30.4148 58.5898 29.7618 59.3419C29.0827 60.124 28.5912 60.9179 28.4599 61.8708C28.4023 62.2887 28.4023 62.7115 28.4599 63.1293C28.5912 64.0823 29.0827 64.8761 29.7618 65.6582C30.4148 66.4104 31.3356 67.2545 32.4622 68.2873L35.4534 71.0296C35.9438 71.4792 36.7352 71.4759 37.2212 71.0224C37.7071 70.5688 37.7036 69.8367 37.2133 69.3872L34.275 66.6934C33.0825 65.6002 32.2645 64.8478 31.711 64.2102C31.1733 63.591 30.9889 63.1932 30.9398 62.8369C30.909 62.6133 30.909 62.3869 30.9398 62.1632C30.9889 61.807 31.1733 61.4092 31.711 60.7899C32.2645 60.1524 33.0825 59.4 34.275 58.3067L37.2133 55.613Z" fill="#0E1764"/>
<rect x="382" y="56" width="13" height="13" fill="#76FB37"/>
<path d="M159.144 56.04C160.168 56.04 161.072 56.24 161.856 56.64C162.656 57.04 163.28 57.656 163.728 58.488C164.176 59.304 164.4 60.36 164.4 61.656V69H161.4V62.04C161.4 60.904 161.152 60.056 160.656 59.496C160.16 58.936 159.448 58.656 158.52 58.656C157.864 58.656 157.28 58.8 156.768 59.088C156.272 59.376 155.88 59.8 155.592 60.36C155.32 60.92 155.184 61.632 155.184 62.496V69H152.184V62.04C152.184 60.904 151.936 60.056 151.44 59.496C150.944 58.936 150.232 58.656 149.304 58.656C148.648 58.656 148.064 58.8 147.552 59.088C147.056 59.376 146.664 59.8 146.376 60.36C146.104 60.92 145.968 61.632 145.968 62.496V69H142.968V56.184H145.824V59.592L145.32 58.584C145.752 57.752 146.376 57.12 147.192 56.688C148.024 56.256 148.968 56.04 150.024 56.04C151.224 56.04 152.264 56.336 153.144 56.928C154.04 57.52 154.632 58.416 154.92 59.616L153.744 59.208C154.16 58.248 154.848 57.48 155.808 56.904C156.768 56.328 157.88 56.04 159.144 56.04ZM167.586 63.576V61.08H174.186V63.576H167.586ZM180.32 69V54.84H174.752V52.2H189.008V54.84H183.44V69H180.32ZM190.757 69V56.184H193.613V59.712L193.277 58.68C193.661 57.816 194.261 57.16 195.077 56.712C195.909 56.264 196.941 56.04 198.173 56.04V58.896C198.045 58.864 197.925 58.848 197.813 58.848C197.701 58.832 197.589 58.824 197.477 58.824C196.341 58.824 195.437 59.16 194.765 59.832C194.093 60.488 193.757 61.472 193.757 62.784V69H190.757ZM207.7 69V66.408L207.532 65.856V61.32C207.532 60.44 207.268 59.76 206.74 59.28C206.212 58.784 205.412 58.536 204.34 58.536C203.62 58.536 202.908 58.648 202.204 58.872C201.516 59.096 200.932 59.408 200.452 59.808L199.276 57.624C199.964 57.096 200.78 56.704 201.724 56.448C202.684 56.176 203.676 56.04 204.7 56.04C206.556 56.04 207.988 56.488 208.996 57.384C210.02 58.264 210.532 59.632 210.532 61.488V69H207.7ZM203.668 69.168C202.708 69.168 201.868 69.008 201.148 68.688C200.428 68.352 199.868 67.896 199.468 67.32C199.084 66.728 198.892 66.064 198.892 65.328C198.892 64.608 199.06 63.96 199.396 63.384C199.748 62.808 200.316 62.352 201.1 62.016C201.884 61.68 202.924 61.512 204.22 61.512H207.94V63.504H204.436C203.412 63.504 202.724 63.672 202.372 64.008C202.02 64.328 201.844 64.728 201.844 65.208C201.844 65.752 202.06 66.184 202.492 66.504C202.924 66.824 203.524 66.984 204.292 66.984C205.028 66.984 205.684 66.816 206.26 66.48C206.852 66.144 207.276 65.648 207.532 64.992L208.036 66.792C207.748 67.544 207.228 68.128 206.476 68.544C205.74 68.96 204.804 69.168 203.668 69.168ZM221.654 56.04C222.678 56.04 223.59 56.24 224.39 56.64C225.206 57.04 225.846 57.656 226.31 58.488C226.774 59.304 227.006 60.36 227.006 61.656V69H224.006V62.04C224.006 60.904 223.734 60.056 223.19 59.496C222.662 58.936 221.918 58.656 220.958 58.656C220.254 58.656 219.63 58.8 219.086 59.088C218.542 59.376 218.118 59.808 217.814 60.384C217.526 60.944 217.382 61.656 217.382 62.52V69H214.382V56.184H217.238V59.64L216.734 58.584C217.182 57.768 217.83 57.144 218.678 56.712C219.542 56.264 220.534 56.04 221.654 56.04ZM234.772 69.168C233.7 69.168 232.668 69.032 231.676 68.76C230.7 68.472 229.924 68.128 229.348 67.728L230.5 65.448C231.076 65.816 231.764 66.12 232.564 66.36C233.364 66.6 234.164 66.72 234.964 66.72C235.908 66.72 236.588 66.592 237.004 66.336C237.436 66.08 237.652 65.736 237.652 65.304C237.652 64.952 237.508 64.688 237.22 64.512C236.932 64.32 236.556 64.176 236.092 64.08C235.628 63.984 235.108 63.896 234.532 63.816C233.972 63.736 233.404 63.632 232.828 63.504C232.268 63.36 231.756 63.16 231.292 62.904C230.828 62.632 230.452 62.272 230.164 61.824C229.876 61.376 229.732 60.784 229.732 60.048C229.732 59.232 229.964 58.528 230.428 57.936C230.892 57.328 231.54 56.864 232.372 56.544C233.22 56.208 234.22 56.04 235.372 56.04C236.236 56.04 237.108 56.136 237.988 56.328C238.868 56.52 239.596 56.792 240.172 57.144L239.02 59.424C238.412 59.056 237.796 58.808 237.172 58.68C236.564 58.536 235.956 58.464 235.348 58.464C234.436 58.464 233.756 58.6 233.308 58.872C232.876 59.144 232.66 59.488 232.66 59.904C232.66 60.288 232.804 60.576 233.092 60.768C233.38 60.96 233.756 61.112 234.22 61.224C234.684 61.336 235.196 61.432 235.756 61.512C236.332 61.576 236.9 61.68 237.46 61.824C238.02 61.968 238.532 62.168 238.996 62.424C239.476 62.664 239.86 63.008 240.148 63.456C240.436 63.904 240.58 64.488 240.58 65.208C240.58 66.008 240.34 66.704 239.86 67.296C239.396 67.888 238.732 68.352 237.868 68.688C237.004 69.008 235.972 69.168 234.772 69.168ZM243.571 69V55.464C243.571 54.12 243.963 53.048 244.747 52.248C245.547 51.432 246.683 51.024 248.155 51.024C248.683 51.024 249.179 51.08 249.643 51.192C250.123 51.304 250.523 51.48 250.843 51.72L250.027 53.976C249.803 53.8 249.547 53.672 249.259 53.592C248.971 53.496 248.675 53.448 248.371 53.448C247.747 53.448 247.275 53.624 246.955 53.976C246.635 54.312 246.475 54.824 246.475 55.512V56.952L246.571 58.296V69H243.571ZM241.459 58.68V56.28H250.003V58.68H241.459ZM257.859 69.168C256.435 69.168 255.187 68.888 254.115 68.328C253.059 67.752 252.235 66.968 251.643 65.976C251.067 64.984 250.779 63.856 250.779 62.592C250.779 61.312 251.059 60.184 251.619 59.208C252.195 58.216 252.979 57.44 253.971 56.88C254.979 56.32 256.123 56.04 257.403 56.04C258.651 56.04 259.763 56.312 260.739 56.856C261.715 57.4 262.483 58.168 263.043 59.16C263.603 60.152 263.883 61.32 263.883 62.664C263.883 62.792 263.875 62.936 263.859 63.096C263.859 63.256 263.851 63.408 263.835 63.552H253.155V61.56H262.251L261.075 62.184C261.091 61.448 260.939 60.8 260.619 60.24C260.299 59.68 259.859 59.24 259.299 58.92C258.755 58.6 258.123 58.44 257.403 58.44C256.667 58.44 256.019 58.6 255.459 58.92C254.915 59.24 254.483 59.688 254.163 60.264C253.859 60.824 253.707 61.488 253.707 62.256V62.736C253.707 63.504 253.883 64.184 254.235 64.776C254.587 65.368 255.083 65.824 255.723 66.144C256.363 66.464 257.099 66.624 257.931 66.624C258.651 66.624 259.299 66.512 259.875 66.288C260.451 66.064 260.963 65.712 261.411 65.232L263.019 67.08C262.443 67.752 261.715 68.272 260.835 68.64C259.971 68.992 258.979 69.168 257.859 69.168ZM266.765 69V56.184H269.621V59.712L269.285 58.68C269.669 57.816 270.269 57.16 271.085 56.712C271.917 56.264 272.949 56.04 274.181 56.04V58.896C274.053 58.864 273.933 58.848 273.821 58.848C273.709 58.832 273.597 58.824 273.485 58.824C272.349 58.824 271.445 59.16 270.773 59.832C270.101 60.488 269.765 61.472 269.765 62.784V69H266.765Z" fill="#285496"/>
</g>
<g filter="url(#filter5_f_261_7093)">
<rect width="414" height="44" transform="translate(4 -3)" fill="white"/>
<path opacity="0.35" d="M396.288 15.248H377.888C376.567 15.248 375.496 16.2407 375.496 17.4651V23.6046C375.496 24.829 376.567 25.8217 377.888 25.8217H396.288C397.609 25.8217 398.68 24.829 398.68 23.6046V17.4651C398.68 16.2407 397.609 15.248 396.288 15.248Z" stroke="black"/>
<path opacity="0.4" d="M400.336 18.4883V22.5813C401.228 22.2346 401.808 21.4282 401.808 20.5348C401.808 19.6414 401.228 18.835 400.336 18.4883Z" fill="black"/>
<path d="M395.552 16.783H378.624C377.811 16.783 377.152 17.3938 377.152 18.1473V22.9225C377.152 23.676 377.811 24.2868 378.624 24.2868H395.552C396.365 24.2868 397.024 23.676 397.024 22.9225V18.1473C397.024 17.3938 396.365 16.783 395.552 16.783Z" fill="black"/>
<path fill-rule="evenodd" clip-rule="evenodd" d="M360.961 17.0292C363.416 17.0293 365.779 17.8865 367.559 19.4235C367.693 19.5422 367.907 19.5408 368.04 19.4202L369.32 18.2456C369.388 18.1846 369.425 18.1018 369.424 18.0156C369.423 17.9295 369.385 17.847 369.318 17.7866C364.646 13.7199 357.274 13.7199 352.602 17.7866C352.535 17.847 352.496 17.9294 352.496 18.0155C352.495 18.1017 352.533 18.1845 352.599 18.2456L353.881 19.4202C354.013 19.5409 354.227 19.5424 354.361 19.4235C356.142 17.8864 358.504 17.0292 360.961 17.0292ZM360.959 20.8414C362.31 20.8413 363.613 21.3086 364.614 22.1522C364.75 22.2721 364.963 22.2694 365.095 22.1464L366.376 20.9419C366.443 20.8787 366.481 20.793 366.48 20.7039C366.479 20.6149 366.44 20.5299 366.37 20.468C363.321 17.8287 358.598 17.8287 355.549 20.468C355.48 20.5299 355.441 20.6149 355.44 20.704C355.44 20.7931 355.477 20.8788 355.544 20.9419L356.825 22.1464C356.958 22.2694 357.171 22.2721 357.306 22.1522C358.307 21.3091 359.608 20.842 360.959 20.8414ZM363.536 23.6284C363.537 23.7158 363.5 23.8001 363.431 23.8614L361.207 25.8988C361.142 25.9586 361.052 25.9923 360.96 25.9923C360.867 25.9923 360.779 25.9586 360.713 25.8988L358.489 23.8614C358.419 23.8 358.382 23.7157 358.384 23.6283C358.386 23.5408 358.428 23.458 358.499 23.3994C359.92 22.3089 362.001 22.3089 363.42 23.3994C363.492 23.4581 363.534 23.5409 363.536 23.6284Z" fill="black"/>
<path fill-rule="evenodd" clip-rule="evenodd" d="M346.976 16.1009C346.976 15.5357 346.482 15.0776 345.872 15.0776H344.768C344.158 15.0776 343.664 15.5357 343.664 16.1009V24.969C343.664 25.5342 344.158 25.9923 344.768 25.9923H345.872C346.482 25.9923 346.976 25.5342 346.976 24.969V16.1009ZM339.616 17.4652H340.72C341.329 17.4652 341.824 17.9233 341.824 18.4885V24.969C341.824 25.5342 341.329 25.9923 340.72 25.9923H339.616C339.007 25.9923 338.512 25.5342 338.512 24.969V18.4885C338.512 17.9233 339.007 17.4652 339.616 17.4652ZM335.568 19.8528H334.464C333.854 19.8528 333.36 20.3109 333.36 20.876V24.969C333.36 25.5342 333.854 25.9923 334.464 25.9923H335.568C336.178 25.9923 336.672 25.5342 336.672 24.969V20.876C336.672 20.3109 336.178 19.8528 335.568 19.8528ZM331.52 22.9225C331.52 22.3574 331.026 21.8993 330.416 21.8993H329.312C328.702 21.8993 328.208 22.3574 328.208 22.9225V24.969C328.208 25.5342 328.702 25.9923 329.312 25.9923H330.416C331.026 25.9923 331.52 25.5342 331.52 24.969V22.9225Z" fill="black"/>
<path d="M27.8451 25.9133C30.8127 25.9133 32.5754 23.7624 32.5754 20.1201C32.5754 18.7486 32.2924 17.5945 31.7506 16.7026C30.9663 15.3161 29.6159 14.5667 27.9098 14.5667C25.3708 14.5667 23.5757 16.148 23.5757 18.3664C23.5757 20.4499 25.1929 21.9638 27.4166 21.9638C28.7831 21.9638 29.8908 21.3717 30.4407 20.345H30.4649C30.4649 20.345 30.4973 20.345 30.5054 20.345C30.5216 20.345 30.5782 20.345 30.5782 20.345C30.5782 22.8181 29.5674 24.2945 27.8613 24.2945C26.8586 24.2945 26.0824 23.785 25.8155 22.968H23.7375C24.0851 24.7443 25.7104 25.9133 27.8451 25.9133ZM27.9179 20.4273C26.5756 20.4273 25.6215 19.5431 25.6215 18.3064C25.6215 17.0998 26.6241 16.178 27.9259 16.178C29.2278 16.178 30.2304 17.1148 30.2304 18.3364C30.2304 19.5431 29.2521 20.4273 27.9179 20.4273ZM35.8703 24.5044C36.6385 24.5044 37.1641 23.9947 37.1641 23.3203C37.1641 22.6383 36.6385 22.1361 35.8703 22.1361C35.1102 22.1361 34.5766 22.6383 34.5766 23.3203C34.5766 23.9947 35.1102 24.5044 35.8703 24.5044ZM35.8703 18.8835C36.6385 18.8835 37.1641 18.3813 37.1641 17.7068C37.1641 17.0248 36.6385 16.5227 35.8703 16.5227C35.1102 16.5227 34.5766 17.0248 34.5766 17.7068C34.5766 18.3813 35.1102 18.8835 35.8703 18.8835ZM39.3997 17.9992V18.0291H41.3565V17.9992C41.3565 16.8974 42.1813 16.1555 43.4023 16.1555C44.5505 16.1555 45.3914 16.8449 45.3914 17.7968C45.3914 18.5612 44.9952 19.1233 43.4023 20.6222L39.513 24.3096V25.6511H47.615V24.0098H42.3753V23.8824L44.8174 21.6115C46.7984 19.7978 47.4372 18.8385 47.4372 17.6768C47.4372 15.8707 45.7714 14.5667 43.467 14.5667C41.0735 14.5667 39.3997 15.9756 39.3997 17.9992ZM50.0852 25.6511H52.2684L57.2575 16.4853V14.8365H49.1392V16.4627H55.1551V16.5827L50.0852 25.6511Z" fill="black"/>
</g>
<g filter="url(#filter6_d_261_7093)">
<g filter="url(#filter7_d_261_7093)">
<rect x="49" y="162" width="321" height="377" rx="10" fill="white"/>
<rect x="49.5" y="162.5" width="320" height="376" rx="9.5" stroke="#0E1764"/>
</g>
<path d="M49.5 172C49.5 166.753 53.7533 162.5 59 162.5H360C365.247 162.5 369.5 166.753 369.5 172V214.5H49.5V172Z" fill="url(#paint0_linear_261_7093)" stroke="#0E1764"/>
<path d="M168.22 184.08C169.073 184.08 169.827 184.253 170.48 184.6C171.147 184.933 171.667 185.453 172.04 186.16C172.427 186.853 172.62 187.747 172.62 188.84V195H169.5V189.32C169.5 188.453 169.32 187.813 168.96 187.4C168.6 186.987 168.093 186.78 167.44 186.78C166.987 186.78 166.58 186.887 166.22 187.1C165.86 187.3 165.58 187.607 165.38 188.02C165.18 188.433 165.08 188.96 165.08 189.6V195H161.96V189.32C161.96 188.453 161.78 187.813 161.42 187.4C161.073 186.987 160.573 186.78 159.92 186.78C159.467 186.78 159.06 186.887 158.7 187.1C158.34 187.3 158.06 187.607 157.86 188.02C157.66 188.433 157.56 188.96 157.56 189.6V195H154.44V184.24H157.42V187.18L156.86 186.32C157.233 185.587 157.76 185.033 158.44 184.66C159.133 184.273 159.92 184.08 160.8 184.08C161.787 184.08 162.647 184.333 163.38 184.84C164.127 185.333 164.62 186.093 164.86 187.12L163.76 186.82C164.12 185.98 164.693 185.313 165.48 184.82C166.28 184.327 167.193 184.08 168.22 184.08ZM174.717 190.62V188.12H180.377V190.62H174.717ZM184.909 195V183.64H180.429V181H192.629V183.64H188.149V195H184.909ZM193.618 195V184.24H196.598V187.28L196.178 186.4C196.498 185.64 197.011 185.067 197.718 184.68C198.425 184.28 199.285 184.08 200.298 184.08V186.96C200.165 186.947 200.045 186.94 199.938 186.94C199.831 186.927 199.718 186.92 199.598 186.92C198.745 186.92 198.051 187.167 197.518 187.66C196.998 188.14 196.738 188.893 196.738 189.92V195H193.618ZM207.75 195V192.9L207.55 192.44V188.68C207.55 188.013 207.343 187.493 206.93 187.12C206.53 186.747 205.91 186.56 205.07 186.56C204.497 186.56 203.93 186.653 203.37 186.84C202.823 187.013 202.357 187.253 201.97 187.56L200.85 185.38C201.437 184.967 202.143 184.647 202.97 184.42C203.797 184.193 204.637 184.08 205.49 184.08C207.13 184.08 208.403 184.467 209.31 185.24C210.217 186.013 210.67 187.22 210.67 188.86V195H207.75ZM204.47 195.16C203.63 195.16 202.91 195.02 202.31 194.74C201.71 194.447 201.25 194.053 200.93 193.56C200.61 193.067 200.45 192.513 200.45 191.9C200.45 191.26 200.603 190.7 200.91 190.22C201.23 189.74 201.73 189.367 202.41 189.1C203.09 188.82 203.977 188.68 205.07 188.68H207.93V190.5H205.41C204.677 190.5 204.17 190.62 203.89 190.86C203.623 191.1 203.49 191.4 203.49 191.76C203.49 192.16 203.643 192.48 203.95 192.72C204.27 192.947 204.703 193.06 205.25 193.06C205.77 193.06 206.237 192.94 206.65 192.7C207.063 192.447 207.363 192.08 207.55 191.6L208.03 193.04C207.803 193.733 207.39 194.26 206.79 194.62C206.19 194.98 205.417 195.16 204.47 195.16ZM219.734 184.08C220.587 184.08 221.347 184.253 222.014 184.6C222.694 184.933 223.227 185.453 223.614 186.16C224.001 186.853 224.194 187.747 224.194 188.84V195H221.074V189.32C221.074 188.453 220.881 187.813 220.494 187.4C220.121 186.987 219.587 186.78 218.894 186.78C218.401 186.78 217.954 186.887 217.554 187.1C217.167 187.3 216.861 187.613 216.634 188.04C216.421 188.467 216.314 189.013 216.314 189.68V195H213.194V184.24H216.174V187.22L215.614 186.32C216.001 185.6 216.554 185.047 217.274 184.66C217.994 184.273 218.814 184.08 219.734 184.08ZM230.342 195.16C229.422 195.16 228.535 195.053 227.682 194.84C226.842 194.613 226.175 194.333 225.682 194L226.722 191.76C227.215 192.067 227.795 192.32 228.462 192.52C229.142 192.707 229.809 192.8 230.462 192.8C231.182 192.8 231.689 192.713 231.982 192.54C232.289 192.367 232.442 192.127 232.442 191.82C232.442 191.567 232.322 191.38 232.082 191.26C231.855 191.127 231.549 191.027 231.162 190.96C230.775 190.893 230.349 190.827 229.882 190.76C229.429 190.693 228.969 190.607 228.502 190.5C228.035 190.38 227.609 190.207 227.222 189.98C226.835 189.753 226.522 189.447 226.282 189.06C226.055 188.673 225.942 188.173 225.942 187.56C225.942 186.88 226.135 186.28 226.522 185.76C226.922 185.24 227.495 184.833 228.242 184.54C228.989 184.233 229.882 184.08 230.922 184.08C231.655 184.08 232.402 184.16 233.162 184.32C233.922 184.48 234.555 184.713 235.062 185.02L234.022 187.24C233.502 186.933 232.975 186.727 232.442 186.62C231.922 186.5 231.415 186.44 230.922 186.44C230.229 186.44 229.722 186.533 229.402 186.72C229.082 186.907 228.922 187.147 228.922 187.44C228.922 187.707 229.035 187.907 229.262 188.04C229.502 188.173 229.815 188.28 230.202 188.36C230.589 188.44 231.009 188.513 231.462 188.58C231.929 188.633 232.395 188.72 232.862 188.84C233.329 188.96 233.749 189.133 234.122 189.36C234.509 189.573 234.822 189.873 235.062 190.26C235.302 190.633 235.422 191.127 235.422 191.74C235.422 192.407 235.222 193 234.822 193.52C234.422 194.027 233.842 194.427 233.082 194.72C232.335 195.013 231.422 195.16 230.342 195.16ZM237.427 195V184C237.427 182.787 237.787 181.82 238.507 181.1C239.227 180.367 240.254 180 241.587 180C242.04 180 242.474 180.047 242.887 180.14C243.314 180.233 243.674 180.38 243.967 180.58L243.147 182.84C242.974 182.72 242.78 182.627 242.567 182.56C242.354 182.493 242.127 182.46 241.887 182.46C241.434 182.46 241.08 182.593 240.827 182.86C240.587 183.113 240.467 183.5 240.467 184.02V185.02L240.547 186.36V195H237.427ZM235.767 186.88V184.48H243.227V186.88H235.767ZM249.685 195.16C248.458 195.16 247.378 194.92 246.445 194.44C245.525 193.96 244.811 193.307 244.305 192.48C243.798 191.64 243.545 190.687 243.545 189.62C243.545 188.54 243.791 187.587 244.285 186.76C244.791 185.92 245.478 185.267 246.345 184.8C247.211 184.32 248.191 184.08 249.285 184.08C250.338 184.08 251.285 184.307 252.125 184.76C252.978 185.2 253.651 185.84 254.145 186.68C254.638 187.507 254.885 188.5 254.885 189.66C254.885 189.78 254.878 189.92 254.865 190.08C254.851 190.227 254.838 190.367 254.825 190.5H246.085V188.68H253.185L251.985 189.22C251.985 188.66 251.871 188.173 251.645 187.76C251.418 187.347 251.105 187.027 250.705 186.8C250.305 186.56 249.838 186.44 249.305 186.44C248.771 186.44 248.298 186.56 247.885 186.8C247.485 187.027 247.171 187.353 246.945 187.78C246.718 188.193 246.605 188.687 246.605 189.26V189.74C246.605 190.327 246.731 190.847 246.985 191.3C247.251 191.74 247.618 192.08 248.085 192.32C248.565 192.547 249.125 192.66 249.765 192.66C250.338 192.66 250.838 192.573 251.265 192.4C251.705 192.227 252.105 191.967 252.465 191.62L254.125 193.42C253.631 193.98 253.011 194.413 252.265 194.72C251.518 195.013 250.658 195.16 249.685 195.16ZM256.662 195V184.24H259.642V187.28L259.222 186.4C259.542 185.64 260.055 185.067 260.762 184.68C261.469 184.28 262.329 184.08 263.342 184.08V186.96C263.209 186.947 263.089 186.94 262.982 186.94C262.875 186.927 262.762 186.92 262.642 186.92C261.789 186.92 261.095 187.167 260.562 187.66C260.042 188.14 259.782 188.893 259.782 189.92V195H256.662Z" fill="white"/>
</g>
</g>
<rect x="4.5" y="0.5" width="413" height="735" stroke="#0E1764"/>
</g>
<defs>
<filter id="filter0_d_261_7093" x="0" y="0" width="422" height="744" filterUnits="userSpaceOnUse" color-interpolation-filters="sRGB">
<feFlood flood-opacity="0" result="BackgroundImageFix"/>
<feColorMatrix in="SourceAlpha" type="matrix" values="0 0 0 0 0 0 0 0 0 0 0 0 0 0 0 0 0 0 127 0" result="hardAlpha"/>
<feOffset dy="4"/>
<feGaussianBlur stdDeviation="2"/>
<feComposite in2="hardAlpha" operator="out"/>
<feColorMatrix type="matrix" values="0 0 0 0 0 0 0 0 0 0 0 0 0 0 0 0 0 0 0.25 0"/>
<feBlend mode="normal" in2="BackgroundImageFix" result="effect1_dropShadow_261_7093"/>
<feBlend mode="normal" in="SourceGraphic" in2="effect1_dropShadow_261_7093" result="shape"/>
</filter>
<filter id="filter1_f_261_7093" x="17" y="650" width="387" height="70" filterUnits="userSpaceOnUse" color-interpolation-filters="sRGB">
<feFlood flood-opacity="0" result="BackgroundImageFix"/>
<feBlend mode="normal" in="SourceGraphic" in2="BackgroundImageFix" result="shape"/>
<feGaussianBlur stdDeviation="5" result="effect1_foregroundBlur_261_7093"/>
</filter>
<filter id="filter2_f_261_7093" x="17" y="114" width="387" height="404" filterUnits="userSpaceOnUse" color-interpolation-filters="sRGB">
<feFlood flood-opacity="0" result="BackgroundImageFix"/>
<feBlend mode="normal" in="SourceGraphic" in2="BackgroundImageFix" result="shape"/>
<feGaussianBlur stdDeviation="5" result="effect1_foregroundBlur_261_7093"/>
</filter>
<filter id="filter3_d_261_7093" x="23" y="124" width="375" height="392" filterUnits="userSpaceOnUse" color-interpolation-filters="sRGB">
<feFlood flood-opacity="0" result="BackgroundImageFix"/>
<feColorMatrix in="SourceAlpha" type="matrix" values="0 0 0 0 0 0 0 0 0 0 0 0 0 0 0 0 0 0 127 0" result="hardAlpha"/>
<feOffset dy="4"/>
<feGaussianBlur stdDeviation="2"/>
<feComposite in2="hardAlpha" operator="out"/>
<feColorMatrix type="matrix" values="0 0 0 0 0 0 0 0 0 0 0 0 0 0 0 0 0 0 0.25 0"/>
<feBlend mode="normal" in2="BackgroundImageFix" result="effect1_dropShadow_261_7093"/>
<feBlend mode="normal" in="SourceGraphic" in2="effect1_dropShadow_261_7093" result="shape"/>
</filter>
<filter id="filter4_f_261_7093" x="-5" y="20" width="434" height="87" filterUnits="userSpaceOnUse" color-interpolation-filters="sRGB">
<feFlood flood-opacity="0" result="BackgroundImageFix"/>
<feBlend mode="normal" in="SourceGraphic" in2="BackgroundImageFix" result="shape"/>
<feGaussianBlur stdDeviation="5" result="effect1_foregroundBlur_261_7093"/>
</filter>
<filter id="filter5_f_261_7093" x="-6" y="-13" width="434" height="64" filterUnits="userSpaceOnUse" color-interpolation-filters="sRGB">
<feFlood flood-opacity="0" result="BackgroundImageFix"/>
<feBlend mode="normal" in="SourceGraphic" in2="BackgroundImageFix" result="shape"/>
<feGaussianBlur stdDeviation="5" result="effect1_foregroundBlur_261_7093"/>
</filter>
<filter id="filter6_d_261_7093" x="45" y="162" width="329" height="385" filterUnits="userSpaceOnUse" color-interpolation-filters="sRGB">
<feFlood flood-opacity="0" result="BackgroundImageFix"/>
<feColorMatrix in="SourceAlpha" type="matrix" values="0 0 0 0 0 0 0 0 0 0 0 0 0 0 0 0 0 0 127 0" result="hardAlpha"/>
<feOffset dy="4"/>
<feGaussianBlur stdDeviation="2"/>
<feComposite in2="hardAlpha" operator="out"/>
<feColorMatrix type="matrix" values="0 0 0 0 0 0 0 0 0 0 0 0 0 0 0 0 0 0 0.25 0"/>
<feBlend mode="normal" in2="BackgroundImageFix" result="effect1_dropShadow_261_7093"/>
<feBlend mode="normal" in="SourceGraphic" in2="effect1_dropShadow_261_7093" result="shape"/>
</filter>
<filter id="filter7_d_261_7093" x="45" y="162" width="329" height="385" filterUnits="userSpaceOnUse" color-interpolation-filters="sRGB">
<feFlood flood-opacity="0" result="BackgroundImageFix"/>
<feColorMatrix in="SourceAlpha" type="matrix" values="0 0 0 0 0 0 0 0 0 0 0 0 0 0 0 0 0 0 127 0" result="hardAlpha"/>
<feOffset dy="4"/>
<feGaussianBlur stdDeviation="2"/>
<feComposite in2="hardAlpha" operator="out"/>
<feColorMatrix type="matrix" values="0 0 0 0 0 0 0 0 0 0 0 0 0 0 0 0 0 0 0.25 0"/>
<feBlend mode="normal" in2="BackgroundImageFix" result="effect1_dropShadow_261_7093"/>
<feBlend mode="normal" in="SourceGraphic" in2="effect1_dropShadow_261_7093" result="shape"/>
</filter>
<linearGradient id="paint0_linear_261_7093" x1="209.5" y1="162" x2="209.5" y2="215" gradientUnits="userSpaceOnUse">
<stop stop-color="#296FE3"/>
<stop offset="1" stop-color="#0E1764"/>
</linearGradient>
<clipPath id="clip0_261_7093">
<rect x="4" width="414" height="736" fill="white"/>
</clipPath>
</defs>
</svg>
