<svg width="37" height="10" viewBox="0 0 37 10" fill="none" xmlns="http://www.w3.org/2000/svg">
<path d="M6.032 0.599999H7.592V9H6.032V0.599999ZM1.688 9H0.128V0.599999H1.688V9ZM6.152 5.4H1.556V4.068H6.152V5.4ZM12.5788 9.084C11.9228 9.084 11.3388 8.944 10.8268 8.664C10.3148 8.376 9.91084 7.984 9.61484 7.488C9.31884 6.992 9.17084 6.428 9.17084 5.796C9.17084 5.156 9.31884 4.592 9.61484 4.104C9.91084 3.608 10.3148 3.22 10.8268 2.94C11.3388 2.66 11.9228 2.52 12.5788 2.52C13.2428 2.52 13.8308 2.66 14.3428 2.94C14.8628 3.22 15.2668 3.604 15.5548 4.092C15.8508 4.58 15.9988 5.148 15.9988 5.796C15.9988 6.428 15.8508 6.992 15.5548 7.488C15.2668 7.984 14.8628 8.376 14.3428 8.664C13.8308 8.944 13.2428 9.084 12.5788 9.084ZM12.5788 7.8C12.9468 7.8 13.2748 7.72 13.5628 7.56C13.8508 7.4 14.0748 7.168 14.2348 6.864C14.4028 6.56 14.4868 6.204 14.4868 5.796C14.4868 5.38 14.4028 5.024 14.2348 4.728C14.0748 4.424 13.8508 4.192 13.5628 4.032C13.2748 3.872 12.9508 3.792 12.5908 3.792C12.2228 3.792 11.8948 3.872 11.6068 4.032C11.3268 4.192 11.1028 4.424 10.9348 4.728C10.7668 5.024 10.6828 5.38 10.6828 5.796C10.6828 6.204 10.7668 6.56 10.9348 6.864C11.1028 7.168 11.3268 7.4 11.6068 7.56C11.8948 7.72 12.2188 7.8 12.5788 7.8ZM25.5212 2.52C26.0332 2.52 26.4852 2.62 26.8772 2.82C27.2772 3.02 27.5892 3.328 27.8132 3.744C28.0372 4.152 28.1492 4.68 28.1492 5.328V9H26.6492V5.52C26.6492 4.952 26.5252 4.528 26.2772 4.248C26.0292 3.968 25.6732 3.828 25.2092 3.828C24.8812 3.828 24.5892 3.9 24.3332 4.044C24.0852 4.188 23.8892 4.4 23.7452 4.68C23.6092 4.96 23.5412 5.316 23.5412 5.748V9H22.0412V5.52C22.0412 4.952 21.9172 4.528 21.6692 4.248C21.4212 3.968 21.0652 3.828 20.6012 3.828C20.2732 3.828 19.9812 3.9 19.7252 4.044C19.4772 4.188 19.2812 4.4 19.1372 4.68C19.0012 4.96 18.9332 5.316 18.9332 5.748V9H17.4332V2.592H18.8612V4.296L18.6092 3.792C18.8252 3.376 19.1372 3.06 19.5452 2.844C19.9612 2.628 20.4332 2.52 20.9612 2.52C21.5612 2.52 22.0812 2.668 22.5212 2.964C22.9692 3.26 23.2652 3.708 23.4092 4.308L22.8212 4.104C23.0292 3.624 23.3732 3.24 23.8532 2.952C24.3332 2.664 24.8892 2.52 25.5212 2.52ZM33.0898 9.084C32.3778 9.084 31.7538 8.944 31.2178 8.664C30.6898 8.376 30.2778 7.984 29.9818 7.488C29.6938 6.992 29.5498 6.428 29.5498 5.796C29.5498 5.156 29.6898 4.592 29.9698 4.104C30.2578 3.608 30.6498 3.22 31.1458 2.94C31.6498 2.66 32.2218 2.52 32.8618 2.52C33.4858 2.52 34.0418 2.656 34.5298 2.928C35.0178 3.2 35.4018 3.584 35.6818 4.08C35.9618 4.576 36.1018 5.16 36.1018 5.832C36.1018 5.896 36.0978 5.968 36.0898 6.048C36.0898 6.128 36.0858 6.204 36.0778 6.276H30.7378V5.28H35.2858L34.6978 5.592C34.7058 5.224 34.6298 4.9 34.4698 4.62C34.3098 4.34 34.0898 4.12 33.8098 3.96C33.5378 3.8 33.2218 3.72 32.8618 3.72C32.4938 3.72 32.1698 3.8 31.8898 3.96C31.6178 4.12 31.4018 4.344 31.2418 4.632C31.0898 4.912 31.0138 5.244 31.0138 5.628V5.868C31.0138 6.252 31.1018 6.592 31.2778 6.888C31.4538 7.184 31.7018 7.412 32.0218 7.572C32.3418 7.732 32.7098 7.812 33.1258 7.812C33.4858 7.812 33.8098 7.756 34.0978 7.644C34.3858 7.532 34.6418 7.356 34.8658 7.116L35.6698 8.04C35.3818 8.376 35.0178 8.636 34.5778 8.82C34.1458 8.996 33.6498 9.084 33.0898 9.084Z" fill="#254F8E"/>
</svg>
