<svg width="43" height="41" viewBox="0 0 43 41" fill="none" xmlns="http://www.w3.org/2000/svg">
<path fill-rule="evenodd" clip-rule="evenodd" d="M5.96079 10.8358C5.375 11.4216 5.375 12.3644 5.375 14.25V26.75C5.375 28.6356 5.375 29.5784 5.96079 30.1642C6.54657 30.75 7.48938 30.75 9.375 30.75H33.625C35.5106 30.75 36.4534 30.75 37.0392 30.1642C37.625 29.5784 37.625 28.6356 37.625 26.75V14.25C37.625 12.3644 37.625 11.4216 37.0392 10.8358C36.4534 10.25 35.5106 10.25 33.625 10.25H9.375C7.48938 10.25 6.54657 10.25 5.96079 10.8358ZM21.5 25.625C24.4685 25.625 26.875 23.3305 26.875 20.5C26.875 17.6695 24.4685 15.375 21.5 15.375C18.5315 15.375 16.125 17.6695 16.125 20.5C16.125 23.3305 18.5315 25.625 21.5 25.625Z" fill="#7E869E" fill-opacity="0.25"/>
<rect x="5.375" y="10.25" width="32.25" height="20.5" rx="2" stroke="#0E1764" stroke-width="1.2"/>
<path d="M10.75 15.375H14.3333" stroke="#0E1764" stroke-width="1.2" stroke-linecap="round"/>
<path d="M28.6667 25.625H32.25" stroke="#0E1764" stroke-width="1.2" stroke-linecap="round"/>
<path d="M26.275 20.5C26.275 22.9725 24.1644 25.025 21.5 25.025C18.8356 25.025 16.725 22.9725 16.725 20.5C16.725 18.0275 18.8356 15.975 21.5 15.975C24.1644 15.975 26.275 18.0275 26.275 20.5Z" stroke="#0E1764" stroke-width="1.2"/>
</svg>
