<svg width="16" height="18" viewBox="0 0 16 18" fill="none" xmlns="http://www.w3.org/2000/svg">
<path d="M7.99957 12.5V14.375M7.99957 12.5C8.86252 12.5 9.56207 11.8004 9.56207 10.9375C9.56207 10.0746 8.86252 9.375 7.99957 9.375C7.13663 9.375 6.43707 10.0746 6.43707 10.9375C6.43707 11.8004 7.13663 12.5 7.99957 12.5ZM5.18707 6.875V4.0625C5.18707 3.31658 5.48339 2.60121 6.01084 2.07376C6.53828 1.54632 7.25365 1.25 7.99957 1.25C8.74549 1.25 9.46086 1.54632 9.98831 2.07376C10.5158 2.60121 10.8121 3.31658 10.8121 4.0625V6.875M1.74957 6.875H14.2496C14.5948 6.875 14.8746 7.15482 14.8746 7.5V16.25C14.8746 16.5952 14.5948 16.875 14.2496 16.875H1.74957C1.40439 16.875 1.12457 16.5952 1.12457 16.25V7.5C1.12457 7.15482 1.40439 6.875 1.74957 6.875Z" stroke="#5E718D" stroke-linecap="round" stroke-linejoin="round"/>
</svg>
