<svg width="414" height="67" viewBox="0 0 414 67" fill="none" xmlns="http://www.w3.org/2000/svg">
<rect width="414" height="67" fill="white"/>
<path d="M32.2133 25.6129C32.7036 25.1634 32.7071 24.4313 32.2212 23.9777C31.7352 23.5242 30.9438 23.5209 30.4534 23.9704L27.4622 26.7127C26.3356 27.7456 25.4148 28.5897 24.7618 29.3418C24.0827 30.1239 23.5912 30.9178 23.4599 31.8707C23.4023 32.2886 23.4023 32.7114 23.4599 33.1292C23.5912 34.0822 24.0827 34.876 24.7618 35.6582C25.4148 36.4103 26.3356 37.2544 27.4622 38.2872L30.4534 41.0296C30.9438 41.4791 31.7352 41.4758 32.2212 41.0223C32.7071 40.5687 32.7036 39.8366 32.2133 39.3871L29.275 36.6933C28.0825 35.6001 27.2645 34.8477 26.711 34.2102C26.1733 33.5909 25.9889 33.1931 25.9398 32.8369C25.909 32.6132 25.909 32.3868 25.9398 32.1631C25.9889 31.8069 26.1733 31.4091 26.711 30.7898C27.2645 30.1523 28.0825 29.3999 29.275 28.3067L32.2133 25.6129Z" fill="#0E1764"/>
<rect x="377" y="26" width="13" height="13" fill="#76FB37"/>
<path d="M154.144 26.04C155.168 26.04 156.072 26.24 156.856 26.64C157.656 27.04 158.28 27.656 158.728 28.488C159.176 29.304 159.4 30.36 159.4 31.656V39H156.4V32.04C156.4 30.904 156.152 30.056 155.656 29.496C155.16 28.936 154.448 28.656 153.52 28.656C152.864 28.656 152.28 28.8 151.768 29.088C151.272 29.376 150.88 29.8 150.592 30.36C150.32 30.92 150.184 31.632 150.184 32.496V39H147.184V32.04C147.184 30.904 146.936 30.056 146.44 29.496C145.944 28.936 145.232 28.656 144.304 28.656C143.648 28.656 143.064 28.8 142.552 29.088C142.056 29.376 141.664 29.8 141.376 30.36C141.104 30.92 140.968 31.632 140.968 32.496V39H137.968V26.184H140.824V29.592L140.32 28.584C140.752 27.752 141.376 27.12 142.192 26.688C143.024 26.256 143.968 26.04 145.024 26.04C146.224 26.04 147.264 26.336 148.144 26.928C149.04 27.52 149.632 28.416 149.92 29.616L148.744 29.208C149.16 28.248 149.848 27.48 150.808 26.904C151.768 26.328 152.88 26.04 154.144 26.04ZM162.586 33.576V31.08H169.186V33.576H162.586ZM175.32 39V24.84H169.752V22.2H184.008V24.84H178.44V39H175.32ZM185.757 39V26.184H188.613V29.712L188.277 28.68C188.661 27.816 189.261 27.16 190.077 26.712C190.909 26.264 191.941 26.04 193.173 26.04V28.896C193.045 28.864 192.925 28.848 192.813 28.848C192.701 28.832 192.589 28.824 192.477 28.824C191.341 28.824 190.437 29.16 189.765 29.832C189.093 30.488 188.757 31.472 188.757 32.784V39H185.757ZM202.7 39V36.408L202.532 35.856V31.32C202.532 30.44 202.268 29.76 201.74 29.28C201.212 28.784 200.412 28.536 199.34 28.536C198.62 28.536 197.908 28.648 197.204 28.872C196.516 29.096 195.932 29.408 195.452 29.808L194.276 27.624C194.964 27.096 195.78 26.704 196.724 26.448C197.684 26.176 198.676 26.04 199.7 26.04C201.556 26.04 202.988 26.488 203.996 27.384C205.02 28.264 205.532 29.632 205.532 31.488V39H202.7ZM198.668 39.168C197.708 39.168 196.868 39.008 196.148 38.688C195.428 38.352 194.868 37.896 194.468 37.32C194.084 36.728 193.892 36.064 193.892 35.328C193.892 34.608 194.06 33.96 194.396 33.384C194.748 32.808 195.316 32.352 196.1 32.016C196.884 31.68 197.924 31.512 199.22 31.512H202.94V33.504H199.436C198.412 33.504 197.724 33.672 197.372 34.008C197.02 34.328 196.844 34.728 196.844 35.208C196.844 35.752 197.06 36.184 197.492 36.504C197.924 36.824 198.524 36.984 199.292 36.984C200.028 36.984 200.684 36.816 201.26 36.48C201.852 36.144 202.276 35.648 202.532 34.992L203.036 36.792C202.748 37.544 202.228 38.128 201.476 38.544C200.74 38.96 199.804 39.168 198.668 39.168ZM216.654 26.04C217.678 26.04 218.59 26.24 219.39 26.64C220.206 27.04 220.846 27.656 221.31 28.488C221.774 29.304 222.006 30.36 222.006 31.656V39H219.006V32.04C219.006 30.904 218.734 30.056 218.19 29.496C217.662 28.936 216.918 28.656 215.958 28.656C215.254 28.656 214.63 28.8 214.086 29.088C213.542 29.376 213.118 29.808 212.814 30.384C212.526 30.944 212.382 31.656 212.382 32.52V39H209.382V26.184H212.238V29.64L211.734 28.584C212.182 27.768 212.83 27.144 213.678 26.712C214.542 26.264 215.534 26.04 216.654 26.04ZM229.772 39.168C228.7 39.168 227.668 39.032 226.676 38.76C225.7 38.472 224.924 38.128 224.348 37.728L225.5 35.448C226.076 35.816 226.764 36.12 227.564 36.36C228.364 36.6 229.164 36.72 229.964 36.72C230.908 36.72 231.588 36.592 232.004 36.336C232.436 36.08 232.652 35.736 232.652 35.304C232.652 34.952 232.508 34.688 232.22 34.512C231.932 34.32 231.556 34.176 231.092 34.08C230.628 33.984 230.108 33.896 229.532 33.816C228.972 33.736 228.404 33.632 227.828 33.504C227.268 33.36 226.756 33.16 226.292 32.904C225.828 32.632 225.452 32.272 225.164 31.824C224.876 31.376 224.732 30.784 224.732 30.048C224.732 29.232 224.964 28.528 225.428 27.936C225.892 27.328 226.54 26.864 227.372 26.544C228.22 26.208 229.22 26.04 230.372 26.04C231.236 26.04 232.108 26.136 232.988 26.328C233.868 26.52 234.596 26.792 235.172 27.144L234.02 29.424C233.412 29.056 232.796 28.808 232.172 28.68C231.564 28.536 230.956 28.464 230.348 28.464C229.436 28.464 228.756 28.6 228.308 28.872C227.876 29.144 227.66 29.488 227.66 29.904C227.66 30.288 227.804 30.576 228.092 30.768C228.38 30.96 228.756 31.112 229.22 31.224C229.684 31.336 230.196 31.432 230.756 31.512C231.332 31.576 231.9 31.68 232.46 31.824C233.02 31.968 233.532 32.168 233.996 32.424C234.476 32.664 234.86 33.008 235.148 33.456C235.436 33.904 235.58 34.488 235.58 35.208C235.58 36.008 235.34 36.704 234.86 37.296C234.396 37.888 233.732 38.352 232.868 38.688C232.004 39.008 230.972 39.168 229.772 39.168ZM238.571 39V25.464C238.571 24.12 238.963 23.048 239.747 22.248C240.547 21.432 241.683 21.024 243.155 21.024C243.683 21.024 244.179 21.08 244.643 21.192C245.123 21.304 245.523 21.48 245.843 21.72L245.027 23.976C244.803 23.8 244.547 23.672 244.259 23.592C243.971 23.496 243.675 23.448 243.371 23.448C242.747 23.448 242.275 23.624 241.955 23.976C241.635 24.312 241.475 24.824 241.475 25.512V26.952L241.571 28.296V39H238.571ZM236.459 28.68V26.28H245.003V28.68H236.459ZM252.859 39.168C251.435 39.168 250.187 38.888 249.115 38.328C248.059 37.752 247.235 36.968 246.643 35.976C246.067 34.984 245.779 33.856 245.779 32.592C245.779 31.312 246.059 30.184 246.619 29.208C247.195 28.216 247.979 27.44 248.971 26.88C249.979 26.32 251.123 26.04 252.403 26.04C253.651 26.04 254.763 26.312 255.739 26.856C256.715 27.4 257.483 28.168 258.043 29.16C258.603 30.152 258.883 31.32 258.883 32.664C258.883 32.792 258.875 32.936 258.859 33.096C258.859 33.256 258.851 33.408 258.835 33.552H248.155V31.56H257.251L256.075 32.184C256.091 31.448 255.939 30.8 255.619 30.24C255.299 29.68 254.859 29.24 254.299 28.92C253.755 28.6 253.123 28.44 252.403 28.44C251.667 28.44 251.019 28.6 250.459 28.92C249.915 29.24 249.483 29.688 249.163 30.264C248.859 30.824 248.707 31.488 248.707 32.256V32.736C248.707 33.504 248.883 34.184 249.235 34.776C249.587 35.368 250.083 35.824 250.723 36.144C251.363 36.464 252.099 36.624 252.931 36.624C253.651 36.624 254.299 36.512 254.875 36.288C255.451 36.064 255.963 35.712 256.411 35.232L258.019 37.08C257.443 37.752 256.715 38.272 255.835 38.64C254.971 38.992 253.979 39.168 252.859 39.168ZM261.765 39V26.184H264.621V29.712L264.285 28.68C264.669 27.816 265.269 27.16 266.085 26.712C266.917 26.264 267.949 26.04 269.181 26.04V28.896C269.053 28.864 268.933 28.848 268.821 28.848C268.709 28.832 268.597 28.824 268.485 28.824C267.349 28.824 266.445 29.16 265.773 29.832C265.101 30.488 264.765 31.472 264.765 32.784V39H261.765Z" fill="#285496"/>
</svg>
