<svg width="414" height="75" viewBox="0 0 414 75" fill="none" xmlns="http://www.w3.org/2000/svg">
<g filter="url(#filter0_d_261_7817)">
<rect width="414" height="67" fill="white"/>
<path d="M32.2132 25.6129C32.7036 25.1634 32.7071 24.4313 32.2211 23.9777C31.7351 23.5242 30.9437 23.5209 30.4534 23.9704L27.4621 26.7127C26.3355 27.7456 25.4147 28.5897 24.7617 29.3418C24.0827 30.1239 23.5911 30.9178 23.4598 31.8707C23.4022 32.2886 23.4022 32.7114 23.4598 33.1292C23.5911 34.0822 24.0827 34.876 24.7617 35.6582C25.4147 36.4103 26.3355 37.2544 27.4621 38.2872L30.4534 41.0296C30.9437 41.4791 31.7351 41.4758 32.2211 41.0223C32.7071 40.5687 32.7036 39.8366 32.2132 39.3871L29.2749 36.6933C28.0825 35.6001 27.2645 34.8477 26.7109 34.2102C26.1733 33.5909 25.9888 33.1931 25.9397 32.8369C25.9089 32.6132 25.9089 32.3868 25.9397 32.1631C25.9888 31.8069 26.1733 31.4091 26.7109 30.7898C27.2645 30.1523 28.0825 29.3999 29.2749 28.3067L32.2132 25.6129Z" fill="#0E1764"/>
<rect x="377" y="26" width="13" height="13" fill="#76FB37"/>
<path d="M130.664 44V29.84H125.096V27.2H139.352V29.84H133.784V44H130.664ZM141.101 44V31.184H143.957V34.712L143.621 33.68C144.005 32.816 144.605 32.16 145.421 31.712C146.253 31.264 147.285 31.04 148.517 31.04V33.896C148.389 33.864 148.269 33.848 148.157 33.848C148.045 33.832 147.933 33.824 147.821 33.824C146.685 33.824 145.781 34.16 145.109 34.832C144.437 35.488 144.101 36.472 144.101 37.784V44H141.101ZM158.044 44V41.408L157.876 40.856V36.32C157.876 35.44 157.612 34.76 157.084 34.28C156.556 33.784 155.756 33.536 154.684 33.536C153.964 33.536 153.252 33.648 152.548 33.872C151.86 34.096 151.276 34.408 150.796 34.808L149.62 32.624C150.308 32.096 151.124 31.704 152.068 31.448C153.028 31.176 154.02 31.04 155.044 31.04C156.9 31.04 158.332 31.488 159.34 32.384C160.364 33.264 160.876 34.632 160.876 36.488V44H158.044ZM154.012 44.168C153.052 44.168 152.212 44.008 151.492 43.688C150.772 43.352 150.212 42.896 149.812 42.32C149.428 41.728 149.236 41.064 149.236 40.328C149.236 39.608 149.404 38.96 149.74 38.384C150.092 37.808 150.66 37.352 151.444 37.016C152.228 36.68 153.268 36.512 154.564 36.512H158.284V38.504H154.78C153.756 38.504 153.068 38.672 152.716 39.008C152.364 39.328 152.188 39.728 152.188 40.208C152.188 40.752 152.404 41.184 152.836 41.504C153.268 41.824 153.868 41.984 154.636 41.984C155.372 41.984 156.028 41.816 156.604 41.48C157.196 41.144 157.62 40.648 157.876 39.992L158.38 41.792C158.092 42.544 157.572 43.128 156.82 43.544C156.084 43.96 155.148 44.168 154.012 44.168ZM171.998 31.04C173.022 31.04 173.934 31.24 174.734 31.64C175.55 32.04 176.19 32.656 176.654 33.488C177.118 34.304 177.35 35.36 177.35 36.656V44H174.35V37.04C174.35 35.904 174.078 35.056 173.534 34.496C173.006 33.936 172.262 33.656 171.302 33.656C170.598 33.656 169.974 33.8 169.43 34.088C168.886 34.376 168.462 34.808 168.158 35.384C167.87 35.944 167.726 36.656 167.726 37.52V44H164.726V31.184H167.582V34.64L167.078 33.584C167.526 32.768 168.174 32.144 169.022 31.712C169.886 31.264 170.878 31.04 171.998 31.04ZM185.116 44.168C184.044 44.168 183.012 44.032 182.02 43.76C181.044 43.472 180.268 43.128 179.692 42.728L180.844 40.448C181.42 40.816 182.108 41.12 182.908 41.36C183.708 41.6 184.508 41.72 185.308 41.72C186.252 41.72 186.932 41.592 187.348 41.336C187.78 41.08 187.996 40.736 187.996 40.304C187.996 39.952 187.852 39.688 187.564 39.512C187.276 39.32 186.9 39.176 186.436 39.08C185.972 38.984 185.452 38.896 184.876 38.816C184.316 38.736 183.748 38.632 183.172 38.504C182.612 38.36 182.1 38.16 181.636 37.904C181.172 37.632 180.796 37.272 180.508 36.824C180.22 36.376 180.076 35.784 180.076 35.048C180.076 34.232 180.308 33.528 180.771 32.936C181.236 32.328 181.884 31.864 182.715 31.544C183.564 31.208 184.564 31.04 185.716 31.04C186.58 31.04 187.452 31.136 188.332 31.328C189.212 31.52 189.94 31.792 190.516 32.144L189.364 34.424C188.756 34.056 188.14 33.808 187.516 33.68C186.908 33.536 186.3 33.464 185.692 33.464C184.78 33.464 184.1 33.6 183.652 33.872C183.22 34.144 183.004 34.488 183.004 34.904C183.004 35.288 183.148 35.576 183.436 35.768C183.724 35.96 184.1 36.112 184.564 36.224C185.028 36.336 185.54 36.432 186.1 36.512C186.676 36.576 187.244 36.68 187.804 36.824C188.364 36.968 188.876 37.168 189.34 37.424C189.82 37.664 190.204 38.008 190.492 38.456C190.78 38.904 190.924 39.488 190.924 40.208C190.924 41.008 190.684 41.704 190.204 42.296C189.74 42.888 189.076 43.352 188.212 43.688C187.348 44.008 186.316 44.168 185.116 44.168ZM193.915 44V30.464C193.915 29.12 194.307 28.048 195.091 27.248C195.891 26.432 197.027 26.024 198.499 26.024C199.027 26.024 199.523 26.08 199.987 26.192C200.467 26.304 200.867 26.48 201.187 26.72L200.371 28.976C200.147 28.8 199.891 28.672 199.603 28.592C199.315 28.496 199.019 28.448 198.715 28.448C198.091 28.448 197.619 28.624 197.299 28.976C196.979 29.312 196.819 29.824 196.819 30.512V31.952L196.915 33.296V44H193.915ZM191.803 33.68V31.28H200.347V33.68H191.803ZM208.203 44.168C206.779 44.168 205.531 43.888 204.459 43.328C203.403 42.752 202.579 41.968 201.987 40.976C201.411 39.984 201.123 38.856 201.123 37.592C201.123 36.312 201.403 35.184 201.963 34.208C202.539 33.216 203.323 32.44 204.315 31.88C205.323 31.32 206.467 31.04 207.747 31.04C208.995 31.04 210.107 31.312 211.083 31.856C212.059 32.4 212.827 33.168 213.387 34.16C213.947 35.152 214.227 36.32 214.227 37.664C214.227 37.792 214.219 37.936 214.203 38.096C214.203 38.256 214.195 38.408 214.179 38.552H203.499V36.56H212.595L211.419 37.184C211.435 36.448 211.283 35.8 210.963 35.24C210.643 34.68 210.203 34.24 209.643 33.92C209.099 33.6 208.467 33.44 207.747 33.44C207.011 33.44 206.363 33.6 205.803 33.92C205.259 34.24 204.827 34.688 204.507 35.264C204.203 35.824 204.051 36.488 204.051 37.256V37.736C204.051 38.504 204.227 39.184 204.579 39.776C204.931 40.368 205.427 40.824 206.067 41.144C206.707 41.464 207.443 41.624 208.275 41.624C208.995 41.624 209.643 41.512 210.219 41.288C210.795 41.064 211.307 40.712 211.755 40.232L213.363 42.08C212.787 42.752 212.059 43.272 211.179 43.64C210.315 43.992 209.323 44.168 208.203 44.168ZM217.109 44V31.184H219.965V34.712L219.629 33.68C220.013 32.816 220.613 32.16 221.429 31.712C222.261 31.264 223.293 31.04 224.525 31.04V33.896C224.397 33.864 224.277 33.848 224.165 33.848C224.053 33.832 223.941 33.824 223.829 33.824C222.693 33.824 221.789 34.16 221.117 34.832C220.445 35.488 220.109 36.472 220.109 37.784V44H217.109ZM234.108 44V27.2H237.228V41.36H246.012V44H234.108ZM248.187 44V31.184H251.187V44H248.187ZM249.699 29.072C249.139 29.072 248.675 28.896 248.307 28.544C247.955 28.192 247.779 27.768 247.779 27.272C247.779 26.76 247.955 26.336 248.307 26C248.675 25.648 249.139 25.472 249.699 25.472C250.259 25.472 250.715 25.64 251.067 25.976C251.435 26.296 251.619 26.704 251.619 27.2C251.619 27.728 251.443 28.176 251.091 28.544C250.739 28.896 250.275 29.072 249.699 29.072ZM259.084 44.168C258.012 44.168 256.98 44.032 255.988 43.76C255.012 43.472 254.236 43.128 253.66 42.728L254.812 40.448C255.388 40.816 256.076 41.12 256.876 41.36C257.676 41.6 258.476 41.72 259.276 41.72C260.22 41.72 260.9 41.592 261.316 41.336C261.748 41.08 261.964 40.736 261.964 40.304C261.964 39.952 261.82 39.688 261.532 39.512C261.244 39.32 260.868 39.176 260.404 39.08C259.94 38.984 259.42 38.896 258.844 38.816C258.284 38.736 257.716 38.632 257.14 38.504C256.58 38.36 256.068 38.16 255.604 37.904C255.14 37.632 254.764 37.272 254.476 36.824C254.188 36.376 254.044 35.784 254.044 35.048C254.044 34.232 254.276 33.528 254.74 32.936C255.204 32.328 255.852 31.864 256.684 31.544C257.532 31.208 258.532 31.04 259.684 31.04C260.548 31.04 261.42 31.136 262.3 31.328C263.18 31.52 263.908 31.792 264.484 32.144L263.332 34.424C262.724 34.056 262.108 33.808 261.484 33.68C260.876 33.536 260.268 33.464 259.66 33.464C258.748 33.464 258.068 33.6 257.62 33.872C257.188 34.144 256.972 34.488 256.972 34.904C256.972 35.288 257.116 35.576 257.404 35.768C257.692 35.96 258.068 36.112 258.532 36.224C258.996 36.336 259.508 36.432 260.068 36.512C260.644 36.576 261.212 36.68 261.772 36.824C262.332 36.968 262.844 37.168 263.308 37.424C263.788 37.664 264.172 38.008 264.46 38.456C264.748 38.904 264.892 39.488 264.892 40.208C264.892 41.008 264.652 41.704 264.172 42.296C263.708 42.888 263.044 43.352 262.18 43.688C261.316 44.008 260.284 44.168 259.084 44.168ZM272.3 44.168C270.892 44.168 269.804 43.808 269.036 43.088C268.268 42.352 267.884 41.272 267.884 39.848V28.352H270.884V39.776C270.884 40.384 271.036 40.856 271.34 41.192C271.66 41.528 272.1 41.696 272.66 41.696C273.332 41.696 273.892 41.52 274.34 41.168L275.18 43.304C274.828 43.592 274.396 43.808 273.884 43.952C273.372 44.096 272.844 44.168 272.3 44.168ZM265.772 33.68V31.28H274.316V33.68H265.772Z" fill="#285496"/>
</g>
<defs>
<filter id="filter0_d_261_7817" x="-4" y="0" width="422" height="75" filterUnits="userSpaceOnUse" color-interpolation-filters="sRGB">
<feFlood flood-opacity="0" result="BackgroundImageFix"/>
<feColorMatrix in="SourceAlpha" type="matrix" values="0 0 0 0 0 0 0 0 0 0 0 0 0 0 0 0 0 0 127 0" result="hardAlpha"/>
<feOffset dy="4"/>
<feGaussianBlur stdDeviation="2"/>
<feComposite in2="hardAlpha" operator="out"/>
<feColorMatrix type="matrix" values="0 0 0 0 0 0 0 0 0 0 0 0 0 0 0 0 0 0 0.25 0"/>
<feBlend mode="normal" in2="BackgroundImageFix" result="effect1_dropShadow_261_7817"/>
<feBlend mode="normal" in="SourceGraphic" in2="effect1_dropShadow_261_7817" result="shape"/>
</filter>
</defs>
</svg>
