<svg width="57" height="11" viewBox="0 0 57 11" fill="none" xmlns="http://www.w3.org/2000/svg">
<path d="M0.128 10V1.6H1.412L6.68 8.068H6.044V1.6H7.592V10H6.308L1.04 3.532H1.676V10H0.128ZM12.5788 10.084C11.9228 10.084 11.3388 9.944 10.8268 9.664C10.3148 9.376 9.91084 8.984 9.61484 8.488C9.31884 7.992 9.17084 7.428 9.17084 6.796C9.17084 6.156 9.31884 5.592 9.61484 5.104C9.91084 4.608 10.3148 4.22 10.8268 3.94C11.3388 3.66 11.9228 3.52 12.5788 3.52C13.2428 3.52 13.8308 3.66 14.3428 3.94C14.8628 4.22 15.2668 4.604 15.5548 5.092C15.8508 5.58 15.9988 6.148 15.9988 6.796C15.9988 7.428 15.8508 7.992 15.5548 8.488C15.2668 8.984 14.8628 9.376 14.3428 9.664C13.8308 9.944 13.2428 10.084 12.5788 10.084ZM12.5788 8.8C12.9468 8.8 13.2748 8.72 13.5628 8.56C13.8508 8.4 14.0748 8.168 14.2348 7.864C14.4028 7.56 14.4868 7.204 14.4868 6.796C14.4868 6.38 14.4028 6.024 14.2348 5.728C14.0748 5.424 13.8508 5.192 13.5628 5.032C13.2748 4.872 12.9508 4.792 12.5908 4.792C12.2228 4.792 11.8948 4.872 11.6068 5.032C11.3268 5.192 11.1028 5.424 10.9348 5.728C10.7668 6.024 10.6828 6.38 10.6828 6.796C10.6828 7.204 10.7668 7.56 10.9348 7.864C11.1028 8.168 11.3268 8.4 11.6068 8.56C11.8948 8.72 12.2188 8.8 12.5788 8.8ZM19.8452 10.084C19.1412 10.084 18.5972 9.904 18.2132 9.544C17.8292 9.176 17.6372 8.636 17.6372 7.924V2.176H19.1372V7.888C19.1372 8.192 19.2132 8.428 19.3652 8.596C19.5252 8.764 19.7452 8.848 20.0252 8.848C20.3612 8.848 20.6412 8.76 20.8652 8.584L21.2852 9.652C21.1092 9.796 20.8932 9.904 20.6372 9.976C20.3812 10.048 20.1172 10.084 19.8452 10.084ZM16.5812 4.84V3.64H20.8532V4.84H16.5812ZM22.5192 10V3.592H24.0192V10H22.5192ZM23.2752 2.536C22.9952 2.536 22.7632 2.448 22.5792 2.272C22.4032 2.096 22.3152 1.884 22.3152 1.636C22.3152 1.38 22.4032 1.168 22.5792 0.999999C22.7632 0.824 22.9952 0.736 23.2752 0.736C23.5552 0.736 23.7832 0.82 23.9592 0.987999C24.1432 1.148 24.2352 1.352 24.2352 1.6C24.2352 1.864 24.1472 2.088 23.9712 2.272C23.7952 2.448 23.5632 2.536 23.2752 2.536ZM26.1919 10V3.232C26.1919 2.56 26.3879 2.024 26.7799 1.624C27.1799 1.216 27.7479 1.012 28.4839 1.012C28.7479 1.012 28.9959 1.04 29.2279 1.096C29.4679 1.152 29.6679 1.24 29.8279 1.36L29.4199 2.488C29.3079 2.4 29.1799 2.336 29.0359 2.296C28.8919 2.248 28.7439 2.224 28.5919 2.224C28.2799 2.224 28.0439 2.312 27.8839 2.488C27.7239 2.656 27.6439 2.912 27.6439 3.256V3.976L27.6919 4.648V10H26.1919ZM25.1359 4.84V3.64H29.4079V4.84H25.1359ZM30.4639 10V3.592H31.9639V10H30.4639ZM31.2199 2.536C30.9399 2.536 30.7079 2.448 30.5239 2.272C30.3479 2.096 30.2599 1.884 30.2599 1.636C30.2599 1.38 30.3479 1.168 30.5239 0.999999C30.7079 0.824 30.9399 0.736 31.2199 0.736C31.4999 0.736 31.7279 0.82 31.9039 0.987999C32.0879 1.148 32.1799 1.352 32.1799 1.6C32.1799 1.864 32.0919 2.088 31.9159 2.272C31.7399 2.448 31.5079 2.536 31.2199 2.536ZM35.1572 8.572L35.1932 6.688L38.5412 3.592H40.3412L37.4972 6.448L36.7052 7.108L35.1572 8.572ZM33.9332 10V1.096H35.4332V10H33.9332ZM38.7692 10L36.4292 7.108L37.3772 5.908L40.5932 10H38.7692ZM45.3929 10V8.704L45.3089 8.428V6.16C45.3089 5.72 45.1769 5.38 44.9129 5.14C44.6489 4.892 44.2489 4.768 43.7129 4.768C43.3529 4.768 42.9969 4.824 42.6449 4.936C42.3009 5.048 42.0089 5.204 41.7689 5.404L41.1809 4.312C41.5249 4.048 41.9329 3.852 42.4049 3.724C42.8849 3.588 43.3809 3.52 43.8929 3.52C44.8209 3.52 45.5369 3.744 46.0409 4.192C46.5529 4.632 46.8089 5.316 46.8089 6.244V10H45.3929ZM43.3769 10.084C42.8969 10.084 42.4769 10.004 42.1169 9.844C41.7569 9.676 41.4769 9.448 41.2769 9.16C41.0849 8.864 40.9889 8.532 40.9889 8.164C40.9889 7.804 41.0729 7.48 41.2409 7.192C41.4169 6.904 41.7009 6.676 42.0929 6.508C42.4849 6.34 43.0049 6.256 43.6529 6.256H45.5129V7.252H43.7609C43.2489 7.252 42.9049 7.336 42.7289 7.504C42.5529 7.664 42.4649 7.864 42.4649 8.104C42.4649 8.376 42.5729 8.592 42.7889 8.752C43.0049 8.912 43.3049 8.992 43.6889 8.992C44.0569 8.992 44.3849 8.908 44.6729 8.74C44.9689 8.572 45.1809 8.324 45.3089 7.996L45.5609 8.896C45.4169 9.272 45.1569 9.564 44.7809 9.772C44.4129 9.98 43.9449 10.084 43.3769 10.084ZM50.714 10.084C50.178 10.084 49.662 10.016 49.166 9.88C48.678 9.736 48.29 9.564 48.002 9.364L48.578 8.224C48.866 8.408 49.21 8.56 49.61 8.68C50.01 8.8 50.41 8.86 50.81 8.86C51.282 8.86 51.622 8.796 51.83 8.668C52.046 8.54 52.154 8.368 52.154 8.152C52.154 7.976 52.082 7.844 51.938 7.756C51.794 7.66 51.606 7.588 51.374 7.54C51.142 7.492 50.882 7.448 50.594 7.408C50.314 7.368 50.03 7.316 49.742 7.252C49.462 7.18 49.206 7.08 48.974 6.952C48.742 6.816 48.554 6.636 48.41 6.412C48.266 6.188 48.194 5.892 48.194 5.524C48.194 5.116 48.31 4.764 48.542 4.468C48.774 4.164 49.098 3.932 49.514 3.772C49.938 3.604 50.438 3.52 51.014 3.52C51.446 3.52 51.882 3.568 52.322 3.664C52.762 3.76 53.126 3.896 53.414 4.072L52.838 5.212C52.534 5.028 52.226 4.904 51.914 4.84C51.61 4.768 51.306 4.732 51.002 4.732C50.546 4.732 50.206 4.8 49.982 4.936C49.766 5.072 49.658 5.244 49.658 5.452C49.658 5.644 49.73 5.788 49.874 5.884C50.018 5.98 50.206 6.056 50.438 6.112C50.67 6.168 50.926 6.216 51.206 6.256C51.494 6.288 51.778 6.34 52.058 6.412C52.338 6.484 52.594 6.584 52.826 6.712C53.066 6.832 53.258 7.004 53.402 7.228C53.546 7.452 53.618 7.744 53.618 8.104C53.618 8.504 53.498 8.852 53.258 9.148C53.026 9.444 52.694 9.676 52.262 9.844C51.83 10.004 51.314 10.084 50.714 10.084ZM54.9098 10V3.592H56.4098V10H54.9098ZM55.6658 2.536C55.3858 2.536 55.1538 2.448 54.9698 2.272C54.7938 2.096 54.7058 1.884 54.7058 1.636C54.7058 1.38 54.7938 1.168 54.9698 0.999999C55.1538 0.824 55.3858 0.736 55.6658 0.736C55.9458 0.736 56.1738 0.82 56.3498 0.987999C56.5338 1.148 56.6258 1.352 56.6258 1.6C56.6258 1.864 56.5378 2.088 56.3618 2.272C56.1858 2.448 55.9538 2.536 55.6658 2.536Z" fill="#AAA4C2"/>
</svg>
