<svg width="57" height="11" viewBox="0 0 57 11" fill="none" xmlns="http://www.w3.org/2000/svg">
<path d="M2.832 10V2.92H0.048V1.6H7.176V2.92H4.392V10H2.832ZM8.05041 10V3.592H9.47841V5.356L9.31041 4.84C9.50241 4.408 9.80241 4.08 10.2104 3.856C10.6264 3.632 11.1424 3.52 11.7584 3.52V4.948C11.6944 4.932 11.6344 4.924 11.5784 4.924C11.5224 4.916 11.4664 4.912 11.4104 4.912C10.8424 4.912 10.3904 5.08 10.0544 5.416C9.71841 5.744 9.55041 6.236 9.55041 6.892V10H8.05041ZM16.5218 10V8.704L16.4378 8.428V6.16C16.4378 5.72 16.3058 5.38 16.0418 5.14C15.7778 4.892 15.3778 4.768 14.8418 4.768C14.4818 4.768 14.1258 4.824 13.7738 4.936C13.4298 5.048 13.1378 5.204 12.8978 5.404L12.3098 4.312C12.6538 4.048 13.0618 3.852 13.5338 3.724C14.0138 3.588 14.5098 3.52 15.0218 3.52C15.9498 3.52 16.6658 3.744 17.1698 4.192C17.6818 4.632 17.9378 5.316 17.9378 6.244V10H16.5218ZM14.5058 10.084C14.0258 10.084 13.6058 10.004 13.2458 9.844C12.8858 9.676 12.6058 9.448 12.4058 9.16C12.2138 8.864 12.1178 8.532 12.1178 8.164C12.1178 7.804 12.2018 7.48 12.3698 7.192C12.5458 6.904 12.8298 6.676 13.2218 6.508C13.6138 6.34 14.1338 6.256 14.7818 6.256H16.6418V7.252H14.8898C14.3778 7.252 14.0338 7.336 13.8578 7.504C13.6818 7.664 13.5938 7.864 13.5938 8.104C13.5938 8.376 13.7018 8.592 13.9178 8.752C14.1338 8.912 14.4338 8.992 14.8178 8.992C15.1858 8.992 15.5138 8.908 15.8018 8.74C16.0978 8.572 16.3098 8.324 16.4378 7.996L16.6898 8.896C16.5458 9.272 16.2858 9.564 15.9098 9.772C15.5418 9.98 15.0738 10.084 14.5058 10.084ZM23.4989 3.52C24.0109 3.52 24.4669 3.62 24.8669 3.82C25.2749 4.02 25.5949 4.328 25.8269 4.744C26.0589 5.152 26.1749 5.68 26.1749 6.328V10H24.6749V6.52C24.6749 5.952 24.5389 5.528 24.2669 5.248C24.0029 4.968 23.6309 4.828 23.1509 4.828C22.7989 4.828 22.4869 4.9 22.2149 5.044C21.9429 5.188 21.7309 5.404 21.5789 5.692C21.4349 5.972 21.3629 6.328 21.3629 6.76V10H19.8629V3.592H21.2909V5.32L21.0389 4.792C21.2629 4.384 21.5869 4.072 22.0109 3.856C22.4429 3.632 22.9389 3.52 23.4989 3.52ZM30.0578 10.084C29.5218 10.084 29.0058 10.016 28.5098 9.88C28.0218 9.736 27.6338 9.564 27.3458 9.364L27.9218 8.224C28.2098 8.408 28.5538 8.56 28.9538 8.68C29.3538 8.8 29.7538 8.86 30.1538 8.86C30.6258 8.86 30.9658 8.796 31.1738 8.668C31.3898 8.54 31.4978 8.368 31.4978 8.152C31.4978 7.976 31.4258 7.844 31.2818 7.756C31.1378 7.66 30.9498 7.588 30.7178 7.54C30.4858 7.492 30.2258 7.448 29.9378 7.408C29.6578 7.368 29.3738 7.316 29.0858 7.252C28.8058 7.18 28.5498 7.08 28.3178 6.952C28.0858 6.816 27.8978 6.636 27.7538 6.412C27.6098 6.188 27.5378 5.892 27.5378 5.524C27.5378 5.116 27.6538 4.764 27.8857 4.468C28.1178 4.164 28.4418 3.932 28.8577 3.772C29.2818 3.604 29.7818 3.52 30.3578 3.52C30.7898 3.52 31.2258 3.568 31.6658 3.664C32.1058 3.76 32.4698 3.896 32.7578 4.072L32.1818 5.212C31.8778 5.028 31.5698 4.904 31.2578 4.84C30.9538 4.768 30.6498 4.732 30.3458 4.732C29.8898 4.732 29.5498 4.8 29.3258 4.936C29.1098 5.072 29.0018 5.244 29.0018 5.452C29.0018 5.644 29.0738 5.788 29.2178 5.884C29.3618 5.98 29.5498 6.056 29.7818 6.112C30.0138 6.168 30.2698 6.216 30.5498 6.256C30.8378 6.288 31.1218 6.34 31.4018 6.412C31.6818 6.484 31.9378 6.584 32.1698 6.712C32.4098 6.832 32.6018 7.004 32.7458 7.228C32.8898 7.452 32.9618 7.744 32.9618 8.104C32.9618 8.504 32.8418 8.852 32.6018 9.148C32.3698 9.444 32.0378 9.676 31.6058 9.844C31.1738 10.004 30.6578 10.084 30.0578 10.084ZM38.2015 10V8.704L38.1175 8.428V6.16C38.1175 5.72 37.9855 5.38 37.7215 5.14C37.4575 4.892 37.0575 4.768 36.5215 4.768C36.1615 4.768 35.8055 4.824 35.4535 4.936C35.1095 5.048 34.8175 5.204 34.5775 5.404L33.9895 4.312C34.3335 4.048 34.7415 3.852 35.2135 3.724C35.6935 3.588 36.1895 3.52 36.7015 3.52C37.6295 3.52 38.3455 3.744 38.8495 4.192C39.3615 4.632 39.6175 5.316 39.6175 6.244V10H38.2015ZM36.1855 10.084C35.7055 10.084 35.2855 10.004 34.9255 9.844C34.5655 9.676 34.2855 9.448 34.0855 9.16C33.8935 8.864 33.7975 8.532 33.7975 8.164C33.7975 7.804 33.8815 7.48 34.0495 7.192C34.2255 6.904 34.5095 6.676 34.9015 6.508C35.2935 6.34 35.8135 6.256 36.4615 6.256H38.3215V7.252H36.5695C36.0575 7.252 35.7135 7.336 35.5375 7.504C35.3615 7.664 35.2735 7.864 35.2735 8.104C35.2735 8.376 35.3815 8.592 35.5975 8.752C35.8135 8.912 36.1135 8.992 36.4975 8.992C36.8655 8.992 37.1935 8.908 37.4815 8.74C37.7775 8.572 37.9895 8.324 38.1175 7.996L38.3695 8.896C38.2255 9.272 37.9655 9.564 37.5895 9.772C37.2215 9.98 36.7535 10.084 36.1855 10.084ZM42.7666 8.572L42.8026 6.688L46.1506 3.592H47.9506L45.1066 6.448L44.3146 7.108L42.7666 8.572ZM41.5426 10V1.096H43.0426V10H41.5426ZM46.3786 10L44.0386 7.108L44.9866 5.908L48.2026 10H46.3786ZM50.9523 10.084C50.4163 10.084 49.9003 10.016 49.4043 9.88C48.9163 9.736 48.5283 9.564 48.2403 9.364L48.8163 8.224C49.1043 8.408 49.4483 8.56 49.8483 8.68C50.2483 8.8 50.6483 8.86 51.0483 8.86C51.5203 8.86 51.8603 8.796 52.0683 8.668C52.2843 8.54 52.3923 8.368 52.3923 8.152C52.3923 7.976 52.3203 7.844 52.1763 7.756C52.0323 7.66 51.8443 7.588 51.6123 7.54C51.3803 7.492 51.1203 7.448 50.8323 7.408C50.5523 7.368 50.2683 7.316 49.9803 7.252C49.7003 7.18 49.4443 7.08 49.2123 6.952C48.9803 6.816 48.7923 6.636 48.6483 6.412C48.5043 6.188 48.4323 5.892 48.4323 5.524C48.4323 5.116 48.5483 4.764 48.7803 4.468C49.0123 4.164 49.3363 3.932 49.7523 3.772C50.1763 3.604 50.6763 3.52 51.2523 3.52C51.6843 3.52 52.1203 3.568 52.5603 3.664C53.0003 3.76 53.3643 3.896 53.6523 4.072L53.0763 5.212C52.7723 5.028 52.4643 4.904 52.1523 4.84C51.8483 4.768 51.5443 4.732 51.2403 4.732C50.7843 4.732 50.4443 4.8 50.2203 4.936C50.0043 5.072 49.8963 5.244 49.8963 5.452C49.8963 5.644 49.9683 5.788 50.1123 5.884C50.2563 5.98 50.4443 6.056 50.6763 6.112C50.9083 6.168 51.1643 6.216 51.4443 6.256C51.7323 6.288 52.0163 6.34 52.2963 6.412C52.5763 6.484 52.8323 6.584 53.0643 6.712C53.3043 6.832 53.4963 7.004 53.6403 7.228C53.7843 7.452 53.8563 7.744 53.8563 8.104C53.8563 8.504 53.7363 8.852 53.4963 9.148C53.2643 9.444 52.9323 9.676 52.5003 9.844C52.0683 10.004 51.5523 10.084 50.9523 10.084ZM55.1481 10V3.592H56.6481V10H55.1481ZM55.9041 2.536C55.6241 2.536 55.3921 2.448 55.2081 2.272C55.0321 2.096 54.9441 1.884 54.9441 1.636C54.9441 1.38 55.0321 1.168 55.2081 0.999999C55.3921 0.824 55.6241 0.736 55.9041 0.736C56.1841 0.736 56.4121 0.82 56.5881 0.987999C56.7721 1.148 56.8641 1.352 56.8641 1.6C56.8641 1.864 56.7761 2.088 56.6001 2.272C56.4241 2.448 56.1921 2.536 55.9041 2.536Z" fill="#AAA4C2"/>
</svg>
