<svg width="362" height="114" viewBox="0 0 362 114" fill="none" xmlns="http://www.w3.org/2000/svg">
<g filter="url(#filter0_d_650_7610)">
<path d="M182.5 0.5H346C352.904 0.5 358.5 6.09644 358.5 13V34C358.5 40.9036 352.904 46.5 346 46.5H182.5V0.5Z" fill="#CCD1FF" stroke="#030C5F"/>
<path d="M221.222 28V18.9H225.2C226.188 18.9 227.055 19.0907 227.8 19.472C228.545 19.8533 229.126 20.382 229.542 21.058C229.958 21.734 230.166 22.5313 230.166 23.45C230.166 24.36 229.958 25.1573 229.542 25.842C229.126 26.518 228.545 27.0467 227.8 27.428C227.055 27.8093 226.188 28 225.2 28H221.222ZM222.912 26.57H225.122C225.807 26.57 226.396 26.44 226.89 26.18C227.393 25.92 227.778 25.556 228.047 25.088C228.324 24.62 228.463 24.074 228.463 23.45C228.463 22.8173 228.324 22.2713 228.047 21.812C227.778 21.344 227.393 20.98 226.89 20.72C226.396 20.46 225.807 20.33 225.122 20.33H222.912V26.57ZM236.083 28V26.596L235.992 26.297V23.84C235.992 23.3633 235.849 22.995 235.563 22.735C235.277 22.4663 234.844 22.332 234.263 22.332C233.873 22.332 233.488 22.3927 233.106 22.514C232.734 22.6353 232.417 22.8043 232.157 23.021L231.52 21.838C231.893 21.552 232.335 21.3397 232.846 21.201C233.366 21.0537 233.904 20.98 234.458 20.98C235.464 20.98 236.239 21.2227 236.785 21.708C237.34 22.1847 237.617 22.9257 237.617 23.931V28H236.083ZM233.899 28.091C233.379 28.091 232.924 28.0043 232.534 27.831C232.144 27.649 231.841 27.402 231.624 27.09C231.416 26.7693 231.312 26.4097 231.312 26.011C231.312 25.621 231.403 25.27 231.585 24.958C231.776 24.646 232.084 24.399 232.508 24.217C232.933 24.035 233.496 23.944 234.198 23.944H236.213V25.023H234.315C233.761 25.023 233.388 25.114 233.197 25.296C233.007 25.4693 232.911 25.686 232.911 25.946C232.911 26.2407 233.028 26.4747 233.262 26.648C233.496 26.8213 233.821 26.908 234.237 26.908C234.636 26.908 234.991 26.817 235.303 26.635C235.624 26.453 235.854 26.1843 235.992 25.829L236.265 26.804C236.109 27.2113 235.828 27.5277 235.42 27.753C235.022 27.9783 234.515 28.091 233.899 28.091ZM239.924 28V20.668C239.924 19.94 240.136 19.3593 240.561 18.926C240.994 18.484 241.609 18.263 242.407 18.263C242.693 18.263 242.961 18.2933 243.213 18.354C243.473 18.4147 243.689 18.51 243.863 18.64L243.421 19.862C243.299 19.7667 243.161 19.6973 243.005 19.654C242.849 19.602 242.688 19.576 242.524 19.576C242.186 19.576 241.93 19.6713 241.757 19.862C241.583 20.044 241.497 20.3213 241.497 20.694V21.474L241.549 22.202V28H239.924ZM238.78 22.41V21.11H243.408V22.41H238.78ZM247.115 28.091C246.352 28.091 245.763 27.896 245.347 27.506C244.931 27.1073 244.723 26.5223 244.723 25.751V19.524H246.348V25.712C246.348 26.0413 246.43 26.297 246.595 26.479C246.768 26.661 247.006 26.752 247.31 26.752C247.674 26.752 247.977 26.6567 248.22 26.466L248.675 27.623C248.484 27.779 248.25 27.896 247.973 27.974C247.695 28.052 247.409 28.091 247.115 28.091ZM243.579 22.41V21.11H248.207V22.41H243.579ZM254.288 28V26.596L254.197 26.297V23.84C254.197 23.3633 254.054 22.995 253.768 22.735C253.482 22.4663 253.049 22.332 252.468 22.332C252.078 22.332 251.693 22.3927 251.311 22.514C250.939 22.6353 250.622 22.8043 250.362 23.021L249.725 21.838C250.098 21.552 250.54 21.3397 251.051 21.201C251.571 21.0537 252.109 20.98 252.663 20.98C253.669 20.98 254.444 21.2227 254.99 21.708C255.545 22.1847 255.822 22.9257 255.822 23.931V28H254.288ZM252.104 28.091C251.584 28.091 251.129 28.0043 250.739 27.831C250.349 27.649 250.046 27.402 249.829 27.09C249.621 26.7693 249.517 26.4097 249.517 26.011C249.517 25.621 249.608 25.27 249.79 24.958C249.981 24.646 250.289 24.399 250.713 24.217C251.138 24.035 251.701 23.944 252.403 23.944H254.418V25.023H252.52C251.966 25.023 251.593 25.114 251.402 25.296C251.212 25.4693 251.116 25.686 251.116 25.946C251.116 26.2407 251.233 26.4747 251.467 26.648C251.701 26.8213 252.026 26.908 252.442 26.908C252.841 26.908 253.196 26.817 253.508 26.635C253.829 26.453 254.059 26.1843 254.197 25.829L254.47 26.804C254.314 27.2113 254.033 27.5277 253.625 27.753C253.227 27.9783 252.72 28.091 252.104 28.091ZM257.908 28V21.058H259.455V22.969L259.273 22.41C259.481 21.942 259.806 21.5867 260.248 21.344C260.698 21.1013 261.257 20.98 261.925 20.98V22.527C261.855 22.5097 261.79 22.501 261.73 22.501C261.669 22.4923 261.608 22.488 261.548 22.488C260.932 22.488 260.443 22.67 260.079 23.034C259.715 23.3893 259.533 23.9223 259.533 24.633V28H257.908ZM268.962 28V20.33H265.946V18.9H273.668V20.33H270.652V28H268.962ZM274.615 28V21.058H276.162V22.969L275.98 22.41C276.188 21.942 276.513 21.5867 276.955 21.344C277.405 21.1013 277.964 20.98 278.632 20.98V22.527C278.562 22.5097 278.497 22.501 278.437 22.501C278.376 22.4923 278.315 22.488 278.255 22.488C277.639 22.488 277.15 22.67 276.786 23.034C276.422 23.3893 276.24 23.9223 276.24 24.633V28H274.615ZM283.792 28V26.596L283.701 26.297V23.84C283.701 23.3633 283.558 22.995 283.272 22.735C282.986 22.4663 282.553 22.332 281.972 22.332C281.582 22.332 281.197 22.3927 280.815 22.514C280.443 22.6353 280.126 22.8043 279.866 23.021L279.229 21.838C279.602 21.552 280.044 21.3397 280.555 21.201C281.075 21.0537 281.613 20.98 282.167 20.98C283.173 20.98 283.948 21.2227 284.494 21.708C285.049 22.1847 285.326 22.9257 285.326 23.931V28H283.792ZM281.608 28.091C281.088 28.091 280.633 28.0043 280.243 27.831C279.853 27.649 279.55 27.402 279.333 27.09C279.125 26.7693 279.021 26.4097 279.021 26.011C279.021 25.621 279.112 25.27 279.294 24.958C279.485 24.646 279.793 24.399 280.217 24.217C280.642 24.035 281.205 23.944 281.907 23.944H283.922V25.023H282.024C281.47 25.023 281.097 25.114 280.906 25.296C280.716 25.4693 280.62 25.686 280.62 25.946C280.62 26.2407 280.737 26.4747 280.971 26.648C281.205 26.8213 281.53 26.908 281.946 26.908C282.345 26.908 282.7 26.817 283.012 26.635C283.333 26.453 283.563 26.1843 283.701 25.829L283.974 26.804C283.818 27.2113 283.537 27.5277 283.129 27.753C282.731 27.9783 282.224 28.091 281.608 28.091ZM291.351 20.98C291.905 20.98 292.399 21.0883 292.833 21.305C293.275 21.5217 293.621 21.8553 293.873 22.306C294.124 22.748 294.25 23.32 294.25 24.022V28H292.625V24.23C292.625 23.6147 292.477 23.1553 292.183 22.852C291.897 22.5487 291.494 22.397 290.974 22.397C290.592 22.397 290.254 22.475 289.96 22.631C289.665 22.787 289.435 23.021 289.271 23.333C289.115 23.6363 289.037 24.022 289.037 24.49V28H287.412V21.058H288.959V22.93L288.686 22.358C288.928 21.916 289.279 21.578 289.739 21.344C290.207 21.1013 290.744 20.98 291.351 20.98ZM298.456 28.091C297.875 28.091 297.316 28.0173 296.779 27.87C296.25 27.714 295.83 27.5277 295.518 27.311L296.142 26.076C296.454 26.2753 296.827 26.44 297.26 26.57C297.693 26.7 298.127 26.765 298.56 26.765C299.071 26.765 299.44 26.6957 299.665 26.557C299.899 26.4183 300.016 26.232 300.016 25.998C300.016 25.8073 299.938 25.6643 299.782 25.569C299.626 25.465 299.422 25.387 299.171 25.335C298.92 25.283 298.638 25.2353 298.326 25.192C298.023 25.1487 297.715 25.0923 297.403 25.023C297.1 24.945 296.822 24.8367 296.571 24.698C296.32 24.5507 296.116 24.3557 295.96 24.113C295.804 23.8703 295.726 23.5497 295.726 23.151C295.726 22.709 295.852 22.3277 296.103 22.007C296.354 21.6777 296.705 21.4263 297.156 21.253C297.615 21.071 298.157 20.98 298.781 20.98C299.249 20.98 299.721 21.032 300.198 21.136C300.675 21.24 301.069 21.3873 301.381 21.578L300.757 22.813C300.428 22.6137 300.094 22.4793 299.756 22.41C299.427 22.332 299.097 22.293 298.768 22.293C298.274 22.293 297.906 22.3667 297.663 22.514C297.429 22.6613 297.312 22.8477 297.312 23.073C297.312 23.281 297.39 23.437 297.546 23.541C297.702 23.645 297.906 23.7273 298.157 23.788C298.408 23.8487 298.686 23.9007 298.989 23.944C299.301 23.9787 299.609 24.035 299.912 24.113C300.215 24.191 300.493 24.2993 300.744 24.438C301.004 24.568 301.212 24.7543 301.368 24.997C301.524 25.2397 301.602 25.556 301.602 25.946C301.602 26.3793 301.472 26.7563 301.212 27.077C300.961 27.3977 300.601 27.649 300.133 27.831C299.665 28.0043 299.106 28.091 298.456 28.091ZM303.223 28V20.668C303.223 19.94 303.435 19.3593 303.86 18.926C304.293 18.484 304.908 18.263 305.706 18.263C305.992 18.263 306.26 18.2933 306.512 18.354C306.772 18.4147 306.988 18.51 307.162 18.64L306.72 19.862C306.598 19.7667 306.46 19.6973 306.304 19.654C306.148 19.602 305.987 19.576 305.823 19.576C305.485 19.576 305.229 19.6713 305.056 19.862C304.882 20.044 304.796 20.3213 304.796 20.694V21.474L304.848 22.202V28H303.223ZM302.079 22.41V21.11H306.707V22.41H302.079ZM310.962 28.091C310.19 28.091 309.514 27.9393 308.934 27.636C308.362 27.324 307.915 26.8993 307.595 26.362C307.283 25.8247 307.127 25.2137 307.127 24.529C307.127 23.8357 307.278 23.2247 307.582 22.696C307.894 22.1587 308.318 21.7383 308.856 21.435C309.402 21.1317 310.021 20.98 310.715 20.98C311.391 20.98 311.993 21.1273 312.522 21.422C313.05 21.7167 313.466 22.1327 313.77 22.67C314.073 23.2073 314.225 23.84 314.225 24.568C314.225 24.6373 314.22 24.7153 314.212 24.802C314.212 24.8887 314.207 24.971 314.199 25.049H308.414V23.97H313.341L312.704 24.308C312.712 23.9093 312.63 23.5583 312.457 23.255C312.283 22.9517 312.045 22.7133 311.742 22.54C311.447 22.3667 311.105 22.28 310.715 22.28C310.316 22.28 309.965 22.3667 309.662 22.54C309.367 22.7133 309.133 22.956 308.96 23.268C308.795 23.5713 308.713 23.931 308.713 24.347V24.607C308.713 25.023 308.808 25.3913 308.999 25.712C309.189 26.0327 309.458 26.2797 309.805 26.453C310.151 26.6263 310.55 26.713 311.001 26.713C311.391 26.713 311.742 26.6523 312.054 26.531C312.366 26.4097 312.643 26.219 312.886 25.959L313.757 26.96C313.445 27.324 313.05 27.6057 312.574 27.805C312.106 27.9957 311.568 28.091 310.962 28.091ZM315.786 28V21.058H317.333V22.969L317.151 22.41C317.359 21.942 317.684 21.5867 318.126 21.344C318.576 21.1013 319.135 20.98 319.803 20.98V22.527C319.733 22.5097 319.668 22.501 319.608 22.501C319.547 22.4923 319.486 22.488 319.426 22.488C318.81 22.488 318.321 22.67 317.957 23.034C317.593 23.3893 317.411 23.9223 317.411 24.633V28H315.786Z" fill="#030C5F"/>
<path d="M5 13C5 5.8203 10.8203 0 18 0H182V47H18C10.8203 47 5 41.1797 5 34V13Z" fill="white"/>
<path d="M5.5 13C5.5 6.09644 11.0964 0.5 18 0.5H181.5V46.5H18C11.0964 46.5 5.5 40.9036 5.5 34V13Z" stroke="#8E8D8D" stroke-opacity="0.82"/>
<path d="M37.222 28V18.9H40.966C41.772 18.9 42.461 19.03 43.033 19.29C43.6137 19.55 44.06 19.9227 44.372 20.408C44.684 20.8933 44.84 21.4697 44.84 22.137C44.84 22.8043 44.684 23.3807 44.372 23.866C44.06 24.3427 43.6137 24.711 43.033 24.971C42.461 25.2223 41.772 25.348 40.966 25.348H38.158L38.912 24.581V28H37.222ZM43.176 28L40.875 24.698H42.682L44.996 28H43.176ZM38.912 24.763L38.158 23.957H40.888C41.6333 23.957 42.1923 23.7967 42.565 23.476C42.9463 23.1553 43.137 22.709 43.137 22.137C43.137 21.5563 42.9463 21.11 42.565 20.798C42.1923 20.486 41.6333 20.33 40.888 20.33H38.158L38.912 19.498V24.763ZM49.8378 28.091C49.0665 28.091 48.3905 27.9393 47.8098 27.636C47.2378 27.324 46.7915 26.8993 46.4708 26.362C46.1588 25.8247 46.0028 25.2137 46.0028 24.529C46.0028 23.8357 46.1545 23.2247 46.4578 22.696C46.7698 22.1587 47.1945 21.7383 47.7318 21.435C48.2778 21.1317 48.8975 20.98 49.5908 20.98C50.2668 20.98 50.8691 21.1273 51.3978 21.422C51.9265 21.7167 52.3425 22.1327 52.6458 22.67C52.9491 23.2073 53.1008 23.84 53.1008 24.568C53.1008 24.6373 53.0965 24.7153 53.0878 24.802C53.0878 24.8887 53.0835 24.971 53.0748 25.049H47.2898V23.97H52.2168L51.5798 24.308C51.5885 23.9093 51.5061 23.5583 51.3328 23.255C51.1595 22.9517 50.9211 22.7133 50.6178 22.54C50.3231 22.3667 49.9808 22.28 49.5908 22.28C49.1921 22.28 48.8411 22.3667 48.5378 22.54C48.2431 22.7133 48.0091 22.956 47.8358 23.268C47.6711 23.5713 47.5888 23.931 47.5888 24.347V24.607C47.5888 25.023 47.6841 25.3913 47.8748 25.712C48.0655 26.0327 48.3341 26.2797 48.6808 26.453C49.0275 26.6263 49.4261 26.713 49.8768 26.713C50.2668 26.713 50.6178 26.6523 50.9298 26.531C51.2418 26.4097 51.5191 26.219 51.7618 25.959L52.6328 26.96C52.3208 27.324 51.9265 27.6057 51.4498 27.805C50.9818 27.9957 50.4445 28.091 49.8378 28.091ZM55.9877 26.453L56.0267 24.412L59.6537 21.058H61.6037L58.5227 24.152L57.6647 24.867L55.9877 26.453ZM54.6617 28V18.354H56.2867V28H54.6617ZM59.9007 28L57.3657 24.867L58.3927 23.567L61.8767 28H59.9007ZM65.9101 28.091C65.1387 28.091 64.4627 27.9393 63.8821 27.636C63.3101 27.324 62.8637 26.8993 62.5431 26.362C62.2311 25.8247 62.0751 25.2137 62.0751 24.529C62.0751 23.8357 62.2267 23.2247 62.5301 22.696C62.8421 22.1587 63.2667 21.7383 63.8041 21.435C64.3501 21.1317 64.9697 20.98 65.6631 20.98C66.3391 20.98 66.9414 21.1273 67.4701 21.422C67.9987 21.7167 68.4147 22.1327 68.7181 22.67C69.0214 23.2073 69.1731 23.84 69.1731 24.568C69.1731 24.6373 69.1687 24.7153 69.1601 24.802C69.1601 24.8887 69.1557 24.971 69.1471 25.049H63.3621V23.97H68.2891L67.6521 24.308C67.6607 23.9093 67.5784 23.5583 67.4051 23.255C67.2317 22.9517 66.9934 22.7133 66.6901 22.54C66.3954 22.3667 66.0531 22.28 65.6631 22.28C65.2644 22.28 64.9134 22.3667 64.6101 22.54C64.3154 22.7133 64.0814 22.956 63.9081 23.268C63.7434 23.5713 63.6611 23.931 63.6611 24.347V24.607C63.6611 25.023 63.7564 25.3913 63.9471 25.712C64.1377 26.0327 64.4064 26.2797 64.7531 26.453C65.0997 26.6263 65.4984 26.713 65.9491 26.713C66.3391 26.713 66.6901 26.6523 67.0021 26.531C67.3141 26.4097 67.5914 26.219 67.8341 25.959L68.7051 26.96C68.3931 27.324 67.9987 27.6057 67.5221 27.805C67.0541 27.9957 66.5167 28.091 65.9101 28.091ZM74.673 20.98C75.2276 20.98 75.7216 21.0883 76.155 21.305C76.597 21.5217 76.9436 21.8553 77.195 22.306C77.4463 22.748 77.572 23.32 77.572 24.022V28H75.947V24.23C75.947 23.6147 75.7996 23.1553 75.505 22.852C75.219 22.5487 74.816 22.397 74.296 22.397C73.9146 22.397 73.5766 22.475 73.282 22.631C72.9873 22.787 72.7576 23.021 72.593 23.333C72.437 23.6363 72.359 24.022 72.359 24.49V28H70.734V21.058H72.281V22.93L72.008 22.358C72.2506 21.916 72.6016 21.578 73.061 21.344C73.529 21.1013 74.0663 20.98 74.673 20.98ZM79.6334 28V21.058H81.2584V28H79.6334ZM80.4524 19.914C80.149 19.914 79.8977 19.8187 79.6984 19.628C79.5077 19.4373 79.4124 19.2077 79.4124 18.939C79.4124 18.6617 79.5077 18.432 79.6984 18.25C79.8977 18.0593 80.149 17.964 80.4524 17.964C80.7557 17.964 81.0027 18.055 81.1934 18.237C81.3927 18.4103 81.4924 18.6313 81.4924 18.9C81.4924 19.186 81.397 19.4287 81.2064 19.628C81.0157 19.8187 80.7644 19.914 80.4524 19.914ZM87.3302 20.98C87.8849 20.98 88.3789 21.0883 88.8122 21.305C89.2542 21.5217 89.6009 21.8553 89.8522 22.306C90.1035 22.748 90.2292 23.32 90.2292 24.022V28H88.6042V24.23C88.6042 23.6147 88.4569 23.1553 88.1622 22.852C87.8762 22.5487 87.4732 22.397 86.9532 22.397C86.5719 22.397 86.2339 22.475 85.9392 22.631C85.6445 22.787 85.4149 23.021 85.2502 23.333C85.0942 23.6363 85.0162 24.022 85.0162 24.49V28H83.3912V21.058H84.9382V22.93L84.6652 22.358C84.9079 21.916 85.2589 21.578 85.7182 21.344C86.1862 21.1013 86.7235 20.98 87.3302 20.98ZM95.4493 30.613C94.808 30.613 94.1796 30.5263 93.5643 30.353C92.9576 30.1883 92.4593 29.9457 92.0693 29.625L92.7973 28.403C93.1006 28.6543 93.482 28.8537 93.9413 29.001C94.4093 29.157 94.8816 29.235 95.3583 29.235C96.121 29.235 96.68 29.0573 97.0353 28.702C97.3906 28.3553 97.5683 27.831 97.5683 27.129V25.894L97.6983 24.321L97.6463 22.748V21.058H99.1933V26.947C99.1933 28.2037 98.8726 29.1267 98.2313 29.716C97.59 30.314 96.6626 30.613 95.4493 30.613ZM95.2413 27.688C94.5826 27.688 93.9846 27.5493 93.4473 27.272C92.9186 26.986 92.4983 26.5917 92.1863 26.089C91.883 25.5863 91.7313 24.997 91.7313 24.321C91.7313 23.6537 91.883 23.0687 92.1863 22.566C92.4983 22.0633 92.9186 21.6733 93.4473 21.396C93.9846 21.1187 94.5826 20.98 95.2413 20.98C95.8306 20.98 96.3593 21.097 96.8273 21.331C97.2953 21.565 97.668 21.929 97.9453 22.423C98.2313 22.917 98.3743 23.5497 98.3743 24.321C98.3743 25.0923 98.2313 25.7293 97.9453 26.232C97.668 26.726 97.2953 27.0943 96.8273 27.337C96.3593 27.571 95.8306 27.688 95.2413 27.688ZM95.4883 26.31C95.8956 26.31 96.2596 26.2277 96.5803 26.063C96.901 25.8897 97.148 25.6557 97.3213 25.361C97.5033 25.0577 97.5943 24.711 97.5943 24.321C97.5943 23.931 97.5033 23.5887 97.3213 23.294C97.148 22.9907 96.901 22.761 96.5803 22.605C96.2596 22.4403 95.8956 22.358 95.4883 22.358C95.081 22.358 94.7126 22.4403 94.3833 22.605C94.0626 22.761 93.8113 22.9907 93.6293 23.294C93.456 23.5887 93.3693 23.931 93.3693 24.321C93.3693 24.711 93.456 25.0577 93.6293 25.361C93.8113 25.6557 94.0626 25.8897 94.3833 26.063C94.7126 26.2277 95.081 26.31 95.4883 26.31ZM107.899 28.13C107.189 28.13 106.508 28.0303 105.858 27.831C105.208 27.623 104.693 27.3587 104.311 27.038L104.896 25.725C105.26 26.011 105.711 26.2493 106.248 26.44C106.786 26.6307 107.336 26.726 107.899 26.726C108.376 26.726 108.762 26.674 109.056 26.57C109.351 26.466 109.568 26.3273 109.706 26.154C109.845 25.972 109.914 25.7683 109.914 25.543C109.914 25.2657 109.815 25.0447 109.615 24.88C109.416 24.7067 109.156 24.5723 108.835 24.477C108.523 24.373 108.172 24.2777 107.782 24.191C107.401 24.1043 107.015 24.0047 106.625 23.892C106.244 23.7707 105.893 23.619 105.572 23.437C105.26 23.2463 105.005 22.995 104.805 22.683C104.606 22.371 104.506 21.9723 104.506 21.487C104.506 20.993 104.636 20.5423 104.896 20.135C105.165 19.719 105.568 19.3897 106.105 19.147C106.651 18.8957 107.34 18.77 108.172 18.77C108.718 18.77 109.26 18.8393 109.797 18.978C110.335 19.1167 110.803 19.316 111.201 19.576L110.668 20.889C110.261 20.6463 109.841 20.4687 109.407 20.356C108.974 20.2347 108.558 20.174 108.159 20.174C107.691 20.174 107.31 20.2303 107.015 20.343C106.729 20.4557 106.517 20.603 106.378 20.785C106.248 20.967 106.183 21.175 106.183 21.409C106.183 21.6863 106.279 21.9117 106.469 22.085C106.669 22.2497 106.924 22.3797 107.236 22.475C107.557 22.5703 107.912 22.6657 108.302 22.761C108.692 22.8477 109.078 22.9473 109.459 23.06C109.849 23.1727 110.2 23.32 110.512 23.502C110.833 23.684 111.089 23.931 111.279 24.243C111.479 24.555 111.578 24.9493 111.578 25.426C111.578 25.9113 111.444 26.362 111.175 26.778C110.915 27.1853 110.512 27.5147 109.966 27.766C109.42 28.0087 108.731 28.13 107.899 28.13ZM116.361 28.091C115.59 28.091 114.914 27.9393 114.333 27.636C113.761 27.324 113.315 26.8993 112.994 26.362C112.682 25.8247 112.526 25.2137 112.526 24.529C112.526 23.8357 112.678 23.2247 112.981 22.696C113.293 22.1587 113.718 21.7383 114.255 21.435C114.801 21.1317 115.421 20.98 116.114 20.98C116.79 20.98 117.393 21.1273 117.921 21.422C118.45 21.7167 118.866 22.1327 119.169 22.67C119.473 23.2073 119.624 23.84 119.624 24.568C119.624 24.6373 119.62 24.7153 119.611 24.802C119.611 24.8887 119.607 24.971 119.598 25.049H113.813V23.97H118.74L118.103 24.308C118.112 23.9093 118.03 23.5583 117.856 23.255C117.683 22.9517 117.445 22.7133 117.141 22.54C116.847 22.3667 116.504 22.28 116.114 22.28C115.716 22.28 115.365 22.3667 115.061 22.54C114.767 22.7133 114.533 22.956 114.359 23.268C114.195 23.5713 114.112 23.931 114.112 24.347V24.607C114.112 25.023 114.208 25.3913 114.398 25.712C114.589 26.0327 114.858 26.2797 115.204 26.453C115.551 26.6263 115.95 26.713 116.4 26.713C116.79 26.713 117.141 26.6523 117.453 26.531C117.765 26.4097 118.043 26.219 118.285 25.959L119.156 26.96C118.844 27.324 118.45 27.6057 117.973 27.805C117.505 27.9957 116.968 28.091 116.361 28.091ZM125.124 20.98C125.679 20.98 126.173 21.0883 126.606 21.305C127.048 21.5217 127.395 21.8553 127.646 22.306C127.897 22.748 128.023 23.32 128.023 24.022V28H126.398V24.23C126.398 23.6147 126.251 23.1553 125.956 22.852C125.67 22.5487 125.267 22.397 124.747 22.397C124.366 22.397 124.028 22.475 123.733 22.631C123.438 22.787 123.209 23.021 123.044 23.333C122.888 23.6363 122.81 24.022 122.81 24.49V28H121.185V21.058H122.732V22.93L122.459 22.358C122.702 21.916 123.053 21.578 123.512 21.344C123.98 21.1013 124.517 20.98 125.124 20.98ZM133.035 28.091C132.368 28.091 131.766 27.9437 131.228 27.649C130.7 27.3457 130.284 26.9297 129.98 26.401C129.677 25.8723 129.525 25.2483 129.525 24.529C129.525 23.8097 129.677 23.1857 129.98 22.657C130.284 22.1283 130.7 21.7167 131.228 21.422C131.766 21.1273 132.368 20.98 133.035 20.98C133.616 20.98 134.136 21.11 134.595 21.37C135.055 21.6213 135.419 22.007 135.687 22.527C135.956 23.047 136.09 23.7143 136.09 24.529C136.09 25.335 135.96 26.0023 135.7 26.531C135.44 27.051 135.081 27.441 134.621 27.701C134.162 27.961 133.633 28.091 133.035 28.091ZM133.23 26.7C133.62 26.7 133.967 26.6133 134.27 26.44C134.582 26.2667 134.829 26.0153 135.011 25.686C135.202 25.3567 135.297 24.971 135.297 24.529C135.297 24.0783 135.202 23.6927 135.011 23.372C134.829 23.0427 134.582 22.7913 134.27 22.618C133.967 22.4447 133.62 22.358 133.23 22.358C132.84 22.358 132.489 22.4447 132.177 22.618C131.874 22.7913 131.627 23.0427 131.436 23.372C131.254 23.6927 131.163 24.0783 131.163 24.529C131.163 24.971 131.254 25.3567 131.436 25.686C131.627 26.0153 131.874 26.2667 132.177 26.44C132.489 26.6133 132.84 26.7 133.23 26.7ZM135.336 28V26.362L135.401 24.516L135.271 22.67V18.354H136.883V28H135.336ZM139.022 28V21.058H140.647V28H139.022ZM139.841 19.914C139.538 19.914 139.286 19.8187 139.087 19.628C138.896 19.4373 138.801 19.2077 138.801 18.939C138.801 18.6617 138.896 18.432 139.087 18.25C139.286 18.0593 139.538 17.964 139.841 17.964C140.144 17.964 140.391 18.055 140.582 18.237C140.781 18.4103 140.881 18.6313 140.881 18.9C140.881 19.186 140.786 19.4287 140.595 19.628C140.404 19.8187 140.153 19.914 139.841 19.914ZM142.78 28V21.058H144.327V22.969L144.145 22.41C144.353 21.942 144.678 21.5867 145.12 21.344C145.571 21.1013 146.13 20.98 146.797 20.98V22.527C146.728 22.5097 146.663 22.501 146.602 22.501C146.541 22.4923 146.481 22.488 146.42 22.488C145.805 22.488 145.315 22.67 144.951 23.034C144.587 23.3893 144.405 23.9223 144.405 24.633V28H142.78ZM148.175 28V21.058H149.8V28H148.175ZM148.994 19.914C148.691 19.914 148.44 19.8187 148.24 19.628C148.05 19.4373 147.954 19.2077 147.954 18.939C147.954 18.6617 148.05 18.432 148.24 18.25C148.44 18.0593 148.691 17.964 148.994 17.964C149.298 17.964 149.545 18.055 149.735 18.237C149.935 18.4103 150.034 18.6313 150.034 18.9C150.034 19.186 149.939 19.4287 149.748 19.628C149.558 19.8187 149.306 19.914 148.994 19.914Z" fill="#8E8D8D"/>
</g>
<g filter="url(#filter1_d_650_7610)">
<rect x="4" y="63" width="354" height="43" rx="10" fill="white"/>
</g>
<path d="M27.326 88.112C26.5793 88.112 25.8653 88 25.184 87.776C24.5027 87.5427 23.966 87.244 23.574 86.88L24.092 85.788C24.4653 86.1147 24.9413 86.3853 25.52 86.6C26.0987 86.8147 26.7007 86.922 27.326 86.922C27.8953 86.922 28.3573 86.8567 28.712 86.726C29.0667 86.5953 29.328 86.418 29.496 86.194C29.664 85.9607 29.748 85.6993 29.748 85.41C29.748 85.074 29.636 84.8033 29.412 84.598C29.1973 84.3927 28.9127 84.2293 28.558 84.108C28.2127 83.9773 27.83 83.8653 27.41 83.772C26.99 83.6787 26.5653 83.5713 26.136 83.45C25.716 83.3193 25.3287 83.156 24.974 82.96C24.6287 82.764 24.3487 82.5027 24.134 82.176C23.9193 81.84 23.812 81.4107 23.812 80.888C23.812 80.384 23.9427 79.922 24.204 79.502C24.4747 79.0727 24.8853 78.732 25.436 78.48C25.996 78.2187 26.7053 78.088 27.564 78.088C28.1333 78.088 28.698 78.1627 29.258 78.312C29.818 78.4613 30.3033 78.676 30.714 78.956L30.252 80.076C29.832 79.796 29.3887 79.5953 28.922 79.474C28.4553 79.3433 28.0027 79.278 27.564 79.278C27.0133 79.278 26.5607 79.348 26.206 79.488C25.8513 79.628 25.59 79.8147 25.422 80.048C25.2633 80.2813 25.184 80.5427 25.184 80.832C25.184 81.1773 25.2913 81.4527 25.506 81.658C25.73 81.8633 26.0147 82.0267 26.36 82.148C26.7147 82.2693 27.102 82.3813 27.522 82.484C27.942 82.5773 28.362 82.6847 28.782 82.806C29.2113 82.9273 29.5987 83.086 29.944 83.282C30.2987 83.478 30.5833 83.7393 30.798 84.066C31.0127 84.3927 31.12 84.8127 31.12 85.326C31.12 85.8207 30.9847 86.2827 30.714 86.712C30.4433 87.132 30.0233 87.4727 29.454 87.734C28.894 87.986 28.1847 88.112 27.326 88.112ZM36.2733 88.084C35.48 88.084 34.78 87.9207 34.1733 87.594C33.576 87.2673 33.1093 86.8193 32.7733 86.25C32.4466 85.6807 32.2833 85.0273 32.2833 84.29C32.2833 83.5527 32.442 82.8993 32.7593 82.33C33.086 81.7607 33.5293 81.3173 34.0893 81C34.6586 80.6733 35.298 80.51 36.0073 80.51C36.726 80.51 37.3606 80.6687 37.9113 80.986C38.462 81.3033 38.8913 81.7513 39.1993 82.33C39.5166 82.8993 39.6753 83.5667 39.6753 84.332C39.6753 84.388 39.6706 84.4533 39.6613 84.528C39.6613 84.6027 39.6566 84.6727 39.6473 84.738H33.3333V83.772H38.9473L38.4013 84.108C38.4106 83.632 38.3126 83.2073 38.1073 82.834C37.902 82.4607 37.6173 82.1713 37.2533 81.966C36.8986 81.7513 36.4833 81.644 36.0073 81.644C35.5406 81.644 35.1253 81.7513 34.7613 81.966C34.3973 82.1713 34.1126 82.4653 33.9073 82.848C33.702 83.2213 33.5993 83.6507 33.5993 84.136V84.36C33.5993 84.8547 33.7113 85.298 33.9353 85.69C34.1686 86.0727 34.4906 86.3713 34.9013 86.586C35.312 86.8007 35.7833 86.908 36.3153 86.908C36.754 86.908 37.1506 86.8333 37.5053 86.684C37.8693 86.5347 38.1866 86.3107 38.4573 86.012L39.1993 86.88C38.8633 87.272 38.4433 87.5707 37.9393 87.776C37.4446 87.9813 36.8893 88.084 36.2733 88.084ZM45.9425 88V86.432L45.8725 86.138V83.464C45.8725 82.8947 45.7045 82.456 45.3685 82.148C45.0418 81.8307 44.5472 81.672 43.8845 81.672C43.4458 81.672 43.0165 81.7467 42.5965 81.896C42.1765 82.036 41.8218 82.2273 41.5325 82.47L40.9725 81.462C41.3552 81.154 41.8125 80.9207 42.3445 80.762C42.8858 80.594 43.4505 80.51 44.0385 80.51C45.0558 80.51 45.8398 80.7573 46.3905 81.252C46.9412 81.7467 47.2165 82.5027 47.2165 83.52V88H45.9425ZM43.5065 88.084C42.9558 88.084 42.4705 87.9907 42.0505 87.804C41.6398 87.6173 41.3225 87.3607 41.0985 87.034C40.8745 86.698 40.7625 86.32 40.7625 85.9C40.7625 85.4987 40.8558 85.1347 41.0425 84.808C41.2385 84.4813 41.5512 84.22 41.9805 84.024C42.4192 83.828 43.0072 83.73 43.7445 83.73H46.0965V84.696H43.8005C43.1285 84.696 42.6758 84.808 42.4425 85.032C42.2092 85.256 42.0925 85.5267 42.0925 85.844C42.0925 86.208 42.2372 86.502 42.5265 86.726C42.8158 86.9407 43.2172 87.048 43.7305 87.048C44.2345 87.048 44.6732 86.936 45.0465 86.712C45.4292 86.488 45.7045 86.1613 45.8725 85.732L46.1385 86.656C45.9612 87.0947 45.6485 87.4447 45.2005 87.706C44.7525 87.958 44.1878 88.084 43.5065 88.084ZM49.7037 88V80.58H50.9917V82.596L50.8657 82.092C51.071 81.5787 51.4164 81.1867 51.9017 80.916C52.387 80.6453 52.9844 80.51 53.6937 80.51V81.812C53.6377 81.8027 53.5817 81.798 53.5257 81.798C53.479 81.798 53.4324 81.798 53.3857 81.798C52.667 81.798 52.0977 82.0127 51.6777 82.442C51.2577 82.8713 51.0477 83.492 51.0477 84.304V88H49.7037ZM58.5158 88.084C57.7598 88.084 57.0831 87.9207 56.4858 87.594C55.8978 87.2673 55.4358 86.8193 55.0998 86.25C54.7638 85.6807 54.5958 85.0273 54.5958 84.29C54.5958 83.5527 54.7638 82.8993 55.0998 82.33C55.4358 81.7607 55.8978 81.3173 56.4858 81C57.0831 80.6733 57.7598 80.51 58.5158 80.51C59.1878 80.51 59.7851 80.6453 60.3078 80.916C60.8398 81.1773 61.2505 81.5693 61.5398 82.092L60.5178 82.75C60.2751 82.386 59.9765 82.12 59.6218 81.952C59.2765 81.7747 58.9031 81.686 58.5018 81.686C58.0165 81.686 57.5825 81.7933 57.1998 82.008C56.8171 82.2227 56.5138 82.526 56.2898 82.918C56.0658 83.3007 55.9538 83.758 55.9538 84.29C55.9538 84.822 56.0658 85.284 56.2898 85.676C56.5138 86.068 56.8171 86.3713 57.1998 86.586C57.5825 86.8007 58.0165 86.908 58.5018 86.908C58.9031 86.908 59.2765 86.824 59.6218 86.656C59.9765 86.4787 60.2751 86.208 60.5178 85.844L61.5398 86.488C61.2505 87.0013 60.8398 87.398 60.3078 87.678C59.7851 87.9487 59.1878 88.084 58.5158 88.084ZM67.1462 80.51C67.7528 80.51 68.2848 80.6267 68.7422 80.86C69.2088 81.0933 69.5728 81.448 69.8342 81.924C70.0955 82.4 70.2262 83.002 70.2262 83.73V88H68.8822V83.884C68.8822 83.1653 68.7048 82.624 68.3502 82.26C68.0048 81.896 67.5148 81.714 66.8802 81.714C66.4042 81.714 65.9888 81.8073 65.6342 81.994C65.2795 82.1807 65.0042 82.456 64.8082 82.82C64.6215 83.184 64.5282 83.6367 64.5282 84.178V88H63.1842V77.612H64.5282V82.582L64.2622 82.05C64.5048 81.5647 64.8782 81.1867 65.3822 80.916C65.8862 80.6453 66.4742 80.51 67.1462 80.51Z" fill="#868686"/>
<ellipse cx="335.208" cy="83.125" rx="7.75" ry="8.25" stroke="#222222"/>
<path d="M335.208 79C334.7 79 334.196 79.1067 333.725 79.314C333.255 79.5213 332.828 79.8251 332.468 80.2082C332.109 80.5912 331.823 81.046 331.628 81.5464C331.434 82.0469 331.333 82.5833 331.333 83.125" stroke="#222222" stroke-linecap="round"/>
<path d="M346.833 95.5L342.958 91.375" stroke="#222222" stroke-linecap="round"/>
<defs>
<filter id="filter0_d_650_7610" x="2" y="0" width="360" height="56" filterUnits="userSpaceOnUse" color-interpolation-filters="sRGB">
<feFlood flood-opacity="0" result="BackgroundImageFix"/>
<feColorMatrix in="SourceAlpha" type="matrix" values="0 0 0 0 0 0 0 0 0 0 0 0 0 0 0 0 0 0 127 0" result="hardAlpha"/>
<feOffset dy="6"/>
<feGaussianBlur stdDeviation="1.5"/>
<feComposite in2="hardAlpha" operator="out"/>
<feColorMatrix type="matrix" values="0 0 0 0 1 0 0 0 0 1 0 0 0 0 1 0 0 0 0.25 0"/>
<feBlend mode="normal" in2="BackgroundImageFix" result="effect1_dropShadow_650_7610"/>
<feBlend mode="normal" in="SourceGraphic" in2="effect1_dropShadow_650_7610" result="shape"/>
</filter>
<filter id="filter1_d_650_7610" x="0" y="63" width="362" height="51" filterUnits="userSpaceOnUse" color-interpolation-filters="sRGB">
<feFlood flood-opacity="0" result="BackgroundImageFix"/>
<feColorMatrix in="SourceAlpha" type="matrix" values="0 0 0 0 0 0 0 0 0 0 0 0 0 0 0 0 0 0 127 0" result="hardAlpha"/>
<feOffset dy="4"/>
<feGaussianBlur stdDeviation="2"/>
<feComposite in2="hardAlpha" operator="out"/>
<feColorMatrix type="matrix" values="0 0 0 0 0 0 0 0 0 0 0 0 0 0 0 0 0 0 0.25 0"/>
<feBlend mode="normal" in2="BackgroundImageFix" result="effect1_dropShadow_650_7610"/>
<feBlend mode="normal" in="SourceGraphic" in2="effect1_dropShadow_650_7610" result="shape"/>
</filter>
</defs>
</svg>
